STARTFONT 2.1
FONT -FontForge-Racing Sans One-Book-R-Normal-SansOne--38-360-75-75-P-212-ISO10646-1
SIZE 36 75 75
FONTBOUNDINGBOX 57 49 -7 -11
COMMENT "Generated by fontforge, http://fontforge.sourceforge.net"
COMMENT "Copyright (c) 2012, Pablo Impallari (www.impallari.com|impallari@gmail.com) and Rodrigo Fuenzalida (www.rfuenzalida.com), with Reserved Font Name Racing Sans."
STARTPROPERTIES 39
FOUNDRY "FontForge"
FAMILY_NAME "Racing Sans One"
WEIGHT_NAME "Book"
SLANT "R"
SETWIDTH_NAME "Normal"
ADD_STYLE_NAME "SansOne"
PIXEL_SIZE 38
POINT_SIZE 360
RESOLUTION_X 75
RESOLUTION_Y 75
SPACING "P"
AVERAGE_WIDTH 212
CHARSET_REGISTRY "ISO10646"
CHARSET_ENCODING "1"
FONTNAME_REGISTRY ""
CHARSET_COLLECTIONS "ISO8859-2 ISO8859-9 ISO8859-4 ISO10646-1"
FONT_NAME "RacingSansOne-Regular"
FACE_NAME "Racing Sans One"
COPYRIGHT "Copyright (c) 2012, Pablo Impallari (www.impallari.com|impallari@gmail.com) and Rodrigo Fuenzalida (www.rfuenzalida.com), with Reserved Font Name Racing Sans."
FONT_VERSION "1.001; ttfautohint (v0.8) -G 200 -r 50"
FONT_ASCENT 30
FONT_DESCENT 8
UNDERLINE_POSITION -4
UNDERLINE_THICKNESS 2
X_HEIGHT 16
CAP_HEIGHT 23
RAW_ASCENT 800
RAW_DESCENT 200
NORM_SPACE 7
RELATIVE_WEIGHT 40
RELATIVE_SETWIDTH 50
SUPERSCRIPT_X 0
SUPERSCRIPT_Y 18
SUPERSCRIPT_SIZE 24
SUBSCRIPT_X 0
SUBSCRIPT_Y 5
SUBSCRIPT_SIZE 24
AVG_LOWERCASE_WIDTH 209
AVG_UPPERCASE_WIDTH 234
ENDPROPERTIES
CHARS 471
STARTCHAR space
ENCODING 32
SWIDTH 191 0
DWIDTH 7 0
BBX 1 1 0 0
BITMAP
00
ENDCHAR
STARTCHAR exclam
ENCODING 33
SWIDTH 294 0
DWIDTH 11 0
BBX 12 26 1 0
BITMAP
0FF0
0FE0
0FE0
0FE0
1FE0
1FC0
1FC0
1FC0
1F80
1F80
1F80
3F80
3F00
3F00
3F00
3F00
3E00
3E00
0000
0000
3C00
FE00
FE00
FE00
FE00
7800
ENDCHAR
STARTCHAR quotedbl
ENCODING 34
SWIDTH 446 0
DWIDTH 17 0
BBX 16 11 3 15
BITMAP
3F3F
3E3F
7E3E
7E3E
7C3E
7C7C
787C
787C
7878
F078
F078
ENDCHAR
STARTCHAR numbersign
ENCODING 35
SWIDTH 672 0
DWIDTH 26 0
BBX 25 24 1 0
BITMAP
00E03800
00E07800
00E07800
01E07000
01E07000
3FFFFF80
3FFFFF80
3FFFFF80
3FFFFF00
03C0E000
0381E000
0381E000
0781C000
0781C000
FFFFFE00
FFFFFE00
FFFFFE00
FFFFFC00
0F038000
0E078000
0E078000
1E078000
1E070000
1E0F0000
ENDCHAR
STARTCHAR dollar
ENCODING 36
SWIDTH 596 0
DWIDTH 23 0
BBX 19 32 2 -4
BITMAP
001E00
001E00
001E00
00FF00
07FFE0
1FFFE0
3FC0E0
7F8020
7F0000
7F0000
FF0000
FF8000
7FF000
7FFE00
7FFF80
3FFFC0
1FFFE0
07FFE0
007FE0
003FE0
001FE0
001FE0
001FE0
803FC0
F07FC0
FFFF80
FFFE00
1FF800
078000
078000
078000
078000
ENDCHAR
STARTCHAR percent
ENCODING 37
SWIDTH 724 0
DWIDTH 28 0
BBX 22 24 3 0
BITMAP
1F8078
7FC0F0
79C1E0
F1E1E0
F3E3C0
F3C780
F7C780
FF8F00
3E0E00
001E00
003C00
003C00
007800
00F000
00F1F8
01E7FC
03C7BC
03CF3C
078F3C
0F0F3C
0F0F3C
1E0F7C
3E0FF8
7C07E0
ENDCHAR
STARTCHAR ampersand
ENCODING 38
SWIDTH 705 0
DWIDTH 27 0
BBX 25 24 0 0
BITMAP
000FE000
003FF800
007FFC00
00FC3C00
01FC1C00
01FE1C00
01FF3C00
01FF7800
00FFF000
00FFC000
07FFC700
1FFFEE00
3F3FEE00
7F3FFC00
7F1FFC00
FF1FF800
FF0FF800
FF0FFC00
FF87FC00
FFC7FE00
7FFFFE00
7FFFFF00
3FF9FF00
0FE1FF80
ENDCHAR
STARTCHAR quotesingle
ENCODING 39
SWIDTH 214 0
DWIDTH 8 0
BBX 8 11 3 15
BITMAP
3F
3E
7E
7C
7C
78
78
78
70
F0
E0
ENDCHAR
STARTCHAR parenleft
ENCODING 40
SWIDTH 308 0
DWIDTH 12 0
BBX 13 31 1 -3
BITMAP
0010
0038
0078
00F0
01E0
03E0
07C0
0F80
0F80
1F00
3F00
3F00
3E00
7E00
7E00
7C00
FC00
FC00
FC00
FC00
FC00
FC00
FC00
7C00
7C00
3C00
3E00
1E00
0E00
0700
0200
ENDCHAR
STARTCHAR parenright
ENCODING 41
SWIDTH 308 0
DWIDTH 12 0
BBX 14 31 -2 -3
BITMAP
0100
0380
03C0
01E0
01F0
00F0
00F8
00F8
00F8
00F8
00F8
00FC
00FC
00F8
00F8
01F8
01F8
01F8
03F0
03F0
03E0
07E0
07C0
0F80
0F80
1F00
3E00
3C00
7800
F000
4000
ENDCHAR
STARTCHAR asterisk
ENCODING 42
SWIDTH 273 0
DWIDTH 10 0
BBX 8 8 4 18
BITMAP
18
5A
FF
7C
7C
DE
B4
30
ENDCHAR
STARTCHAR plus
ENCODING 43
SWIDTH 459 0
DWIDTH 17 0
BBX 16 17 1 4
BITMAP
00F0
00E0
01E0
01E0
01E0
01E0
7FFF
7FFF
FFFF
FFFF
03C0
0780
0780
0780
0780
0780
0F00
ENDCHAR
STARTCHAR comma
ENCODING 44
SWIDTH 275 0
DWIDTH 10 0
BBX 9 12 -1 -5
BITMAP
1E00
3F00
7F80
7F80
3F80
1F00
1F00
1E00
3C00
7800
F000
6000
ENDCHAR
STARTCHAR hyphen
ENCODING 45
SWIDTH 415 0
DWIDTH 16 0
BBX 13 4 1 6
BITMAP
7FF8
7FF8
FFF0
FFF0
ENDCHAR
STARTCHAR period
ENCODING 46
SWIDTH 274 0
DWIDTH 10 0
BBX 8 7 0 0
BITMAP
3C
7E
FF
FF
FF
FE
7C
ENDCHAR
STARTCHAR slash
ENCODING 47
SWIDTH 358 0
DWIDTH 14 0
BBX 17 24 -1 0
BITMAP
000780
000F00
000E00
001E00
001C00
003C00
003800
007800
00F000
00F000
01E000
01C000
03C000
038000
078000
070000
0F0000
1E0000
1E0000
3C0000
3C0000
780000
780000
F00000
ENDCHAR
STARTCHAR zero
ENCODING 48
SWIDTH 668 0
DWIDTH 25 0
BBX 23 24 2 0
BITMAP
007F80
01FFE0
07FFF8
0FF3F8
1FE1FC
3FC1FC
3FC1FE
7FC1FE
7F83FE
FF83FE
FF83FE
FF03FE
FF03FC
FF03FC
FF07FC
FF07FC
FF07F8
FF0FF8
FF0FF0
FF1FF0
7F1FE0
3FFFC0
1FFF00
07FC00
ENDCHAR
STARTCHAR one
ENCODING 49
SWIDTH 397 0
DWIDTH 15 0
BBX 14 24 2 0
BITMAP
00FC
01FC
07F8
1FF8
7FF8
FFF8
0FF8
0FF0
0FF0
0FF0
1FF0
1FE0
1FE0
1FE0
1FE0
3FE0
3FC0
3FC0
3FC0
7FC0
7F80
7F80
7F80
7F80
ENDCHAR
STARTCHAR two
ENCODING 50
SWIDTH 593 0
DWIDTH 23 0
BBX 22 24 0 0
BITMAP
003F80
01FFE0
07FFF8
0FF3F8
1FE3FC
1FC3FC
1FC3FC
1FC3FC
1F83FC
2003FC
0003FC
0007F8
0007F0
000FE0
001FC0
003F80
007F00
01FC00
07F800
1FFFF0
7FFFF0
FFFFF0
FFFFF0
FFFFF0
ENDCHAR
STARTCHAR three
ENCODING 51
SWIDTH 604 0
DWIDTH 23 0
BBX 22 24 0 0
BITMAP
007FC0
03FFF0
0FFFF8
0FE1FC
0FE1FC
1FC1FC
1FC1FC
0003FC
0007F8
003FE0
003F80
003FC0
001FF0
000FF8
0007F8
7F07F8
7F07F8
7F0FF8
7E0FF8
FF0FF0
FF1FF0
7FFFC0
3FFF80
07FC00
ENDCHAR
STARTCHAR four
ENCODING 52
SWIDTH 607 0
DWIDTH 23 0
BBX 22 24 0 0
BITMAP
000FFC
001FFC
003FFC
007FF8
00FFF8
00F7F8
01EFF8
03CFF0
07CFF0
0F8FF0
1F0FF0
1E1FF0
3C1FE0
7C1FE0
781FE0
FFFFFC
FFFFFC
FFFFFC
003FC0
003FC0
007FC0
007F80
007F80
007F80
ENDCHAR
STARTCHAR five
ENCODING 53
SWIDTH 563 0
DWIDTH 21 0
BBX 21 24 0 0
BITMAP
07FFF8
07FFF0
07FFF0
0FFFF0
0FFFF0
0F8000
0F0000
0F7F00
1FFFC0
1FFFE0
1F9FE0
1F0FF0
200FF0
000FF0
000FF0
7E0FF0
7E0FF0
7E0FF0
FE0FE0
FE1FE0
FE1FC0
7FFF80
3FFE00
0FF000
ENDCHAR
STARTCHAR six
ENCODING 54
SWIDTH 616 0
DWIDTH 23 0
BBX 21 24 2 0
BITMAP
003FC0
01FFF8
07FFF8
0FE3F0
1FE3F0
3FC3F0
3FC3F0
7F8000
7F8000
FF9FC0
FF7FE0
FFFFF0
FF8FF0
FF8FF0
FF0FF0
FF0FF0
FE0FF0
FE0FF0
FE1FF0
FE1FE0
7E3FC0
3FFF80
1FFF00
07F800
ENDCHAR
STARTCHAR seven
ENCODING 55
SWIDTH 531 0
DWIDTH 20 0
BBX 20 24 3 0
BITMAP
7FFFF0
FFFFE0
FFFFE0
FFFFE0
FFFF80
003F00
007E00
00FC00
01F800
03F800
07F000
07F000
0FE000
0FE000
1FC000
1FC000
3FC000
3FC000
3F8000
7F8000
7F8000
7F8000
7F8000
7F8000
ENDCHAR
STARTCHAR eight
ENCODING 56
SWIDTH 620 0
DWIDTH 24 0
BBX 21 24 1 0
BITMAP
007F80
03FFE0
0FFFF0
1FE3F8
1FC3F8
3FC3F8
3FC3F8
3FC3F8
1FC7F0
0FFFE0
07FF80
1FFFE0
3FCFF0
7F8FF0
FF87F8
FF0FF8
FF0FF8
FF0FF8
FF0FF0
FF0FF0
7F1FE0
7FFFC0
1FFF00
07FC00
ENDCHAR
STARTCHAR nine
ENCODING 57
SWIDTH 619 0
DWIDTH 24 0
BBX 22 24 1 0
BITMAP
00FF00
03FFE0
0FFFF0
1FE3F0
3FC3F8
3FC3F8
3FC3FC
7FC3FC
7F83FC
7F87FC
7F87FC
3FDFFC
3FFFFC
1FF7F8
0FC7F8
0007F8
000FF0
7E0FF0
7E0FE0
7E1FE0
7E3FC0
FFFF00
FFFE00
1FF000
ENDCHAR
STARTCHAR colon
ENCODING 58
SWIDTH 282 0
DWIDTH 11 0
BBX 9 15 0 0
BITMAP
0F00
1F80
3F80
3F80
3F80
1F00
0000
0000
0000
3C00
7E00
FE00
FE00
7E00
3C00
ENDCHAR
STARTCHAR semicolon
ENCODING 59
SWIDTH 285 0
DWIDTH 11 0
BBX 10 20 -1 -5
BITMAP
0780
0FC0
1FC0
1FC0
1FC0
0F80
0000
0000
0400
3F00
7F00
7F00
3F00
1F00
1F00
1E00
1C00
3800
F000
4000
ENDCHAR
STARTCHAR less
ENCODING 60
SWIDTH 397 0
DWIDTH 15 0
BBX 14 16 1 4
BITMAP
007C
00F0
01E0
03C0
0F80
1F00
3E00
7C00
FC00
3C00
3E00
1F00
0F80
0780
03C0
03E0
ENDCHAR
STARTCHAR equal
ENCODING 61
SWIDTH 413 0
DWIDTH 16 0
BBX 14 9 1 6
BITMAP
3FFC
3FFC
7FF8
0000
0000
0000
7FF8
FFF0
FFF0
ENDCHAR
STARTCHAR greater
ENCODING 62
SWIDTH 396 0
DWIDTH 15 0
BBX 14 16 1 4
BITMAP
1F00
0F00
0780
07C0
03E0
01F0
00F0
00FC
00F8
01F0
03E0
07C0
0F00
1E00
7C00
F800
ENDCHAR
STARTCHAR question
ENCODING 63
SWIDTH 525 0
DWIDTH 20 0
BBX 18 27 3 0
BITMAP
00C000
1FFE00
3FFF00
7F3F80
7E1FC0
FE1FC0
FC1FC0
FC3FC0
F83FC0
003F80
007F80
00FF00
01FE00
07FC00
0FF000
0FC000
0FC000
0FC000
0FC000
000000
000000
0F0000
1F8000
3FC000
3F8000
3F8000
1F0000
ENDCHAR
STARTCHAR at
ENCODING 64
SWIDTH 745 0
DWIDTH 28 0
BBX 26 25 1 -4
BITMAP
003FC000
01FFF800
03FFFC00
0FC03E00
1F000F00
1E000780
3C000780
787CF380
70FFE3C0
71FBE1C0
F1F3E1C0
F1E3E1C0
E3E3E1C0
E3E3C3C0
E3E7C380
E3E7C380
F1FDC780
F1FDFF00
70F0FE00
78007800
3C000000
3E020000
1FFC0000
0FFC0000
01FC0000
ENDCHAR
STARTCHAR A
ENCODING 65
SWIDTH 602 0
DWIDTH 23 0
BBX 23 24 -2 0
BITMAP
001FF0
001FF8
003FF8
003FF8
007FF8
0077F8
00F7F8
00E7F8
01E7F8
01C7F8
01C7FC
0387FC
0387FC
0787FC
0707FC
0FFFFC
0FFFFC
1FFFFC
1C03FC
3C03FE
3803FE
7803FE
7803FE
F003FE
ENDCHAR
STARTCHAR B
ENCODING 66
SWIDTH 622 0
DWIDTH 24 0
BBX 23 24 0 0
BITMAP
07FFE0
07FFF8
07FFFC
0FF8FE
0FF0FE
0FF0FE
0FF0FE
0FF0FE
1FF1FC
1FE3FC
1FFFF0
1FFFF0
3FFFF8
3FC3FC
3FC3FC
3FC3FC
3FC3FC
7FC3FC
7F83FC
7F87FC
7F8FF8
7FFFF0
FFFFC0
FFFF00
ENDCHAR
STARTCHAR C
ENCODING 67
SWIDTH 639 0
DWIDTH 24 0
BBX 24 24 1 0
BITMAP
001FE0
00FFFC
03FFFF
07F8FF
0FF0FF
1FE0FF
3FE0FE
3FE0FE
7FC0FE
7FC000
7FC000
7FC000
FF8000
FF8000
FF8000
FF81FC
FF83FC
7F83F8
7F83F8
7F87F8
3F87F8
1FFFF8
0FFFE0
01FE00
ENDCHAR
STARTCHAR D
ENCODING 68
SWIDTH 662 0
DWIDTH 25 0
BBX 25 24 0 0
BITMAP
07FFF000
07FFFC00
07FFFE00
0FF8FF00
0FF07F00
0FF07F00
0FF07F80
0FF07F80
1FF0FF80
1FE0FF80
1FE0FF80
1FE0FF80
3FE0FF00
3FE0FF00
3FC1FF00
3FC1FF00
3FC1FE00
7FC3FE00
7F83FC00
7F87FC00
7F8FF800
7FFFE000
FFFFC000
FFFE0000
ENDCHAR
STARTCHAR E
ENCODING 69
SWIDTH 503 0
DWIDTH 19 0
BBX 21 24 0 0
BITMAP
07FFF8
07FFF8
07FFF8
0FF800
0FF000
0FF000
0FF000
0FF000
1FF000
1FE000
1FFFC0
1FFF80
3FFF80
3FC000
3FC000
3FC000
3FC000
7FC000
7F8000
7F8000
7F8000
7FFF80
FFFF00
FFFF00
ENDCHAR
STARTCHAR F
ENCODING 70
SWIDTH 491 0
DWIDTH 19 0
BBX 21 24 0 0
BITMAP
07FFF8
07FFF8
07FFF8
0FF800
0FF000
0FF000
0FF000
0FF000
1FE000
1FFFC0
1FFFC0
1FFF80
3FE000
3FC000
3FC000
3FC000
3FC000
7FC000
7F8000
7F8000
7F8000
7F8000
FF8000
FF0000
ENDCHAR
STARTCHAR G
ENCODING 71
SWIDTH 642 0
DWIDTH 24 0
BBX 24 24 1 0
BITMAP
001FE0
00FFFC
03FFFF
07F8FE
0FF0FE
1FE0FE
3FE0FE
3FE0FE
7FC0FC
7FC000
7FC000
7FC000
FF8FFC
FF8FFC
FF8FFC
FF81FC
FF81FC
7F83F8
7F83F8
7F83F8
3F87F8
1FFFF8
0FFDF0
03F1F0
ENDCHAR
STARTCHAR H
ENCODING 72
SWIDTH 666 0
DWIDTH 25 0
BBX 26 24 0 0
BITMAP
07F83FC0
07F83FC0
07F87FC0
0FF87FC0
0FF07F80
0FF07F80
0FF07F80
0FF0FF80
1FF0FF00
1FE0FF00
1FFFFF00
1FFFFF00
3FFFFF00
3FC1FE00
3FC1FE00
3FC1FE00
3FC3FE00
7FC3FE00
7F83FC00
7F83FC00
7F83FC00
7F87FC00
FF87F800
FF07F800
ENDCHAR
STARTCHAR I
ENCODING 73
SWIDTH 326 0
DWIDTH 12 0
BBX 13 24 0 0
BITMAP
07F8
07F8
07F8
0FF8
0FF0
0FF0
0FF0
0FF0
1FF0
1FE0
1FE0
1FE0
3FE0
3FC0
3FC0
3FC0
3FC0
7FC0
7F80
7F80
7F80
7F80
FF80
FF00
ENDCHAR
STARTCHAR J
ENCODING 74
SWIDTH 590 0
DWIDTH 22 0
BBX 25 24 -1 0
BITMAP
0000FF80
0000FF00
0000FF00
0000FF00
0001FF00
0001FE00
0001FE00
0001FE00
0003FE00
0003FE00
0003FC00
0003FC00
0003FC00
0007FC00
0007F800
7F87F800
7F07F800
7F0FF800
7F0FF000
7F0FF000
FF1FE000
7FFFC000
1FFF8000
07FC0000
ENDCHAR
STARTCHAR K
ENCODING 75
SWIDTH 608 0
DWIDTH 23 0
BBX 25 24 0 0
BITMAP
07F80F80
07F81E00
07F83E00
0FF87C00
0FF07800
0FF0F000
0FF1E000
0FF3C000
1FF78000
1FEF0000
1FFF8000
1FFF8000
3FFFC000
3FFFC000
3FDFC000
3FDFE000
3FDFE000
7FCFF000
7F8FF000
7F8FF000
7F87F800
7F87F800
FF87F800
FF03FC00
ENDCHAR
STARTCHAR L
ENCODING 76
SWIDTH 482 0
DWIDTH 18 0
BBX 17 24 0 0
BITMAP
07F800
07F800
07F800
0FF800
0FF000
0FF000
0FF000
0FF000
1FF000
1FE000
1FE000
1FE000
3FE000
3FE000
3FC000
3FC000
3FC000
7FC000
7F8000
7F8000
7F8000
7FFF80
FFFF00
FFFF00
ENDCHAR
STARTCHAR M
ENCODING 77
SWIDTH 844 0
DWIDTH 32 0
BBX 33 24 0 0
BITMAP
07FE01FF80
07FE03FF80
07FE03FF80
0FFE07FF00
0FFE07FF00
0FFE0FFF00
0FFE0FFF00
0FFE1FFE00
1FFF1FFE00
1FFF3DFE00
1DFF3BFE00
1DFF7BFE00
3CFF73FC00
3CFFF3FC00
3CFFE7FC00
38FFE7FC00
38FFC7FC00
78FFC7F800
78FF87F800
70FF0FF800
70FF0FF800
707E0FF000
F07E0FF000
F07C1FF000
ENDCHAR
STARTCHAR N
ENCODING 78
SWIDTH 644 0
DWIDTH 24 0
BBX 25 24 0 0
BITMAP
07FC0380
07FE0380
07FE0780
0FFE0780
0FFE0700
0FFE0700
0FFF0700
0FFF0F00
1EFF0F00
1EFF0E00
1CFF8E00
1CFF9E00
3C7F9E00
3C7F9E00
387F9C00
387FDC00
383FFC00
783FFC00
783FF800
703FF800
703FF800
701FF800
F01FF800
F01FF000
ENDCHAR
STARTCHAR O
ENCODING 79
SWIDTH 685 0
DWIDTH 26 0
BBX 25 24 1 0
BITMAP
003FE000
01FFF800
03FFFC00
07F8FE00
0FF0FF00
1FF0FF00
3FE0FF00
3FE0FF80
7FC0FF80
7FC0FF80
7FC0FF80
7F80FF80
FF80FF00
FF81FF00
FF81FF00
FF81FF00
FF83FE00
7F83FE00
7F87FC00
7F87F800
3F8FF800
3FFFF000
0FFFC000
03FE0000
ENDCHAR
STARTCHAR P
ENCODING 80
SWIDTH 600 0
DWIDTH 23 0
BBX 24 24 0 0
BITMAP
07FFE0
07FFFC
07FFFE
0FF8FE
0FF0FE
0FF0FF
0FF0FF
0FF0FF
1FF0FE
1FE0FE
1FE1FE
1FE1FC
3FE3FC
3FFFF8
3FFFE0
3FFF80
3FC000
7FC000
7F8000
7F8000
7F8000
7F8000
FF8000
FF0000
ENDCHAR
STARTCHAR Q
ENCODING 81
SWIDTH 685 0
DWIDTH 26 0
BBX 25 32 1 -8
BITMAP
003FE000
00FFF800
03FFFC00
07F8FE00
0FF0FF00
1FF0FF00
3FE0FF00
3FE0FF80
7FC0FF80
7FC0FF80
7FC0FF80
7FC0FF80
FF80FF80
FF81FF00
FF81FF00
FF81FF00
FF81FF00
FF83FE00
7F83FE00
7F87FC00
7F87F800
3F8FF800
3FDFF000
1FFFC000
07FF0000
00FE0000
007F8000
007FF000
003FC000
001F8000
000F0000
00040000
ENDCHAR
STARTCHAR R
ENCODING 82
SWIDTH 633 0
DWIDTH 24 0
BBX 24 24 0 0
BITMAP
07FFF0
07FFFC
07FFFE
0FF8FE
0FF0FF
0FF0FF
0FF0FF
0FF0FE
1FF0FE
1FE1FE
1FE3FC
1FFFF8
3FFFE0
3FFFE0
3FDFE0
3FCFE0
3FCFF0
7FCFF0
7F8FF8
7F87F8
7F87F8
7F87FC
FF83FC
FF03FE
ENDCHAR
STARTCHAR S
ENCODING 83
SWIDTH 587 0
DWIDTH 22 0
BBX 23 24 0 0
BITMAP
001FE0
01FFFC
03FFFE
0FE1FC
0FC1FC
1FC1FC
1FC1F8
3FE000
3FF000
1FFF00
1FFFE0
1FFFF0
0FFFF8
03FFF8
007FF8
000FF8
0007F8
7F07F8
7F07F8
FF07F0
FF0FF0
FFFFE0
7FFF80
0FFC00
ENDCHAR
STARTCHAR T
ENCODING 84
SWIDTH 555 0
DWIDTH 21 0
BBX 21 24 3 0
BITMAP
FFFFF8
FFFFF0
FFFFF0
03FC00
07FC00
07F800
07F800
07F800
07F800
0FF800
0FF000
0FF000
0FF000
0FF000
1FF000
1FE000
1FE000
1FE000
3FE000
3FC000
3FC000
3FC000
3FC000
7FC000
ENDCHAR
STARTCHAR U
ENCODING 85
SWIDTH 630 0
DWIDTH 24 0
BBX 24 24 1 0
BITMAP
0FF007
0FF00F
1FF00F
1FF00E
1FF00E
1FE01E
3FE01E
3FE01E
3FE01C
3FC01C
3FC03C
7FC03C
7FC038
7FC038
7F8038
7F8078
FF8078
FF8070
FF80F0
FF80E0
7FC1E0
7FFFC0
3FFF00
07F800
ENDCHAR
STARTCHAR V
ENCODING 86
SWIDTH 581 0
DWIDTH 22 0
BBX 22 24 3 0
BITMAP
FF803C
FF8078
FF8078
FF80F0
FF80F0
FF81E0
FF81E0
7F83C0
7F83C0
7FC780
7FC780
7FCF00
7FCF00
7FDE00
7FDE00
7FFC00
7FFC00
7FFC00
7FF800
7FF800
7FF000
7FF000
7FE000
7FE000
ENDCHAR
STARTCHAR W
ENCODING 87
SWIDTH 944 0
DWIDTH 36 0
BBX 35 24 3 0
BITMAP
FF80FF01E0
FF80FF01E0
FF81FF03C0
FF81FF03C0
FF83FF0780
FF83FF0780
FF83FF0780
FFC7FF0F00
7FC7FF0F00
7FC7FF1E00
7FCFFF1E00
7FCFFF1E00
7FDFFF3C00
7FDE7FBC00
7FDE7FF800
7FFC7FF800
7FFC7FF800
7FF87FF000
7FF87FF000
7FF87FE000
7FF07FE000
7FF07FE000
7FE07FC000
3FE07FC000
ENDCHAR
STARTCHAR X
ENCODING 88
SWIDTH 602 0
DWIDTH 23 0
BBX 26 24 -1 0
BITMAP
1FF807C0
0FF80F80
0FFC0F00
07FC1E00
07FC3C00
07FE7C00
03FE7800
03FFF000
01FFE000
01FFC000
00FF8000
00FF8000
00FFC000
00FFC000
00FFE000
01FFE000
03FFE000
079FF000
0F9FF000
1F1FF800
1E0FF800
3C0FFC00
7807FC00
F807FE00
ENDCHAR
STARTCHAR Y
ENCODING 89
SWIDTH 570 0
DWIDTH 22 0
BBX 21 24 3 0
BITMAP
FF8078
FF80F8
7FC0F0
7FC1E0
7FC1E0
7FE3C0
3FE380
3FE780
3FEF00
3FFE00
1FFE00
1FFC00
1FF800
1FF800
0FF000
1FF000
1FE000
1FE000
1FE000
1FE000
3FE000
3FC000
3FC000
3FC000
ENDCHAR
STARTCHAR Z
ENCODING 90
SWIDTH 553 0
DWIDTH 21 0
BBX 23 24 -1 0
BITMAP
0FFFFE
0FFFFE
0FFFFE
0007FE
000FFC
001FF8
001FF8
003FF0
007FE0
007FE0
00FFC0
01FF80
03FF80
03FF00
07FE00
0FFC00
0FFC00
1FF800
3FF000
3FF000
7FE000
7FFFF0
FFFFF0
FFFFF0
ENDCHAR
STARTCHAR bracketleft
ENCODING 91
SWIDTH 295 0
DWIDTH 11 0
BBX 14 30 0 -3
BITMAP
03FC
03FC
07F8
0780
0780
0780
0780
0F00
0F00
0F00
0F00
1F00
1E00
1E00
1E00
1E00
3C00
3C00
3C00
3C00
3C00
7800
7800
7800
7800
F800
F000
FF00
FF00
FF00
ENDCHAR
STARTCHAR backslash
ENCODING 92
SWIDTH 605 0
DWIDTH 23 0
BBX 16 24 4 0
BITMAP
E000
F000
7000
7800
3C00
1C00
1E00
0E00
0F00
0700
0780
0380
03C0
01C0
01E0
00F0
00F0
0078
0078
003C
001C
001E
000E
000F
ENDCHAR
STARTCHAR bracketright
ENCODING 93
SWIDTH 295 0
DWIDTH 11 0
BBX 15 30 -2 -3
BITMAP
01FE
03FC
03FC
003C
003C
003C
0078
0078
0078
0078
00F8
00F0
00F0
00F0
00F0
01E0
01E0
01E0
01E0
01E0
03C0
03C0
03C0
03C0
07C0
0780
0780
7F80
7F80
FF80
ENDCHAR
STARTCHAR asciicircum
ENCODING 94
SWIDTH 438 0
DWIDTH 17 0
BBX 15 9 2 15
BITMAP
03F0
07F0
0F78
0F78
1E38
3C3C
381C
781C
F00E
ENDCHAR
STARTCHAR underscore
ENCODING 95
SWIDTH 571 0
DWIDTH 22 0
BBX 19 4 -1 -4
BITMAP
7FFFE0
FFFFC0
FFFFC0
FFFFC0
ENDCHAR
STARTCHAR grave
ENCODING 96
SWIDTH 304 0
DWIDTH 12 0
BBX 11 6 1 18
BITMAP
FE00
3F00
1F00
0F80
03C0
01E0
ENDCHAR
STARTCHAR a
ENCODING 97
SWIDTH 552 0
DWIDTH 21 0
BBX 21 17 -1 0
BITMAP
00FF80
07FFE0
0FFFF0
1F87F0
1F87F0
0007F8
0007F0
07FFF0
1FFFF0
7F8FF0
7F0FF0
7F0FF0
FF0FE0
7FBFE0
7FFFE0
3FCFE0
1F0FE0
ENDCHAR
STARTCHAR b
ENCODING 98
SWIDTH 585 0
DWIDTH 22 0
BBX 21 26 0 0
BITMAP
07F800
07F800
0FF000
0FF000
0FF000
0FF000
0FE000
1FE000
1FE000
1FE3E0
1FEFF0
1FDFF8
3FFFF8
3FE7F8
3FC7F8
3FC7F8
3F87F8
7F87F8
7F87F8
7F87F0
7F8FF0
7F0FF0
FFFFE0
FFFFE0
FE7FC0
FC1F00
ENDCHAR
STARTCHAR c
ENCODING 99
SWIDTH 521 0
DWIDTH 20 0
BBX 19 17 0 0
BITMAP
00FF80
07FFE0
0FFFE0
1FC7E0
3FC7E0
7F87E0
7F87C0
7F8000
FF0000
FF0000
FF07C0
7F0FC0
7F0FC0
7F1F80
3FFF80
1FFF80
03FE00
ENDCHAR
STARTCHAR d
ENCODING 100
SWIDTH 577 0
DWIDTH 22 0
BBX 24 26 0 0
BITMAP
0000FF
0001FE
0001FE
0001FE
0001FE
0001FC
0003FC
0003FC
0003FC
03E3FC
0FF3F8
1FFFF8
3FFFF8
3FCFF8
7F87F8
7F87F0
7F8FF0
7F0FF0
FF0FF0
FF0FF0
FF0FE0
FF1FE0
FF3FE0
7FFFE0
7FCFC0
1F0FC0
ENDCHAR
STARTCHAR e
ENCODING 101
SWIDTH 547 0
DWIDTH 21 0
BBX 20 17 0 0
BITMAP
00FF80
07FFE0
0FFFF0
1FC7F0
3FC7F0
7F87F0
7F87F0
7FFFF0
FFFFE0
FF0000
FF0000
7F0FE0
7F0FC0
7F1FC0
3FFFC0
1FFF80
07FC00
ENDCHAR
STARTCHAR f
ENCODING 102
SWIDTH 404 0
DWIDTH 15 0
BBX 20 27 1 0
BITMAP
001FE0
00FFF0
01FFE0
03FFE0
07F800
07F800
07F000
0FF000
0FF000
0FF000
7FFE00
FFFE00
FFFE00
1FE000
1FE000
1FC000
3FC000
3FC000
3FC000
3FC000
3F8000
7F8000
7F8000
7F8000
7F8000
7F0000
FF0000
ENDCHAR
STARTCHAR g
ENCODING 103
SWIDTH 578 0
DWIDTH 22 0
BBX 22 23 0 -6
BITMAP
03F1FC
0FFBF8
1FFFF8
3FFFF8
3FC7F8
7F87F8
7F87F0
7F8FF0
7F0FF0
FF0FF0
FF0FE0
FF0FE0
FF1FE0
7FFFE0
7FDFE0
7FDFC0
1F1FC0
003FC0
003F80
007F00
7FFE00
7FFC00
7FE000
ENDCHAR
STARTCHAR h
ENCODING 104
SWIDTH 586 0
DWIDTH 22 0
BBX 21 26 0 0
BITMAP
07F800
07F800
0FF000
0FF000
0FF000
0FF000
0FE000
1FE000
1FE000
1FE3E0
1FEFF0
1FDFF8
3FFFF8
3FE7F8
3FC7F8
3FC7F8
3F87F8
7F87F0
7F8FF0
7F8FF0
7F8FF0
7F0FF0
FF0FE0
FF1FE0
FF1FE0
FE1FE0
ENDCHAR
STARTCHAR i
ENCODING 105
SWIDTH 293 0
DWIDTH 11 0
BBX 12 24 0 0
BITMAP
03C0
07E0
0FF0
0FF0
0FF0
0FE0
03C0
1FE0
1FE0
1FC0
3FC0
3FC0
3FC0
3FC0
3F80
7F80
7F80
7F80
7F00
7F00
FF00
FF00
FF00
FE00
ENDCHAR
STARTCHAR j
ENCODING 106
SWIDTH 294 0
DWIDTH 11 0
BBX 16 30 -4 -6
BITMAP
003C
007E
00FF
00FF
00FF
00FE
007C
01FE
01FE
01FC
03FC
03FC
03FC
03FC
07F8
07F8
07F8
07F8
07F0
0FF0
0FF0
0FF0
0FF0
0FE0
1FE0
1FC0
1FC0
FF80
FF00
F800
ENDCHAR
STARTCHAR k
ENCODING 107
SWIDTH 599 0
DWIDTH 23 0
BBX 23 26 0 0
BITMAP
07F800
07F800
0FF000
0FF000
0FF000
0FF000
0FE000
1FE000
1FE000
1FE03E
1FE0FC
1FC1F0
3FC3E0
3FC7C0
3FCF80
3FFF00
3FFF00
7FFF80
7FFF80
7FBFC0
7FBFC0
7F1FE0
FF1FE0
FF0FF0
FF0FF8
FE07F8
ENDCHAR
STARTCHAR l
ENCODING 108
SWIDTH 293 0
DWIDTH 11 0
BBX 13 26 0 0
BITMAP
07F8
07F8
0FF0
0FF0
0FF0
0FF0
0FE0
1FE0
1FE0
1FE0
1FE0
1FC0
3FC0
3FC0
3FC0
3FC0
3F80
7F80
7F80
7F80
7F80
7F00
FF00
FF00
FF00
FE00
ENDCHAR
STARTCHAR m
ENCODING 109
SWIDTH 861 0
DWIDTH 33 0
BBX 32 17 0 0
BITMAP
1F83E0FC
1FCFF3FE
1FFFFFFE
3FE7FDFF
3FC7F8FF
3FC7F0FE
3FC7F0FE
3F87F1FE
7F87F1FE
7F8FF1FE
7F8FE1FC
7F8FE1FC
7F0FE3FC
FF0FE3FC
FF1FE3FC
FF1FC3F8
FE1FC3F8
ENDCHAR
STARTCHAR n
ENCODING 110
SWIDTH 586 0
DWIDTH 22 0
BBX 21 17 0 0
BITMAP
1F83E0
1FCFF0
1FFFF8
3FE7F8
3FC7F8
3FC7F8
3FC7F8
3F87F8
7F87F0
7F8FF0
7F8FF0
7F8FF0
7F0FF0
FF0FE0
FF1FE0
FF1FE0
FE1FE0
ENDCHAR
STARTCHAR o
ENCODING 111
SWIDTH 575 0
DWIDTH 22 0
BBX 21 17 0 0
BITMAP
00FF00
07FFC0
0FFFE0
1FC7F0
3FC7F0
7F87F8
7F87F8
7F87F8
FF07F8
FF0FF0
FF0FF0
7F0FF0
7F1FE0
7F1FE0
3FFFC0
1FFF00
07FC00
ENDCHAR
STARTCHAR p
ENCODING 112
SWIDTH 584 0
DWIDTH 22 0
BBX 23 23 -2 -6
BITMAP
07E1F8
07F7FC
07FFFE
0FFFFE
0FF1FE
0FF1FE
0FE1FE
1FE1FE
1FE1FE
1FE1FE
1FE3FC
1FC3FC
3FE7FC
3FFFF8
3FFFF8
3FDFF0
3F87C0
7F8000
7F8000
7F8000
7F8000
7F0000
FF0000
ENDCHAR
STARTCHAR q
ENCODING 113
SWIDTH 577 0
DWIDTH 22 0
BBX 22 23 0 -6
BITMAP
03F1FC
0FFBF8
1FFFF8
3FCFF8
3FC7F8
7F87F0
7F8FF0
7F0FF0
7F0FF0
FF0FF0
FF0FE0
FF1FE0
FF3FE0
FFFFE0
7FDFE0
7F9FC0
1F3FC0
003FC0
003FC0
003FC0
003F80
007F80
007F80
ENDCHAR
STARTCHAR r
ENCODING 114
SWIDTH 483 0
DWIDTH 18 0
BBX 19 17 0 0
BITMAP
1F87E0
1FCFE0
1FDFC0
3FFFC0
3FEFC0
3FC7C0
3FC7C0
3F8780
7F8780
7F8000
7F8000
7F8000
7F0000
FF0000
FF0000
FF0000
FE0000
ENDCHAR
STARTCHAR s
ENCODING 115
SWIDTH 487 0
DWIDTH 19 0
BBX 18 17 -1 0
BITMAP
01FF00
07FFC0
0FFFC0
1FC7C0
3FC7C0
3FC000
3FF000
3FFE00
1FFF80
0FFFC0
01FFC0
007FC0
7C3FC0
7C3F80
7FFF80
FFFF00
1FF800
ENDCHAR
STARTCHAR t
ENCODING 116
SWIDTH 392 0
DWIDTH 15 0
BBX 14 22 1 0
BITMAP
00F8
01F0
03F0
07F0
1FF0
7FFC
FFFC
FFFC
1FE0
1FE0
1FC0
3FC0
3FC0
3FC0
3FC0
3F80
7F80
7F80
7F80
7FF0
3FE0
1FE0
ENDCHAR
STARTCHAR u
ENCODING 117
SWIDTH 585 0
DWIDTH 22 0
BBX 22 17 0 0
BITMAP
1FE3FC
1FC3FC
3FC3F8
3FC7F8
3FC7F8
3FC7F8
3F87F8
7F87F0
7F8FF0
7F8FF0
7F8FF0
7F0FF0
FF1FE0
FFBFE0
7FEFE0
7FCFE0
1F0FE0
ENDCHAR
STARTCHAR v
ENCODING 118
SWIDTH 516 0
DWIDTH 20 0
BBX 20 17 1 0
BITMAP
FF81F0
7F81E0
7F83C0
7F83C0
7F8780
7F8780
7F8F00
3F8F00
3FCE00
3FDE00
3FDC00
3FFC00
3FF800
3FF800
1FF000
1FF000
1FE000
ENDCHAR
STARTCHAR w
ENCODING 119
SWIDTH 831 0
DWIDTH 32 0
BBX 31 17 1 0
BITMAP
FF03FC1E
7F83FC1E
7F87FC3C
7F87FC3C
7F8FFC38
7F8FFC78
7F8FFC78
7F9FFCF0
3F9FFCF0
3F9DFEE0
3FFDFFE0
3FF9FFC0
3FF9FFC0
3FF1FF80
3FF0FF80
1FE0FF80
1FE0FF00
ENDCHAR
STARTCHAR x
ENCODING 120
SWIDTH 511 0
DWIDTH 19 0
BBX 22 17 -2 0
BITMAP
1FF07C
0FF0F8
07F9F0
07FBE0
03FFC0
03FF80
01FF00
01FE00
00FF00
01FF00
03FF80
07FF80
0FBFC0
1F3FC0
3E1FE0
7C1FE0
F80FF0
ENDCHAR
STARTCHAR y
ENCODING 121
SWIDTH 517 0
DWIDTH 20 0
BBX 23 23 -2 -6
BITMAP
0FF03E
0FF03C
0FF078
0FF078
0FF0F0
0FF0F0
0FF1E0
07F1E0
07F3C0
07F380
07FF80
07FF00
07FF00
07FE00
07FE00
03FC00
03FC00
03F800
03F000
07F000
FFE000
FF8000
FE0000
ENDCHAR
STARTCHAR z
ENCODING 122
SWIDTH 478 0
DWIDTH 18 0
BBX 19 17 -1 0
BITMAP
1FFFE0
1FFFE0
1FFFE0
003FC0
007F80
00FF00
01FF00
03FE00
07FC00
0FF800
1FF000
3FE000
3FC000
7FC000
FFFF80
FFFF80
FFFF80
ENDCHAR
STARTCHAR braceleft
ENCODING 123
SWIDTH 314 0
DWIDTH 12 0
BBX 14 30 1 -3
BITMAP
007C
01F8
03F8
07C0
0780
0780
0780
0780
0F00
0F00
0F00
0F00
1E00
7E00
7C00
F800
FC00
3C00
3C00
3C00
3C00
3C00
7800
7800
7800
7800
7800
7F00
7F00
3F00
ENDCHAR
STARTCHAR bar
ENCODING 124
SWIDTH 221 0
DWIDTH 8 0
BBX 11 33 -1 -6
BITMAP
03E0
03C0
03C0
03C0
03C0
07C0
0780
0780
0780
0780
0F80
0F00
0F00
0F00
0F00
1E00
1E00
1E00
1E00
1E00
3C00
3C00
3C00
3C00
7C00
7800
7800
7800
7800
F000
F000
F000
F000
ENDCHAR
STARTCHAR braceright
ENCODING 125
SWIDTH 314 0
DWIDTH 12 0
BBX 14 30 -2 -3
BITMAP
03F0
03F8
03F8
0078
0078
0078
0078
0078
00F0
00F0
00F0
00F0
00F0
00FC
00FC
00F8
01F8
01E0
03C0
03C0
03C0
03C0
0780
0780
0780
0780
0F80
7F00
7E00
F800
ENDCHAR
STARTCHAR asciitilde
ENCODING 126
SWIDTH 462 0
DWIDTH 18 0
BBX 15 6 1 6
BITMAP
1E02
3FC6
7FFE
FFFC
C7F8
40F0
ENDCHAR
STARTCHAR uni00A0
ENCODING 160
SWIDTH 191 0
DWIDTH 7 0
BBX 1 1 0 0
BITMAP
00
ENDCHAR
STARTCHAR exclamdown
ENCODING 161
SWIDTH 296 0
DWIDTH 11 0
BBX 12 26 -2 -6
BITMAP
01E0
03F0
07F0
07F0
07F0
03E0
0000
0000
07E0
07C0
07C0
0FC0
0FC0
0FC0
1FC0
1FC0
1F80
1F80
3F80
3F80
3F80
3F80
7F80
7F00
7F00
FF00
ENDCHAR
STARTCHAR cent
ENCODING 162
SWIDTH 537 0
DWIDTH 20 0
BBX 19 25 1 0
BITMAP
001F00
001E00
001E00
001E00
01FFC0
07FFE0
1FE7E0
3FC7E0
3F87E0
7F87E0
7F87C0
7F8000
7F0000
FF0000
7F0FC0
7F0FC0
7F0FC0
7F1F80
3FFF80
1FFF80
07FE00
01E000
01E000
03C000
03C000
ENDCHAR
STARTCHAR sterling
ENCODING 163
SWIDTH 621 0
DWIDTH 24 0
BBX 22 24 1 0
BITMAP
003FC0
00FFFC
03FFF8
07FFF8
0FF818
0FF000
0FE000
0FE000
0FE000
0FE000
7FFE00
FFFE00
FFFE00
0FE000
0FC000
0FC000
0F8000
0F0038
1FF078
3FFFF0
7FFFF0
FFFFE0
79FFE0
201F80
ENDCHAR
STARTCHAR currency
ENCODING 164
SWIDTH 604 0
DWIDTH 23 0
BBX 23 20 1 3
BITMAP
060018
0E3E3C
3FFFFE
1FFFFC
0FFFF0
07C3E0
0F01F0
1E00F0
1E00F0
1C00F0
3C00F0
3C00E0
3C01E0
3E03C0
1F0FC0
3FFFC0
7FFFE0
FFFFF0
F1F1E0
600080
ENDCHAR
STARTCHAR yen
ENCODING 165
SWIDTH 616 0
DWIDTH 23 0
BBX 23 24 2 0
BITMAP
3FE01E
3FE03C
1FF03C
1FF078
1FF070
1FF8F0
0FF9E0
0FF9E0
0FFBC0
0FFF80
07FF80
07FF00
3FFFE0
7FFFC0
7FFFC0
07FC00
07F800
07F800
FFFFC0
FFFF80
FFFF80
0FF000
0FF000
0FF000
ENDCHAR
STARTCHAR brokenbar
ENCODING 166
SWIDTH 223 0
DWIDTH 8 0
BBX 11 32 -1 -6
BITMAP
03E0
03C0
03C0
03C0
03C0
07C0
0780
0780
0780
0780
0F00
0F00
0F00
0F00
0000
0000
0000
0000
3E00
3C00
3C00
3C00
3C00
7C00
7800
7800
7800
7800
F800
F000
F000
F000
ENDCHAR
STARTCHAR section
ENCODING 167
SWIDTH 544 0
DWIDTH 21 0
BBX 21 30 -1 -6
BITMAP
001FE0
007FF8
01FFF8
03F818
03F800
03F800
03FC00
03FF00
03FFC0
03FFF0
01FFF0
07FFF8
0F9FF8
1F03F8
3F01F8
3F00F8
3FC1F0
3FF3E0
3FFFC0
1FFF00
1FFF80
07FF80
01FF80
007F80
007F80
807F80
60FF00
FFFE00
7FFC00
038000
ENDCHAR
STARTCHAR dieresis
ENCODING 168
SWIDTH 417 0
DWIDTH 16 0
BBX 14 6 1 18
BITMAP
7878
FCFC
FCFC
FCFC
F8F8
7078
ENDCHAR
STARTCHAR copyright
ENCODING 169
SWIDTH 755 0
DWIDTH 29 0
BBX 26 24 2 0
BITMAP
003FC000
01FFF000
07FFFC00
0F803E00
1E000F00
3C1FC700
787FF380
71F9E380
E1F1E1C0
E3F1E1C0
E3F001C0
C3E001C0
C3E001C0
C3E3E1C0
C3E3C180
E3E7C380
E1FFC380
707F0700
78000E00
3C003C00
1E00F800
0FFFF000
07FFC000
00FE0000
ENDCHAR
STARTCHAR ordfeminine
ENCODING 170
SWIDTH 393 0
DWIDTH 15 0
BBX 13 15 2 10
BITMAP
0FE0
1FF8
1C78
0078
0FF8
3CF8
3CF8
7CF8
7FF0
3EF0
08F0
0000
0000
7FE0
FFE0
ENDCHAR
STARTCHAR guillemotleft
ENCODING 171
SWIDTH 590 0
DWIDTH 22 0
BBX 23 17 0 0
BITMAP
01F03E
01E078
03E0F8
07C1F0
0F83E0
1F07C0
3E0FC0
7E1F80
FC1F00
7C1F00
7E0F80
3E0F80
1E07C0
1F07C0
0F03C0
0F83E0
0781F0
ENDCHAR
STARTCHAR logicalnot
ENCODING 172
SWIDTH 593 0
DWIDTH 23 0
BBX 20 10 1 0
BITMAP
7FFFF0
FFFFE0
FFFFE0
FFFFE0
0001E0
0003C0
0003C0
0003C0
0003C0
0003C0
ENDCHAR
STARTCHAR uni00AD
ENCODING 173
SWIDTH 415 0
DWIDTH 16 0
BBX 13 4 1 6
BITMAP
7FF8
7FF8
FFF0
FFF0
ENDCHAR
STARTCHAR registered
ENCODING 174
SWIDTH 755 0
DWIDTH 29 0
BBX 26 24 2 0
BITMAP
003FC000
01FFF000
07FFFC00
0F803E00
1E000F00
3C7FC700
78FFE380
70F9E380
E0F9E1C0
E0F1E1C0
E1F7C1C0
C1FF81C0
C1FF81C0
C1F781C0
C1E7C180
E3E7C380
E3E3C380
70002700
70000E00
38001C00
1E007800
0FE7F000
07FFC000
00FE0000
ENDCHAR
STARTCHAR macron
ENCODING 175
SWIDTH 426 0
DWIDTH 16 0
BBX 14 3 1 20
BITMAP
7FFC
FFFC
FFFC
ENDCHAR
STARTCHAR degree
ENCODING 176
SWIDTH 348 0
DWIDTH 13 0
BBX 11 11 3 14
BITMAP
0F00
3FC0
7FE0
70E0
E0E0
E0E0
E0E0
F1C0
7FC0
3F80
0400
ENDCHAR
STARTCHAR plusminus
ENCODING 177
SWIDTH 492 0
DWIDTH 19 0
BBX 18 22 0 1
BITMAP
003C00
003800
007800
007800
007800
007800
1FFFC0
1FFFC0
3FFFC0
3FFFC0
00F000
01E000
01E000
01E000
01E000
03C000
000000
000000
7FFF00
FFFF00
FFFF00
FFFE00
ENDCHAR
STARTCHAR twosuperior
ENCODING 178
SWIDTH 287 0
DWIDTH 11 0
BBX 10 11 2 13
BITMAP
1F00
3FC0
7BC0
73C0
03C0
0380
0700
1E00
7FC0
FF80
FF80
ENDCHAR
STARTCHAR threesuperior
ENCODING 179
SWIDTH 282 0
DWIDTH 11 0
BBX 10 9 2 15
BITMAP
1F80
3FC0
79C0
0380
0F00
73C0
F7C0
FF80
0800
ENDCHAR
STARTCHAR acute
ENCODING 180
SWIDTH 317 0
DWIDTH 12 0
BBX 10 6 1 18
BITMAP
1FC0
1F00
3E00
7C00
7000
E000
ENDCHAR
STARTCHAR mu
ENCODING 181
SWIDTH 588 0
DWIDTH 22 0
BBX 24 23 -2 -6
BITMAP
07F8FF
07F8FF
07F0FF
07F0FF
0FF0FE
0FF1FE
0FF1FE
0FE1FE
1FE1FE
1FE1FC
1FE3FC
1FE3FC
1FE3FC
3FEFF8
3FFFF8
3FFBF8
3F73F8
3F0000
7F0000
7F0000
7F0000
7F0000
FF0000
ENDCHAR
STARTCHAR paragraph
ENCODING 182
SWIDTH 615 0
DWIDTH 23 0
BBX 23 30 2 -6
BITMAP
01FFFE
0FFFFE
1FFFFE
3FF870
7FF8F0
7FF8E0
7FF8E0
FFF0E0
FFF1E0
FFF1E0
7FF1C0
7FE1C0
7FE3C0
3FE3C0
0FE3C0
01E380
01C380
01C780
03C780
03C700
038700
038F00
078F00
078F00
078E00
071E00
071E00
0F1E00
0F1C00
0F3C00
ENDCHAR
STARTCHAR periodcentered
ENCODING 183
SWIDTH 273 0
DWIDTH 10 0
BBX 7 7 2 9
BITMAP
3C
FE
FE
FE
FE
FE
78
ENDCHAR
STARTCHAR cedilla
ENCODING 184
SWIDTH 244 0
DWIDTH 9 0
BBX 9 9 1 -8
BITMAP
7000
7000
7000
7F00
E780
0780
8F00
FF00
7C00
ENDCHAR
STARTCHAR onesuperior
ENCODING 185
SWIDTH 184 0
DWIDTH 7 0
BBX 6 10 3 14
BITMAP
1C
7C
F8
78
78
78
78
F0
F0
F0
ENDCHAR
STARTCHAR ordmasculine
ENCODING 186
SWIDTH 400 0
DWIDTH 15 0
BBX 13 15 3 10
BITMAP
0FC0
1FF0
3CF0
7CF0
78F8
78F0
79F0
79F0
7FE0
3FC0
0600
0000
0000
FFE0
FFC0
ENDCHAR
STARTCHAR guillemotright
ENCODING 187
SWIDTH 588 0
DWIDTH 22 0
BBX 22 17 -1 0
BITMAP
1F07C0
0F03E0
0F83E0
07C1F0
07C1F0
07E0F8
03E0F8
03F0FC
01F07C
03E0F8
07E1F8
0FC1F0
0F83E0
1F07C0
3E0F80
7C1F00
F83E00
ENDCHAR
STARTCHAR onequarter
ENCODING 188
SWIDTH 648 0
DWIDTH 25 0
BBX 20 24 2 0
BITMAP
0F01F0
3E01E0
7E03C0
1E0780
1E0780
3C0F00
3C1E00
3C1E00
3C3C00
3C3800
007800
00F000
00F000
01E000
03C000
03C1F0
0783F0
0F06F0
0F0DE0
1E19E0
3E1FF0
3C1FF0
7801C0
F803C0
ENDCHAR
STARTCHAR onehalf
ENCODING 189
SWIDTH 675 0
DWIDTH 26 0
BBX 22 24 2 0
BITMAP
0F01F0
3E01E0
7E03C0
1E0780
1E0780
3C0F00
3C1E00
3C1E00
3C3C00
3C3800
007800
00F000
00F000
01E000
03C3F0
03C778
078F7C
0F0E7C
0F0078
1E00F0
3E01E0
3C07F8
781FF8
F81FF8
ENDCHAR
STARTCHAR threequarters
ENCODING 190
SWIDTH 722 0
DWIDTH 27 0
BBX 22 24 3 0
BITMAP
3F0078
7FC070
73C0F0
0781E0
0E01C0
E783C0
E78780
FF0780
100F00
001E00
001E00
003C00
007800
007800
00F07C
01E0FC
01E1BC
03C1F8
07C378
078678
0F07FC
0F07FC
1E00F0
3C00F0
ENDCHAR
STARTCHAR questiondown
ENCODING 191
SWIDTH 521 0
DWIDTH 20 0
BBX 18 26 -1 -6
BITMAP
003C00
007E00
00FF00
00FF00
007E00
007C00
000000
000000
00FC00
00FC00
00FC00
00FC00
03F800
0FF800
3FE000
3FC000
7F8000
FF0000
FF0FC0
FE0FC0
FE1F80
FE1F80
FE3F80
7FFF80
3FFE00
0FF800
ENDCHAR
STARTCHAR Agrave
ENCODING 192
SWIDTH 602 0
DWIDTH 23 0
BBX 23 33 -2 0
BITMAP
01FC00
007E00
003E00
001F00
000F80
000780
0003C0
000000
000000
001FF0
001FF8
003FF8
003FF8
007FF8
0077F8
00F7F8
00E7F8
01E7F8
01C7F8
01C7FC
0387FC
0387FC
0787FC
0707FC
0FFFFC
0FFFFC
1FFFFC
1C03FC
3C03FE
3803FE
7803FE
7803FE
F003FE
ENDCHAR
STARTCHAR Aacute
ENCODING 193
SWIDTH 602 0
DWIDTH 23 0
BBX 24 33 -2 0
BITMAP
00007F
00007E
0000FC
0000F8
0001F0
0001C0
000380
000000
000000
001FF0
001FF8
003FF8
003FF8
007FF8
0077F8
00F7F8
00E7F8
01E7F8
01C7F8
01C7FC
0387FC
0387FC
0787FC
0707FC
0FFFFC
0FFFFC
1FFFFC
1C03FC
3C03FE
3803FE
7803FE
7803FE
F003FE
ENDCHAR
STARTCHAR Acircumflex
ENCODING 194
SWIDTH 602 0
DWIDTH 23 0
BBX 23 33 -2 0
BITMAP
0003F0
0007F0
000FF8
001F38
003E3C
00381C
00700E
000000
000000
001FF0
001FF8
003FF8
003FF8
007FF8
0077F8
00F7F8
00E7F8
01E7F8
01C7F8
01C7FC
0387FC
0387FC
0787FC
0707FC
0FFFFC
0FFFFC
1FFFFC
1C03FC
3C03FE
3803FE
7803FE
7803FE
F003FE
ENDCHAR
STARTCHAR Atilde
ENCODING 195
SWIDTH 602 0
DWIDTH 23 0
BBX 25 33 -2 0
BITMAP
00078080
000FF180
001FFF80
003FFF00
0031FE00
00203C00
00000000
00000000
00000000
001FF000
001FF800
003FF800
003FF800
007FF800
0077F800
00F7F800
00E7F800
01E7F800
01C7F800
01C7FC00
0387FC00
0387FC00
0787FC00
0707FC00
0FFFFC00
0FFFFC00
1FFFFC00
1C03FC00
3C03FE00
3803FE00
7803FE00
7803FE00
F003FE00
ENDCHAR
STARTCHAR Adieresis
ENCODING 196
SWIDTH 602 0
DWIDTH 23 0
BBX 23 32 -2 0
BITMAP
003C3C
003E3E
007E7E
007E7E
007C7E
003C3C
000000
000000
001FF0
001FF8
003FF8
003FF8
007FF8
0077F8
00F7F8
00E7F8
01E7F8
01C7F8
01C7FC
0387FC
0387FC
0787FC
0707FC
0FFFFC
0FFFFC
1FFFFC
1C03FC
3C03FE
3803FE
7803FE
7803FE
F003FE
ENDCHAR
STARTCHAR Aring
ENCODING 197
SWIDTH 602 0
DWIDTH 23 0
BBX 23 33 -2 0
BITMAP
0001C0
0007E0
0007F0
000670
0007E0
0007E0
0003C0
000000
000000
001FF0
001FF8
003FF8
003FF8
007FF8
0077F8
00F7F8
00E7F8
01E7F8
01C7F8
01C7FC
0387FC
0387FC
0787FC
0707FC
0FFFFC
0FFFFC
1FFFFC
1C03FC
3C03FE
3803FE
7803FE
7803FE
F003FE
ENDCHAR
STARTCHAR AE
ENCODING 198
SWIDTH 814 0
DWIDTH 31 0
BBX 35 24 -2 0
BITMAP
00007FFFE0
00007FFFE0
0000FFFFC0
0001FFC000
0003BFC000
0003BFC000
00077FC000
000E7FC000
001C7F8000
001C7F8000
00387FFE00
0070FFFE00
00E0FFFE00
00FFFF0000
01FFFF0000
03FFFF0000
0701FF0000
0701FE0000
0E01FE0000
1C01FE0000
3C03FE0000
3803FFFC00
7003FFFC00
F003FFFC00
ENDCHAR
STARTCHAR Ccedilla
ENCODING 199
SWIDTH 639 0
DWIDTH 24 0
BBX 24 32 1 -8
BITMAP
001FE0
00FFFC
03FFFF
07F8FF
0FF0FF
1FE0FF
3FE0FE
3FE0FE
7FC0FE
7FC000
7FC000
7F8000
FF8000
FF8000
FF8000
FF81FC
FF83FC
7F83F8
7F83F8
7F87F8
3F8FF8
1FFFF8
0FFFE0
03FF00
007000
00E000
00FF00
00FF00
000F00
000F00
00FE00
00FC00
ENDCHAR
STARTCHAR Egrave
ENCODING 200
SWIDTH 503 0
DWIDTH 19 0
BBX 21 33 0 0
BITMAP
07F000
03F000
01F800
007C00
003C00
001E00
000F00
000000
000000
07FFF8
07FFF8
07FFF8
0FF800
0FF000
0FF000
0FF000
0FF000
1FF000
1FE000
1FFFC0
1FFF80
3FFF80
3FC000
3FC000
3FC000
3FC000
7FC000
7F8000
7F8000
7F8000
7FFF80
FFFF00
FFFF00
ENDCHAR
STARTCHAR Eacute
ENCODING 201
SWIDTH 503 0
DWIDTH 19 0
BBX 22 33 0 0
BITMAP
0001FC
0003F0
0003E0
0007C0
000780
000F00
000E00
000000
000000
07FFF8
07FFF8
07FFF8
0FF800
0FF000
0FF000
0FF000
0FF000
1FF000
1FE000
1FFFC0
1FFF80
3FFF80
3FC000
3FC000
3FC000
3FC000
7FC000
7F8000
7F8000
7F8000
7FFF80
FFFF00
FFFF00
ENDCHAR
STARTCHAR Ecircumflex
ENCODING 202
SWIDTH 503 0
DWIDTH 19 0
BBX 21 33 0 0
BITMAP
000FC0
001FC0
003FE0
007CE0
00F8F0
00E070
01C038
000000
000000
07FFF8
07FFF8
07FFF8
0FF800
0FF000
0FF000
0FF000
0FF000
1FF000
1FE000
1FFFC0
1FFF80
3FFF80
3FC000
3FC000
3FC000
3FC000
7FC000
7F8000
7F8000
7F8000
7FFF80
FFFF00
FFFF00
ENDCHAR
STARTCHAR Edieresis
ENCODING 203
SWIDTH 503 0
DWIDTH 19 0
BBX 21 32 0 0
BITMAP
00E0E0
01F1F0
01F1F0
01F1F0
01F1F0
01E0E0
000000
000000
07FFF8
07FFF8
07FFF8
0FF800
0FF000
0FF000
0FF000
0FF000
1FF000
1FE000
1FFFC0
1FFF80
3FFF80
3FC000
3FC000
3FC000
3FC000
7FC000
7F8000
7F8000
7F8000
7FFF80
FFFF00
FFFF00
ENDCHAR
STARTCHAR Igrave
ENCODING 204
SWIDTH 326 0
DWIDTH 12 0
BBX 13 33 0 0
BITMAP
7E00
3F00
1F80
0F80
07C0
01E0
00E0
0000
0000
07F8
07F8
07F8
0FF8
0FF0
0FF0
0FF0
0FF0
1FF0
1FE0
1FE0
1FE0
3FE0
3FC0
3FC0
3FC0
3FC0
7FC0
7F80
7F80
7F80
7F80
FF80
FF00
ENDCHAR
STARTCHAR Iacute
ENCODING 205
SWIDTH 326 0
DWIDTH 12 0
BBX 17 33 0 0
BITMAP
001F80
003F00
003E00
007C00
00F800
00F000
01C000
000000
000000
07F800
07F800
07F800
0FF800
0FF000
0FF000
0FF000
0FF000
1FF000
1FE000
1FE000
1FE000
3FE000
3FC000
3FC000
3FC000
3FC000
7FC000
7F8000
7F8000
7F8000
7F8000
FF8000
FF0000
ENDCHAR
STARTCHAR Icircumflex
ENCODING 206
SWIDTH 326 0
DWIDTH 12 0
BBX 17 33 0 0
BITMAP
00FC00
01FC00
03FE00
07DE00
0F0F00
1E0700
3C0380
000000
000000
07F800
07F800
07F800
0FF800
0FF000
0FF000
0FF000
0FF000
1FF000
1FE000
1FE000
1FE000
3FE000
3FC000
3FC000
3FC000
3FC000
7FC000
7F8000
7F8000
7F8000
7F8000
FF8000
FF0000
ENDCHAR
STARTCHAR Idieresis
ENCODING 207
SWIDTH 326 0
DWIDTH 12 0
BBX 17 32 0 0
BITMAP
0F0F00
1F8F80
1F9F80
1F9F80
1F1F00
0F0F00
000000
000000
07F800
07F800
07F800
0FF800
0FF000
0FF000
0FF000
0FF000
1FF000
1FE000
1FE000
1FE000
3FE000
3FC000
3FC000
3FC000
3FC000
7FC000
7F8000
7F8000
7F8000
7F8000
FF8000
FF0000
ENDCHAR
STARTCHAR Eth
ENCODING 208
SWIDTH 673 0
DWIDTH 26 0
BBX 25 24 0 0
BITMAP
07FFF000
07FFFC00
07FFFE00
07F87F00
07F87F00
0FF87F80
0FF07F80
0FF07F80
0FF07F80
1FF07F80
7FFC7F80
7FFCFF80
FFFCFF80
1FE0FF80
3FE0FF80
3FC0FF00
3FC1FF00
3FC1FE00
3FC3FE00
7FC3FC00
7F87F800
7FFFF000
7FFFC000
FFFF0000
ENDCHAR
STARTCHAR Ntilde
ENCODING 209
SWIDTH 644 0
DWIDTH 24 0
BBX 25 33 0 0
BITMAP
000F0100
001FE300
003FFF00
007FFE00
0063FE00
00207800
00000000
00000000
00000000
07FC0380
07FE0380
07FE0780
0FFE0780
0FFE0700
0FFE0700
0FFF0700
0FFF0F00
1EFF0F00
1EFF0E00
1CFF8E00
1CFF9E00
3C7F9E00
3C7F9E00
387F9C00
387FDC00
383FFC00
783FFC00
783FF800
703FF800
703FF800
701FF800
F01FF800
F01FF000
ENDCHAR
STARTCHAR Ograve
ENCODING 210
SWIDTH 685 0
DWIDTH 26 0
BBX 25 33 1 0
BITMAP
01FC0000
00FC0000
003E0000
001F0000
000F8000
0003C000
00000000
00000000
00000000
003FE000
01FFF800
03FFFC00
07F8FE00
0FF0FF00
1FF0FF00
3FE0FF00
3FE0FF80
7FC0FF80
7FC0FF80
7FC0FF80
7F80FF80
FF80FF00
FF81FF00
FF81FF00
FF81FF00
FF83FE00
7F83FE00
7F87FC00
7F87F800
3F8FF800
3FFFF000
0FFFC000
03FE0000
ENDCHAR
STARTCHAR Oacute
ENCODING 211
SWIDTH 685 0
DWIDTH 26 0
BBX 25 33 1 0
BITMAP
00007F00
00007E00
0000F800
0001F000
0001E000
0003C000
00000000
00000000
00000000
003FE000
01FFF800
03FFFC00
07F8FE00
0FF0FF00
1FF0FF00
3FE0FF00
3FE0FF80
7FC0FF80
7FC0FF80
7FC0FF80
7F80FF80
FF80FF00
FF81FF00
FF81FF00
FF81FF00
FF83FE00
7F83FE00
7F87FC00
7F87F800
3F8FF800
3FFFF000
0FFFC000
03FE0000
ENDCHAR
STARTCHAR Ocircumflex
ENCODING 212
SWIDTH 685 0
DWIDTH 26 0
BBX 25 33 1 0
BITMAP
0003F000
0007F800
000FF800
001F3C00
003C1C00
00780E00
00000000
00000000
00000000
003FE000
01FFF800
03FFFC00
07F8FE00
0FF0FF00
1FF0FF00
3FE0FF00
3FE0FF80
7FC0FF80
7FC0FF80
7FC0FF80
7F80FF80
FF80FF00
FF81FF00
FF81FF00
FF81FF00
FF83FE00
7F83FE00
7F87FC00
7F87F800
3F8FF800
3FFFF000
0FFFC000
03FE0000
ENDCHAR
STARTCHAR Otilde
ENCODING 213
SWIDTH 685 0
DWIDTH 26 0
BBX 25 33 1 0
BITMAP
000F8300
003FFF00
007FFE00
007FFC00
00C1F800
00000000
00000000
00000000
00000000
003FE000
01FFF800
03FFFC00
07F8FE00
0FF0FF00
1FF0FF00
3FE0FF00
3FE0FF80
7FC0FF80
7FC0FF80
7FC0FF80
7F80FF80
FF80FF00
FF81FF00
FF81FF00
FF81FF00
FF83FE00
7F83FE00
7F87FC00
7F87F800
3F8FF800
3FFFF000
0FFFC000
03FE0000
ENDCHAR
STARTCHAR Odieresis
ENCODING 214
SWIDTH 685 0
DWIDTH 26 0
BBX 25 33 1 0
BITMAP
003C3C00
007C7E00
007E7E00
007E7E00
007C7C00
00383800
00000000
00000000
00000000
003FE000
01FFF800
03FFFC00
07F8FE00
0FF0FF00
1FF0FF00
3FE0FF00
3FE0FF80
7FC0FF80
7FC0FF80
7FC0FF80
7F80FF80
FF80FF00
FF81FF00
FF81FF00
FF81FF00
FF83FE00
7F83FE00
7F87FC00
7F87F800
3F8FF800
3FFFF000
0FFFC000
03FE0000
ENDCHAR
STARTCHAR multiply
ENCODING 215
SWIDTH 511 0
DWIDTH 19 0
BBX 20 16 0 4
BITMAP
1F01F0
0F83C0
078780
07CF80
03DF00
01FE00
01FC00
00F800
01F800
03F800
07FC00
07BC00
0F1E00
1E1F00
3E0F00
FC0F80
ENDCHAR
STARTCHAR Oslash
ENCODING 216
SWIDTH 685 0
DWIDTH 26 0
BBX 25 25 1 -1
BITMAP
003FE600
01FFFF00
03FFFE00
0FF8FE00
0FF0FF00
1FF0FF00
3FE0FF00
3FE1FF80
7FC3FF80
7FC7FF80
7FCFFF80
7F9EFF80
FFBCFF00
FFF9FF00
FFF1FF00
FFE1FF00
FFC3FE00
7F83FE00
7F87FC00
7F87F800
3F8FF800
3FFFF000
7FFFC000
73FE0000
20000000
ENDCHAR
STARTCHAR Ugrave
ENCODING 217
SWIDTH 630 0
DWIDTH 24 0
BBX 24 33 1 0
BITMAP
01FC00
007E00
003E00
001F00
000F80
0003C0
000000
000000
000000
0FF007
0FF00F
1FF00F
1FF00E
1FF00E
1FE01E
3FE01E
3FE01E
3FE01C
3FC01C
3FC03C
7FC03C
7FC038
7FC038
7F8038
7F8078
FF8078
FF8070
FF80F0
FF80E0
7FC1E0
7FFFC0
3FFF00
07F800
ENDCHAR
STARTCHAR Uacute
ENCODING 218
SWIDTH 630 0
DWIDTH 24 0
BBX 24 33 1 0
BITMAP
00007F
00007E
0000F8
0001F0
0001E0
0003C0
000000
000000
000000
0FF007
0FF00F
1FF00F
1FF00E
1FF00E
1FE01E
3FE01E
3FE01E
3FE01C
3FC01C
3FC03C
7FC03C
7FC038
7FC038
7F8038
7F8078
FF8078
FF8070
FF80F0
FF80E0
7FC1E0
7FFFC0
3FFF00
07F800
ENDCHAR
STARTCHAR Ucircumflex
ENCODING 219
SWIDTH 630 0
DWIDTH 24 0
BBX 24 33 1 0
BITMAP
0003E0
0007F0
000FF8
001E78
003C3C
00F01E
000000
000000
000000
0FF007
0FF00F
1FF00F
1FF00E
1FF00E
1FE01E
3FE01E
3FE01E
3FE01C
3FC01C
3FC03C
7FC03C
7FC038
7FC038
7F8038
7F8078
FF8078
FF8070
FF80F0
FF80E0
7FC1E0
7FFFC0
3FFF00
07F800
ENDCHAR
STARTCHAR Udieresis
ENCODING 220
SWIDTH 630 0
DWIDTH 24 0
BBX 24 33 1 0
BITMAP
001C1C
003E3E
007E7E
007E7E
003E3E
003C3C
000000
000000
000000
0FF007
0FF00F
1FF00F
1FF00E
1FF00E
1FE01E
3FE01E
3FE01E
3FE01C
3FC01C
3FC03C
7FC03C
7FC038
7FC038
7F8038
7F8078
FF8078
FF8070
FF80F0
FF80E0
7FC1E0
7FFFC0
3FFF00
07F800
ENDCHAR
STARTCHAR Yacute
ENCODING 221
SWIDTH 570 0
DWIDTH 22 0
BBX 21 33 3 0
BITMAP
0003F8
0007F0
0007C0
000F80
000F00
001E00
001C00
000000
000000
FF8078
FF80F8
7FC0F0
7FC1E0
7FC1E0
7FE3C0
3FE380
3FE780
3FEF00
3FFE00
1FFE00
1FFC00
1FF800
1FF800
0FF000
1FF000
1FE000
1FE000
1FE000
1FE000
3FE000
3FC000
3FC000
3FC000
ENDCHAR
STARTCHAR Thorn
ENCODING 222
SWIDTH 592 0
DWIDTH 23 0
BBX 23 24 0 0
BITMAP
07F800
07F800
07F800
0FF800
0FFFC0
0FFFF8
0FFFFC
0FF1FC
1FF1FE
1FE1FE
1FE1FE
1FE1FE
3FE1FE
3FC1FC
3FC3FC
3FC3F8
3FC7F8
7FFFF0
7FFFC0
7FFF00
7F8000
7F8000
FF8000
FF0000
ENDCHAR
STARTCHAR germandbls
ENCODING 223
SWIDTH 660 0
DWIDTH 25 0
BBX 24 27 0 0
BITMAP
003FE0
00FFFC
03FFFE
07F8FF
07F07F
0FF07F
0FE07F
0FE0FE
1FE1FC
1FE3F8
1FE7E0
1FCFC0
1FCFC0
3FCFE0
3FCFF0
3FCFF8
3F8FFC
3F8FFE
7F87FE
7F83FF
7F80FF
7F007F
7F007F
FF10FE
FF3FFC
FF3FF8
FE0FE0
ENDCHAR
STARTCHAR agrave
ENCODING 224
SWIDTH 552 0
DWIDTH 21 0
BBX 21 24 -1 0
BITMAP
07F000
01F800
00F800
007C00
001E00
000000
000000
00FF80
07FFE0
0FFFF0
1F87F0
1F87F0
0007F8
0007F0
07FFF0
1FFFF0
7F8FF0
7F0FF0
7F0FF0
FF0FE0
7FBFE0
7FFFE0
3FCFE0
1F0FE0
ENDCHAR
STARTCHAR aacute
ENCODING 225
SWIDTH 552 0
DWIDTH 21 0
BBX 21 24 -1 0
BITMAP
0003F8
0003E0
0007C0
000F80
000F00
001000
000000
00FF80
07FFE0
0FFFF0
1F87F0
1F87F0
0007F8
0007F0
07FFF0
1FFFF0
7F8FF0
7F0FF0
7F0FF0
FF0FE0
7FBFE0
7FFFE0
3FCFE0
1F0FE0
ENDCHAR
STARTCHAR acircumflex
ENCODING 226
SWIDTH 552 0
DWIDTH 21 0
BBX 21 24 -1 0
BITMAP
001F80
003FC0
0079E0
00F0E0
01C070
020000
000000
00FF80
07FFE0
0FFFF0
1F87F0
1F87F0
0007F8
0007F0
07FFF0
1FFFF0
7F8FF0
7F0FF0
7F0FF0
FF0FE0
7FBFE0
7FFFE0
3FCFE0
1F0FE0
ENDCHAR
STARTCHAR atilde
ENCODING 227
SWIDTH 552 0
DWIDTH 21 0
BBX 22 24 -1 0
BITMAP
007FFC
00FFF8
01FFF0
03FFE0
000000
000000
000000
00FF80
07FFE0
0FFFF0
1F87F0
1F87F0
0007F8
0007F0
07FFF0
1FFFF0
7F8FF0
7F0FF0
7F0FF0
FF0FE0
7FBFE0
7FFFE0
3FCFE0
1F0FE0
ENDCHAR
STARTCHAR adieresis
ENCODING 228
SWIDTH 552 0
DWIDTH 21 0
BBX 21 24 -1 0
BITMAP
00E0E0
01F1F0
03F3F0
03F3F0
03F3F0
01E1E0
000000
00FF80
07FFE0
0FFFF0
1F87F0
1F87F0
0007F8
0007F0
07FFF0
1FFFF0
7F8FF0
7F0FF0
7F0FF0
FF0FE0
7FBFE0
7FFFE0
3FCFE0
1F0FE0
ENDCHAR
STARTCHAR aring
ENCODING 229
SWIDTH 552 0
DWIDTH 21 0
BBX 21 25 -1 0
BITMAP
001E00
003F00
003F00
007300
007F00
003E00
000800
000000
00FF80
07FFE0
0FFFF0
1F87F0
1F87F0
0007F8
0007F0
07FFF0
1FFFF0
7F8FF0
7F0FF0
7F0FF0
FF0FE0
7FBFE0
7FFFE0
3FCFE0
1F0FE0
ENDCHAR
STARTCHAR ae
ENCODING 230
SWIDTH 830 0
DWIDTH 32 0
BBX 31 17 0 0
BITMAP
03FE1FE0
1FFFFFF8
1FFFFFFC
3F0FF8FE
3F0FF0FE
000FF0FE
000FF0FE
0FFFFFFC
3FFFFFFC
FF1FE000
FE1FE000
FE1FE1F8
FE3FE1F8
FFFFE3F8
FFF7FFF8
7FC3FFF0
3F00FF80
ENDCHAR
STARTCHAR ccedilla
ENCODING 231
SWIDTH 521 0
DWIDTH 20 0
BBX 19 25 0 -8
BITMAP
00FF80
07FFE0
0FFFE0
1FC7E0
3FC7E0
7F87E0
7F87C0
7F8000
FF0000
FF0000
FF07C0
7F0FC0
7F0FC0
7F1F80
3FFF80
1FFF80
07FE00
01C000
01C000
01FC00
03FE00
001E00
003C00
03FC00
01F000
ENDCHAR
STARTCHAR egrave
ENCODING 232
SWIDTH 547 0
DWIDTH 21 0
BBX 20 24 0 0
BITMAP
07F000
01F800
00F800
003C00
001E00
000100
000000
00FF80
07FFE0
0FFFF0
1FC7F0
3FC7F0
7F87F0
7F87F0
7FFFF0
FFFFE0
FF0000
FF0000
7F0FE0
7F0FC0
7F1FC0
3FFFC0
1FFF80
07FC00
ENDCHAR
STARTCHAR eacute
ENCODING 233
SWIDTH 547 0
DWIDTH 21 0
BBX 21 24 0 0
BITMAP
0003F8
0007E0
0007C0
000F00
001E00
000000
000000
00FF80
07FFE0
0FFFF0
1FC7F0
3FC7F0
7F87F0
7F87F0
7FFFF0
FFFFE0
FF0000
FF0000
7F0FE0
7F0FC0
7F1FC0
3FFFC0
1FFF80
07FC00
ENDCHAR
STARTCHAR ecircumflex
ENCODING 234
SWIDTH 547 0
DWIDTH 21 0
BBX 20 24 0 0
BITMAP
001F80
003FC0
0079E0
00F0E0
01C070
020000
000000
00FF80
07FFE0
0FFFF0
1FC7F0
3FC7F0
7F87F0
7F87F0
7FFFF0
FFFFE0
FF0000
FF0000
7F0FE0
7F0FC0
7F1FC0
3FFFC0
1FFF80
07FC00
ENDCHAR
STARTCHAR edieresis
ENCODING 235
SWIDTH 547 0
DWIDTH 21 0
BBX 20 24 0 0
BITMAP
00E0F0
01F1F0
01F1F0
01F1F0
01F1F0
00E0E0
000000
00FF80
07FFE0
0FFFF0
1FC7F0
3FC7F0
7F87F0
7F87F0
7FFFF0
FFFFE0
FF0000
FF0000
7F0FE0
7F0FC0
7F1FC0
3FFFC0
1FFF80
07FC00
ENDCHAR
STARTCHAR igrave
ENCODING 236
SWIDTH 293 0
DWIDTH 11 0
BBX 13 24 -2 0
BITMAP
FE00
1F00
0F80
07C0
01E0
0000
0000
07F8
07F8
07F0
0FF0
0FF0
0FF0
0FF0
0FE0
1FE0
1FE0
1FE0
1FC0
1FC0
3FC0
3FC0
3FC0
3F80
ENDCHAR
STARTCHAR iacute
ENCODING 237
SWIDTH 293 0
DWIDTH 11 0
BBX 15 24 0 0
BITMAP
00FE
01F8
01F0
03C0
0780
0000
0000
1FE0
1FE0
1FC0
3FC0
3FC0
3FC0
3FC0
3F80
7F80
7F80
7F80
7F00
7F00
FF00
FF00
FF00
FE00
ENDCHAR
STARTCHAR icircumflex
ENCODING 238
SWIDTH 293 0
DWIDTH 11 0
BBX 15 24 0 0
BITMAP
07F0
0FF8
1F38
3C1C
780E
0000
0000
1FE0
1FE0
1FC0
3FC0
3FC0
3FC0
3FC0
3F80
7F80
7F80
7F80
7F00
7F00
FF00
FF00
FF00
FE00
ENDCHAR
STARTCHAR idieresis
ENCODING 239
SWIDTH 293 0
DWIDTH 11 0
BBX 15 24 0 0
BITMAP
3C3C
7E3E
7E7E
7E7E
7C7C
383C
0000
1FE0
1FE0
1FC0
3FC0
3FC0
3FC0
3FC0
3F80
7F80
7F80
7F80
7F00
7F00
FF00
FF00
FF00
FE00
ENDCHAR
STARTCHAR eth
ENCODING 240
SWIDTH 618 0
DWIDTH 23 0
BBX 26 26 0 0
BITMAP
00078000
0003E000
0003F000
0001FF80
002FFF80
001FFFC0
001FFC00
0010FC00
0000FE00
0080FE00
0FF8FE00
1FFDFE00
3FFDFE00
3FFFFE00
7FFFFE00
7FC7FE00
7F87FC00
7F87FC00
FF07FC00
FF0FF800
7F0FF000
7F0FF000
7F1FE000
3FFF8000
1FFF0000
07F80000
ENDCHAR
STARTCHAR ntilde
ENCODING 241
SWIDTH 586 0
DWIDTH 22 0
BBX 21 24 0 0
BITMAP
007C10
01FFF8
03FFF0
03FFE0
060FC0
000000
000000
1F83E0
1FCFF0
1FFFF8
3FE7F8
3FC7F8
3FC7F8
3FC7F8
3F87F8
7F87F0
7F8FF0
7F8FF0
7F8FF0
7F0FF0
FF0FE0
FF1FE0
FF1FE0
FE1FE0
ENDCHAR
STARTCHAR ograve
ENCODING 242
SWIDTH 575 0
DWIDTH 22 0
BBX 21 24 0 0
BITMAP
0FE000
03F000
01F000
00F800
003C00
000000
000000
00FF00
07FFC0
0FFFE0
1FC7F0
3FC7F0
7F87F8
7F87F8
7F87F8
FF07F8
FF0FF0
FF0FF0
7F0FF0
7F1FE0
7F1FE0
3FFFC0
1FFF00
07FC00
ENDCHAR
STARTCHAR oacute
ENCODING 243
SWIDTH 575 0
DWIDTH 22 0
BBX 21 24 0 0
BITMAP
0007F0
0007C0
000F80
001F00
001E00
002000
000000
00FF00
07FFC0
0FFFE0
1FC7F0
3FC7F0
7F87F8
7F87F8
7F87F8
FF07F8
FF0FF0
FF0FF0
7F0FF0
7F1FE0
7F1FE0
3FFFC0
1FFF00
07FC00
ENDCHAR
STARTCHAR ocircumflex
ENCODING 244
SWIDTH 575 0
DWIDTH 22 0
BBX 21 24 0 0
BITMAP
003F80
007FC0
00FBC0
01E1E0
03C0E0
040010
000000
00FF00
07FFC0
0FFFE0
1FC7F0
3FC7F0
7F87F8
7F87F8
7F87F8
FF07F8
FF0FF0
FF0FF0
7F0FF0
7F1FE0
7F1FE0
3FFFC0
1FFF00
07FC00
ENDCHAR
STARTCHAR otilde
ENCODING 245
SWIDTH 575 0
DWIDTH 22 0
BBX 21 24 0 0
BITMAP
007FF8
00FFF0
01FFF0
03FFC0
000000
000000
000000
00FF00
07FFC0
0FFFE0
1FC7F0
3FC7F0
7F87F8
7F87F8
7F87F8
FF07F8
FF0FF0
FF0FF0
7F0FF0
7F1FE0
7F1FE0
3FFFC0
1FFF00
07FC00
ENDCHAR
STARTCHAR odieresis
ENCODING 246
SWIDTH 575 0
DWIDTH 22 0
BBX 21 24 0 0
BITMAP
01E1E0
01F1F0
03F3F0
03F3F0
03E3F0
01E1E0
000000
00FF00
07FFC0
0FFFE0
1FC7F0
3FC7F0
7F87F8
7F87F8
7F87F8
FF07F8
FF0FF0
FF0FF0
7F0FF0
7F1FE0
7F1FE0
3FFFC0
1FFF00
07FC00
ENDCHAR
STARTCHAR divide
ENCODING 247
SWIDTH 460 0
DWIDTH 17 0
BBX 16 22 1 1
BITMAP
00F0
01F8
01FC
01FC
01F8
00F0
0000
0000
0000
7FFF
7FFF
FFFF
FFFF
0000
0000
0000
0F00
1F80
1FC0
1FC0
1F80
0F00
ENDCHAR
STARTCHAR oslash
ENCODING 248
SWIDTH 575 0
DWIDTH 22 0
BBX 21 19 0 -1
BITMAP
000040
00FFE0
07FFC0
0FFFE0
1FC7F0
3FC7F0
7F8FF8
7F9FF8
7FBFF8
FF37F8
FF6FF0
FFCFF0
7FCFF0
7F8FE0
7F1FE0
3FFFC0
1FFF00
1FFC00
380000
ENDCHAR
STARTCHAR ugrave
ENCODING 249
SWIDTH 585 0
DWIDTH 22 0
BBX 22 24 0 0
BITMAP
0FE000
03F000
00F800
007800
003E00
000000
000000
1FE3FC
1FC3FC
3FC3F8
3FC7F8
3FC7F8
3FC7F8
3F87F8
7F87F0
7F8FF0
7F8FF0
7F8FF0
7F0FF0
FF1FE0
FFBFE0
7FEFE0
7FCFE0
1F0FE0
ENDCHAR
STARTCHAR uacute
ENCODING 250
SWIDTH 585 0
DWIDTH 22 0
BBX 22 24 0 0
BITMAP
0003F8
0007E0
000F80
000F00
001C00
000000
000000
1FE3FC
1FC3FC
3FC3F8
3FC7F8
3FC7F8
3FC7F8
3F87F8
7F87F0
7F8FF0
7F8FF0
7F8FF0
7F0FF0
FF1FE0
FFBFE0
7FEFE0
7FCFE0
1F0FE0
ENDCHAR
STARTCHAR ucircumflex
ENCODING 251
SWIDTH 585 0
DWIDTH 22 0
BBX 22 24 0 0
BITMAP
001FC0
003FC0
0079E0
00F0E0
03C070
000000
000000
1FE3FC
1FC3FC
3FC3F8
3FC7F8
3FC7F8
3FC7F8
3F87F8
7F87F0
7F8FF0
7F8FF0
7F8FF0
7F0FF0
FF1FE0
FFBFE0
7FEFE0
7FCFE0
1F0FE0
ENDCHAR
STARTCHAR udieresis
ENCODING 252
SWIDTH 585 0
DWIDTH 22 0
BBX 22 24 0 0
BITMAP
00E0E0
01F1F0
03F1F0
03F3F0
01F1F0
01E1E0
000000
1FE3FC
1FC3FC
3FC3F8
3FC7F8
3FC7F8
3FC7F8
3F87F8
7F87F0
7F8FF0
7F8FF0
7F8FF0
7F0FF0
FF1FE0
FFBFE0
7FEFE0
7FCFE0
1F0FE0
ENDCHAR
STARTCHAR yacute
ENCODING 253
SWIDTH 517 0
DWIDTH 20 0
BBX 23 30 -2 -6
BITMAP
0000FE
0000F8
0001F0
0003E0
000780
000000
000000
0FF03E
0FF03C
0FF078
0FF078
0FF0F0
0FF0F0
0FF1E0
07F1E0
07F3C0
07F380
07FF80
07FF00
07FF00
07FE00
07FE00
03FC00
03FC00
03F800
03F000
07F000
FFE000
FF8000
FE0000
ENDCHAR
STARTCHAR thorn
ENCODING 254
SWIDTH 584 0
DWIDTH 22 0
BBX 23 32 -2 -6
BITMAP
01FE00
01FC00
03FC00
03FC00
03FC00
03FC00
03F800
07F800
07F800
07F8F8
07FBFC
07F7FE
0FFFFE
0FF9FE
0FF1FE
0FF1FE
0FE1FE
1FE1FE
1FE1FE
1FE3FC
1FC3FC
3FE7FC
3FFFF8
3FFFF8
3FDFF0
3F87C0
7F8000
7F8000
7F8000
7F8000
7F0000
FF0000
ENDCHAR
STARTCHAR ydieresis
ENCODING 255
SWIDTH 517 0
DWIDTH 20 0
BBX 23 30 -2 -6
BITMAP
003C3C
007E3E
007E7E
007E7E
007C7C
003C3C
000000
0FF03E
0FF03C
0FF078
0FF078
0FF0F0
0FF0F0
0FF1E0
07F1E0
07F3C0
07F380
07FF80
07FF00
07FF00
07FE00
07FE00
03FC00
03FC00
03F800
03F000
07F000
FFE000
FF8000
FE0000
ENDCHAR
STARTCHAR Amacron
ENCODING 256
SWIDTH 602 0
DWIDTH 23 0
BBX 24 31 -2 0
BITMAP
001FFF
003FFF
003FFF
000000
000000
000000
000000
001FF0
001FF8
003FF8
003FF8
007FF8
0077F8
00F7F8
00E7F8
01E7F8
01C7F8
01C7FC
0387FC
0387FC
0787FC
0707FC
0FFFFC
0FFFFC
1FFFFC
1C03FC
3C03FE
3803FE
7803FE
7803FE
F003FE
ENDCHAR
STARTCHAR amacron
ENCODING 257
SWIDTH 552 0
DWIDTH 21 0
BBX 21 24 -1 0
BITMAP
01FFF8
01FFF8
01FFF0
000000
000000
000000
000000
00FF80
07FFE0
0FFFF0
1F87F0
1F87F0
0007F8
0007F0
07FFF0
1FFFF0
7F8FF0
7F0FF0
7F0FF0
FF0FE0
7FBFE0
7FFFE0
3FCFE0
1F0FE0
ENDCHAR
STARTCHAR Abreve
ENCODING 258
SWIDTH 602 0
DWIDTH 23 0
BBX 24 33 -2 0
BITMAP
000002
000807
001C0E
000FFC
000FF8
0003E0
000000
000000
000000
001FF0
001FF8
003FF8
003FF8
007FF8
0077F8
00F7F8
00E7F8
01E7F8
01C7F8
01C7FC
0387FC
0387FC
0787FC
0707FC
0FFFFC
0FFFFC
1FFFFC
1C03FC
3C03FE
3803FE
7803FE
7803FE
F003FE
ENDCHAR
STARTCHAR abreve
ENCODING 259
SWIDTH 552 0
DWIDTH 21 0
BBX 21 25 -1 0
BITMAP
000020
00C070
00E0E0
00FFC0
007F80
000C00
000000
000000
00FF80
07FFE0
0FFFF0
1F87F0
1F87F0
0007F8
0007F0
07FFF0
1FFFF0
7F8FF0
7F0FF0
7F0FF0
FF0FE0
7FBFE0
7FFFE0
3FCFE0
1F0FE0
ENDCHAR
STARTCHAR Aogonek
ENCODING 260
SWIDTH 602 0
DWIDTH 23 0
BBX 23 32 -2 -8
BITMAP
001FF0
001FF8
003FF8
003FF8
007FF8
0077F8
00F7F8
00E7F8
01E7F8
01C7F8
01C7FC
0387FC
0387FC
0787FC
0707FC
0FFFFC
0FFFFC
1FFFFC
1C03FC
3C03FE
3803FE
7803FE
7803FE
F003FE
000078
0001F0
0003E0
0003E0
0003E4
0003FC
0003FC
0001F0
ENDCHAR
STARTCHAR aogonek
ENCODING 261
SWIDTH 552 0
DWIDTH 21 0
BBX 21 25 -1 -8
BITMAP
00FF80
07FFE0
0FFFF0
1F87F0
1F87F0
0007F8
0007F0
07FFF0
1FFFF0
7F8FF0
7F0FF0
7F0FF0
FF0FE0
7FBFE0
7FFFE0
3FCFE0
1F0FE0
000780
001F00
003E00
003E00
003E40
003FE0
003F80
000400
ENDCHAR
STARTCHAR Cacute
ENCODING 262
SWIDTH 639 0
DWIDTH 24 0
BBX 24 33 1 0
BITMAP
00007F
0000FC
0000F8
0001F0
0003E0
000380
000000
000000
000000
001FE0
00FFFC
03FFFF
07F8FF
0FF0FF
1FE0FF
3FE0FE
3FE0FE
7FC0FE
7FC000
7FC000
7FC000
FF8000
FF8000
FF8000
FF81FC
FF83FC
7F83F8
7F83F8
7F87F8
3F87F8
1FFFF8
0FFFE0
01FE00
ENDCHAR
STARTCHAR cacute
ENCODING 263
SWIDTH 521 0
DWIDTH 20 0
BBX 21 24 0 0
BITMAP
0003F8
0007E0
0007C0
000F00
001E00
000000
000000
00FF80
07FFE0
0FFFE0
1FC7E0
3FC7E0
7F87E0
7F87C0
7F8000
FF0000
FF0000
FF07C0
7F0FC0
7F0FC0
7F1F80
3FFF80
1FFF80
03FE00
ENDCHAR
STARTCHAR Ccircumflex
ENCODING 264
SWIDTH 639 0
DWIDTH 24 0
BBX 24 33 1 0
BITMAP
0007E0
000FF0
001FF0
003E78
007838
00F01C
000000
000000
000000
001FE0
00FFFC
03FFFF
07F8FF
0FF0FF
1FE0FF
3FE0FE
3FE0FE
7FC0FE
7FC000
7FC000
7FC000
FF8000
FF8000
FF8000
FF81FC
FF83FC
7F83F8
7F83F8
7F87F8
3F87F8
1FFFF8
0FFFE0
01FE00
ENDCHAR
STARTCHAR ccircumflex
ENCODING 265
SWIDTH 521 0
DWIDTH 20 0
BBX 20 24 0 0
BITMAP
003F80
007FC0
00FBC0
01E1E0
03C0E0
040010
000000
00FF80
07FFE0
0FFFE0
1FC7E0
3FC7E0
7F87E0
7F87C0
7F8000
FF0000
FF0000
FF07C0
7F0FC0
7F0FC0
7F1F80
3FFF80
1FFF80
03FE00
ENDCHAR
STARTCHAR Cdotaccent
ENCODING 266
SWIDTH 639 0
DWIDTH 24 0
BBX 24 33 1 0
BITMAP
0003C0
0007E0
000FF0
000FF0
000FE0
000FE0
0007C0
000000
000000
001FE0
00FFFC
03FFFF
07F8FF
0FF0FF
1FE0FF
3FE0FE
3FE0FE
7FC0FE
7FC000
7FC000
7FC000
FF8000
FF8000
FF8000
FF81FC
FF83FC
7F83F8
7F83F8
7F87F8
3F87F8
1FFFF8
0FFFE0
01FE00
ENDCHAR
STARTCHAR cdotaccent
ENCODING 267
SWIDTH 521 0
DWIDTH 20 0
BBX 19 24 0 0
BITMAP
000F00
003F80
003F80
003FC0
003F80
003F80
001E00
00FF80
07FFE0
0FFFE0
1FC7E0
3FC7E0
7F87E0
7F87C0
7F8000
FF0000
FF0000
FF07C0
7F0FC0
7F0FC0
7F1F80
3FFF80
1FFF80
03FE00
ENDCHAR
STARTCHAR Ccaron
ENCODING 268
SWIDTH 639 0
DWIDTH 24 0
BBX 24 33 1 0
BITMAP
007007
00381E
001C3C
001EF8
000FF0
000FE0
000000
000000
000000
001FE0
00FFFC
03FFFF
07F8FF
0FF0FF
1FE0FE
3FE0FE
3FE0FE
7FC0FE
7FC000
7FC000
7F8000
FF8000
FF8000
FF8000
FF81FC
FF83FC
7F83F8
7F83F8
7F87F8
3F8FF8
1FFFF0
0FFFE0
01FF00
ENDCHAR
STARTCHAR ccaron
ENCODING 269
SWIDTH 521 0
DWIDTH 20 0
BBX 21 24 0 0
BITMAP
01C078
00E0F0
00F3E0
007FC0
003F80
000000
000000
00FF80
07FFE0
0FFFE0
1FC7E0
3FC7E0
7F87E0
7F87C0
7F8000
FF0000
FF0000
FF07C0
7F0FC0
7F0FC0
7F1F80
3FFF80
1FFF80
03FE00
ENDCHAR
STARTCHAR Dcaron
ENCODING 270
SWIDTH 662 0
DWIDTH 25 0
BBX 25 33 0 0
BITMAP
00700E00
00781C00
00387800
003CF000
001FE000
001FE000
000FC000
00000000
00000000
07FFF000
07FFFC00
07FFFE00
0FF8FF00
0FF07F00
0FF07F00
0FF07F80
0FF07F80
1FF0FF80
1FE0FF80
1FE0FF80
1FE0FF80
3FE0FF00
3FC0FF00
3FC1FF00
3FC1FF00
3FC1FE00
7FC3FE00
7F83FC00
7F87FC00
7F8FF800
7FFFE000
FFFFC000
FFFE0000
ENDCHAR
STARTCHAR dcaron
ENCODING 271
SWIDTH 673 0
DWIDTH 26 0
BBX 31 26 0 0
BITMAP
0000FF00
0001FE38
0001FE7C
0001FEFE
0001FEFC
0001FCFC
0003FC7C
0003FC38
0003FCF0
03E3FDC0
0FFBF800
1FFFF800
3FCFF800
3FC7F800
7F87F800
7F8FF000
7F0FF000
7F0FF000
FF0FF000
FF0FF000
FF1FE000
FF1FE000
FFFFE000
7FFFE000
7FCFC000
1F0FC000
ENDCHAR
STARTCHAR Dcroat
ENCODING 272
SWIDTH 673 0
DWIDTH 26 0
BBX 25 24 0 0
BITMAP
07FFF000
07FFFC00
07FFFE00
07F87F00
07F87F00
0FF87F80
0FF07F80
0FF07F80
0FF07F80
1FF07F80
7FFC7F80
7FFCFF80
FFFCFF80
1FE0FF80
3FE0FF80
3FC0FF00
3FC1FF00
3FC1FE00
3FC3FE00
7FC3FC00
7F87F800
7FFFF000
7FFFC000
FFFF0000
ENDCHAR
STARTCHAR dcroat
ENCODING 273
SWIDTH 577 0
DWIDTH 22 0
BBX 26 26 0 0
BITMAP
0000FF00
0001FE00
0001FE00
0001FE00
000FFFC0
001FFFC0
001FFF80
0003FC00
0003FC00
03E3FC00
0FF3F800
1FFFF800
3FFFF800
3FCFF800
7F87F800
7F87F000
7F8FF000
7F0FF000
FF0FF000
FF0FF000
FF0FE000
FF1FE000
FF3FE000
7FFFE000
7FCFC000
1F0FC000
ENDCHAR
STARTCHAR Emacron
ENCODING 274
SWIDTH 503 0
DWIDTH 19 0
BBX 21 31 0 0
BITMAP
01FFF8
01FFF8
01FFF0
000000
000000
000000
000000
07FFF8
07FFF8
07FFF8
0FF800
0FF000
0FF000
0FF000
0FF000
1FF000
1FE000
1FFFC0
1FFF80
3FFF80
3FC000
3FC000
3FC000
3FC000
7FC000
7F8000
7F8000
7F8000
7FFF80
FFFF00
FFFF00
ENDCHAR
STARTCHAR emacron
ENCODING 275
SWIDTH 547 0
DWIDTH 21 0
BBX 21 24 0 0
BITMAP
01FFF8
01FFF8
01FFF0
000000
000000
000000
000000
00FF80
07FFE0
0FFFF0
1FC7F0
3FC7F0
7F87F0
7F87F0
7FFFF0
FFFFE0
FF0000
FF0000
7F0FE0
7F0FC0
7F1FC0
3FFFC0
1FFF80
07FC00
ENDCHAR
STARTCHAR Ebreve
ENCODING 276
SWIDTH 503 0
DWIDTH 19 0
BBX 21 33 0 0
BITMAP
000020
00C030
00E070
00FFE0
007FC0
003F00
000000
000000
000000
07FFF8
07FFF8
07FFF8
0FF800
0FF000
0FF000
0FF000
0FF000
1FF000
1FE000
1FFFC0
1FFF80
3FFF80
3FC000
3FC000
3FC000
3FC000
7FC000
7F8000
7F8000
7F8000
7FFF80
FFFF00
FFFF00
ENDCHAR
STARTCHAR ebreve
ENCODING 277
SWIDTH 547 0
DWIDTH 21 0
BBX 20 25 0 0
BITMAP
000020
01C070
00E1E0
00FFC0
007F80
000C00
000000
000000
00FF80
07FFE0
0FFFF0
1FC7F0
3FC7F0
7F87F0
7F87F0
7FFFF0
FFFFE0
FF0000
FF0000
7F0FE0
7F0FC0
7F1FC0
3FFFC0
1FFF80
07FC00
ENDCHAR
STARTCHAR Edotaccent
ENCODING 278
SWIDTH 503 0
DWIDTH 19 0
BBX 21 33 0 0
BITMAP
000F00
001F80
003FC0
003FC0
003F80
003F80
001F00
000000
000000
07FFF8
07FFF8
07FFF8
0FF800
0FF000
0FF000
0FF000
0FF000
1FF000
1FE000
1FFFC0
1FFF80
3FFF80
3FC000
3FC000
3FC000
3FC000
7FC000
7F8000
7F8000
7F8000
7FFF80
FFFF00
FFFF00
ENDCHAR
STARTCHAR edotaccent
ENCODING 279
SWIDTH 547 0
DWIDTH 21 0
BBX 20 24 0 0
BITMAP
001E00
003F80
007F80
007F80
007F80
003F00
001E00
00FF80
07FFE0
0FFFF0
1FC7F0
3FC7F0
7F87F0
7F87F0
7FFFF0
FFFFE0
FF0000
FF0000
7F0FE0
7F0FC0
7F1FC0
3FFFC0
1FFF80
07FC00
ENDCHAR
STARTCHAR Eogonek
ENCODING 280
SWIDTH 503 0
DWIDTH 19 0
BBX 21 32 0 -8
BITMAP
07FFF8
07FFF8
07FFF8
0FF800
0FF000
0FF000
0FF000
0FF000
1FF000
1FE000
1FFFC0
1FFF80
3FFF80
3FC000
3FC000
3FC000
3FC000
7FC000
7F8000
7F8000
7F8000
7FFF80
FFFF00
FFFF00
01E000
07C000
0F8000
0F0000
0F1000
0FF000
0FF000
07C000
ENDCHAR
STARTCHAR eogonek
ENCODING 281
SWIDTH 547 0
DWIDTH 21 0
BBX 20 25 0 -8
BITMAP
00FF80
07FFE0
0FFFF0
1FC7F0
3FC7F0
7F87F0
7F87F0
7FFFF0
FFFFE0
FF0000
FF0000
7F0FE0
7F0FC0
7F1FC0
3FFFC0
1FFF80
07FE00
007800
00F000
01F000
01F000
01F200
01FF00
01FC00
002000
ENDCHAR
STARTCHAR Ecaron
ENCODING 282
SWIDTH 503 0
DWIDTH 19 0
BBX 22 33 0 0
BITMAP
01C03C
00E078
00F0F0
007BE0
007FC0
003F80
003F00
000000
000000
07FFF8
07FFF8
07FFF8
0FF800
0FF000
0FF000
0FF000
0FF000
1FF000
1FE000
1FFFC0
1FFF80
3FFF80
3FC000
3FC000
3FC000
3FC000
7FC000
7F8000
7F8000
7F8000
7FFF80
FFFF00
FFFF00
ENDCHAR
STARTCHAR ecaron
ENCODING 283
SWIDTH 547 0
DWIDTH 21 0
BBX 22 24 0 0
BITMAP
01E07C
00E0F0
0073E0
007FC0
003F80
000000
000000
00FF80
07FFE0
0FFFF0
1FC7F0
3FC7F0
7F87F0
7F87F0
7FFFF0
FFFFE0
FF0000
FF0000
7F0FE0
7F0FC0
7F1FC0
3FFFC0
1FFF80
07FC00
ENDCHAR
STARTCHAR Gcircumflex
ENCODING 284
SWIDTH 642 0
DWIDTH 24 0
BBX 24 33 1 0
BITMAP
0003E0
0007F0
000FF8
001E78
003C3C
00F01E
000000
000000
000000
001FE0
00FFFC
03FFFF
07F8FE
0FF0FE
1FE0FE
3FE0FE
3FE0FE
7FC0FC
7FC000
7FC000
7FC000
FF8FFC
FF8FFC
FF8FFC
FF81FC
FF81FC
7F83F8
7F83F8
7F83F8
3F87F8
1FFFF8
0FFDF0
03F1F0
ENDCHAR
STARTCHAR gcircumflex
ENCODING 285
SWIDTH 578 0
DWIDTH 22 0
BBX 22 30 0 -6
BITMAP
000FE0
001FE0
003EF0
007870
00F038
010000
000000
03F1FC
0FFBF8
1FFFF8
3FFFF8
3FC7F8
7F87F8
7F87F0
7F8FF0
7F0FF0
FF0FF0
FF0FE0
FF0FE0
FF1FE0
7FFFE0
7FDFE0
7FDFC0
1F1FC0
003FC0
003F80
007F00
7FFE00
7FFC00
7FE000
ENDCHAR
STARTCHAR Gbreve
ENCODING 286
SWIDTH 642 0
DWIDTH 24 0
BBX 24 33 1 0
BITMAP
000004
00380E
001C3C
001FF8
000FF0
000180
000000
000000
000000
001FE0
00FFFC
03FFFF
07F8FE
0FF0FE
1FE0FE
3FE0FE
3FE0FE
7FC0FC
7FC000
7FC000
7FC000
FF8FFC
FF8FFC
FF8FFC
FF81FC
FF81FC
7F83F8
7F83F8
7F83F8
3F87F8
1FFFF8
0FFDF0
03F1F0
ENDCHAR
STARTCHAR gbreve
ENCODING 287
SWIDTH 578 0
DWIDTH 22 0
BBX 22 31 0 -6
BITMAP
000010
006038
007070
007FE0
003FC0
000600
000000
000000
03F1FC
0FFBF8
1FFFF8
3FFFF8
3FC7F8
7F87F8
7F87F0
7F8FF0
7F0FF0
FF0FF0
FF0FE0
FF0FE0
FF1FE0
7FFFE0
7FDFE0
7FDFC0
1F1FC0
003FC0
003F80
007F00
7FFE00
7FFC00
7FE000
ENDCHAR
STARTCHAR Gdotaccent
ENCODING 288
SWIDTH 642 0
DWIDTH 24 0
BBX 24 33 1 0
BITMAP
0007C0
000FE0
000FE0
001FE0
000FE0
000FC0
000780
000000
000000
001FE0
00FFFC
03FFFF
07F8FE
0FF0FE
1FE0FE
3FE0FE
3FE0FE
7FC0FC
7FC000
7FC000
7FC000
FF8FFC
FF8FFC
FF8FFC
FF81FC
FF81FC
7F83F8
7F83F8
7F83F8
3F87F8
1FFFF8
0FFDF0
03F1F0
ENDCHAR
STARTCHAR gdotaccent
ENCODING 289
SWIDTH 578 0
DWIDTH 22 0
BBX 22 30 0 -6
BITMAP
000780
000FC0
001FE0
001FE0
001FC0
001FC0
000F80
03F1FC
0FFBF8
1FFFF8
3FFFF8
3FC7F8
7F87F8
7F87F0
7F8FF0
7F0FF0
FF0FF0
FF0FE0
FF0FE0
FF1FE0
7FFFE0
7FDFE0
7FDFC0
1F1FC0
003FC0
003F80
007F00
7FFE00
7FFC00
7FE000
ENDCHAR
STARTCHAR Gcommaaccent
ENCODING 290
SWIDTH 642 0
DWIDTH 24 0
BBX 24 35 1 -11
BITMAP
001FE0
00FFFC
03FFFF
07F8FE
0FF0FE
1FE0FE
3FE0FE
3FE0FE
7FC0FC
7FC000
7FC000
7FC000
FF8FFC
FF8FFC
FF8FFC
FF81FC
FF81FC
7F83F8
7F83F8
7F83F8
3F87F8
1FFFF8
0FFDF0
03F1F0
000000
000000
007000
00F800
00F800
007800
007800
007000
00E000
01C000
008000
ENDCHAR
STARTCHAR gcommaaccent
ENCODING 291
SWIDTH 578 0
DWIDTH 22 0
BBX 22 34 0 -6
BITMAP
000100
000380
000700
000E00
001E00
001F00
001F00
001F00
000E00
000000
000000
03F1FC
0FFBF8
1FFFF8
3FFFF8
3FC7F8
7F87F8
7F87F0
7F8FF0
7F0FF0
FF0FF0
FF0FE0
FF0FE0
FF1FE0
7FFFE0
7FDFE0
7FDFC0
1F1FC0
003FC0
003F80
007F00
7FFE00
7FFC00
7FE000
ENDCHAR
STARTCHAR Hcircumflex
ENCODING 292
SWIDTH 666 0
DWIDTH 25 0
BBX 26 33 0 0
BITMAP
0003F000
0007F800
0007F800
000F3C00
001E1C00
00380E00
00700E00
00000000
00000000
07F83FC0
07F83FC0
07F87FC0
0FF87FC0
0FF07F80
0FF07F80
0FF07F80
0FF0FF80
1FF0FF00
1FE0FF00
1FFFFF00
1FFFFF00
3FFFFF00
3FC1FE00
3FC1FE00
3FC1FE00
3FC3FE00
7FC3FE00
7F83FC00
7F83FC00
7F83FC00
7F87FC00
FF87F800
FF07F800
ENDCHAR
STARTCHAR hcircumflex
ENCODING 293
SWIDTH 586 0
DWIDTH 22 0
BBX 26 26 0 0
BITMAP
07F80000
07F80000
0FF07E00
0FF0FF00
0FF1E780
0FF3C380
0FEF01C0
1FE00000
1FE00000
1FE3E000
1FEFF000
1FDFF800
3FFFF800
3FC7F800
3FC7F800
3FC7F800
3F87F800
7F87F000
7F8FF000
7F8FF000
7F8FF000
7F0FF000
FF0FE000
FF1FE000
FF1FE000
FE1FE000
ENDCHAR
STARTCHAR Hbar
ENCODING 294
SWIDTH 704 0
DWIDTH 27 0
BBX 28 24 1 0
BITMAP
07F83FC0
0FF87FC0
0FF87F80
0FF07F80
7FFFFFF0
FFFFFFF0
FFFFFFF0
1FE0FF00
1FE0FF00
1FE0FF00
1FFFFF00
3FFFFF00
3FFFFE00
3FC1FE00
3FC1FE00
3FC3FE00
7F83FC00
7F83FC00
7F83FC00
7F83FC00
FF87FC00
FF07F800
FF07F800
FF07F800
ENDCHAR
STARTCHAR hbar
ENCODING 295
SWIDTH 586 0
DWIDTH 22 0
BBX 21 26 0 0
BITMAP
07F800
07F800
0FF000
0FF000
7FFE00
FFFC00
FFFC00
1FE000
1FE000
1FE3E0
1FEFF0
1FDFF8
3FFFF8
3FC7F8
3FC7F8
3FC7F8
3F87F8
7F87F0
7F8FF0
7F8FF0
7F8FF0
7F0FF0
FF0FE0
FF1FE0
FF1FE0
FE1FE0
ENDCHAR
STARTCHAR Itilde
ENCODING 296
SWIDTH 326 0
DWIDTH 12 0
BBX 19 33 0 0
BITMAP
03C040
07F8E0
0FFFC0
1FFF80
1C7F80
081E00
000000
000000
000000
07F800
07F800
07F800
0FF800
0FF000
0FF000
0FF000
0FF000
1FF000
1FE000
1FE000
1FE000
3FE000
3FC000
3FC000
3FC000
3FC000
7FC000
7F8000
7F8000
7F8000
7F8000
FF8000
FF0000
ENDCHAR
STARTCHAR itilde
ENCODING 297
SWIDTH 293 0
DWIDTH 11 0
BBX 16 24 0 0
BITMAP
0F83
1FFF
3FFE
7FFC
60F8
0000
0000
1FE0
1FE0
1FC0
3FC0
3FC0
3FC0
3FC0
3F80
7F80
7F80
7F80
7F00
7F00
FF00
FF00
FF00
FE00
ENDCHAR
STARTCHAR Imacron
ENCODING 298
SWIDTH 326 0
DWIDTH 12 0
BBX 17 31 0 0
BITMAP
0FFF80
1FFF80
1FFF80
000000
000000
000000
000000
07F800
07F800
07F800
0FF800
0FF000
0FF000
0FF000
0FF000
1FF000
1FE000
1FE000
1FE000
3FE000
3FC000
3FC000
3FC000
3FC000
7FC000
7F8000
7F8000
7F8000
7F8000
FF8000
FF0000
ENDCHAR
STARTCHAR imacron
ENCODING 299
SWIDTH 293 0
DWIDTH 11 0
BBX 15 23 0 0
BITMAP
7FFE
7FFE
7FFC
0000
0000
0000
1FE0
1FE0
1FC0
3FC0
3FC0
3FC0
3FC0
3F80
7F80
7F80
7F80
7F00
7F00
FF00
FF00
FF00
FE00
ENDCHAR
STARTCHAR Ibreve
ENCODING 300
SWIDTH 326 0
DWIDTH 12 0
BBX 17 33 0 0
BITMAP
000100
060180
060780
07FF00
03FE00
01F800
000000
000000
000000
07F800
07F800
07F800
0FF800
0FF000
0FF000
0FF000
0FF000
1FF000
1FE000
1FE000
1FE000
3FE000
3FC000
3FC000
3FC000
3FC000
7FC000
7F8000
7F8000
7F8000
7F8000
FF8000
FF0000
ENDCHAR
STARTCHAR ibreve
ENCODING 301
SWIDTH 293 0
DWIDTH 11 0
BBX 15 25 0 0
BITMAP
0004
100E
381C
1FF8
1FF0
07C0
0000
0000
1FE0
1FE0
1FC0
3FC0
3FC0
3FC0
3FC0
3F80
7F80
7F80
7F80
7F00
7F00
FF00
FF00
FF00
FE00
ENDCHAR
STARTCHAR Iogonek
ENCODING 302
SWIDTH 326 0
DWIDTH 12 0
BBX 15 32 -2 -8
BITMAP
01FE
01FE
01FE
03FE
03FC
03FC
03FC
03FC
07FC
07F8
07F8
07F8
0FF8
0FF0
0FF0
0FF0
0FF0
1FF0
1FE0
1FE0
1FE0
1FE0
3FE0
3FC0
1E00
3C00
7800
F800
F880
FF80
FF00
7C00
ENDCHAR
STARTCHAR iogonek
ENCODING 303
SWIDTH 293 0
DWIDTH 11 0
BBX 14 32 -2 -8
BITMAP
00F0
01F8
03FC
03FC
03FC
03F8
00F0
07F8
07F8
07F0
0FF0
0FF0
0FF0
0FF0
0FE0
1FE0
1FE0
1FE0
1FC0
1FC0
3FC0
3FC0
3FC0
3F80
1E00
7C00
F800
F800
F900
FF00
FF80
7C00
ENDCHAR
STARTCHAR Idotaccent
ENCODING 304
SWIDTH 326 0
DWIDTH 12 0
BBX 13 33 0 0
BITMAP
00F0
03F8
03F8
03F8
03F8
03F8
01E0
0000
0000
07F8
07F8
07F8
0FF8
0FF0
0FF0
0FF0
0FF0
1FF0
1FE0
1FE0
1FE0
3FE0
3FC0
3FC0
3FC0
3FC0
7FC0
7F80
7F80
7F80
7F80
FF80
FF00
ENDCHAR
STARTCHAR dotlessi
ENCODING 305
SWIDTH 293 0
DWIDTH 11 0
BBX 11 17 0 0
BITMAP
1FE0
1FE0
1FC0
3FC0
3FC0
3FC0
3FC0
3F80
7F80
7F80
7F80
7F00
7F00
FF00
FF00
FF00
FE00
ENDCHAR
STARTCHAR IJ
ENCODING 306
SWIDTH 912 0
DWIDTH 35 0
BBX 36 24 0 0
BITMAP
07F8001FF0
07F8001FE0
07F8001FE0
0FF8001FE0
0FF0001FE0
0FF0003FE0
0FF0003FC0
0FF0003FC0
1FF0003FC0
1FE0007FC0
1FE0007FC0
1FE0007F80
3FE0007F80
3FC0007F80
3FC000FF80
3FC7F0FF00
3FCFF0FF00
7FCFE0FF00
7F8FE1FF00
7F8FE1FE00
7F8FF1FE00
7F87FFF800
FF83FFF000
FF00FF8000
ENDCHAR
STARTCHAR ij
ENCODING 307
SWIDTH 580 0
DWIDTH 22 0
BBX 23 30 0 -6
BITMAP
03C078
07E0FC
0FF1FE
0FF1FE
0FF1FC
0FE1FC
03C0F8
1FE3FC
1FE3F8
1FC7F8
3FC7F8
3FC7F8
3FC7F8
3FC7F0
3F8FF0
7F8FF0
7F8FF0
7F8FF0
7F0FE0
7F1FE0
FF1FE0
FF1FE0
FF1FC0
FE3FC0
003FC0
003F80
007F80
01FF00
01FC00
01F000
ENDCHAR
STARTCHAR Jcircumflex
ENCODING 308
SWIDTH 590 0
DWIDTH 22 0
BBX 28 33 -1 0
BITMAP
00001F80
00003F80
00007FC0
0000F1C0
0001E0E0
000780F0
00000000
00000000
00000000
0000FF80
0000FF00
0000FF00
0000FF00
0001FF00
0001FE00
0001FE00
0001FE00
0003FE00
0003FE00
0003FC00
0003FC00
0003FC00
0007FC00
0007F800
7F87F800
7F07F800
7F0FF800
7F0FF000
7F0FF000
FF1FE000
7FFFC000
1FFF8000
07FC0000
ENDCHAR
STARTCHAR jcircumflex
ENCODING 309
SWIDTH 294 0
DWIDTH 11 0
BBX 19 30 -4 -6
BITMAP
007F00
00FF80
01F780
03C3C0
0F01E0
000000
000000
01FE00
01FE00
01FC00
03FC00
03FC00
03FC00
03FC00
07F800
07F800
07F800
07F800
07F000
0FF000
0FF000
0FF000
0FF000
0FE000
1FE000
1FC000
1FC000
FF8000
FF0000
F80000
ENDCHAR
STARTCHAR Kcommaaccent
ENCODING 310
SWIDTH 608 0
DWIDTH 23 0
BBX 25 35 0 -11
BITMAP
07F80F80
07F81E00
07F83E00
0FF87C00
0FF07800
0FF0F000
0FF1E000
0FF3C000
1FF78000
1FEF0000
1FFF8000
1FFF8000
3FFFC000
3FFFC000
3FDFC000
3FDFE000
3FDFE000
7FCFF000
7F8FF000
7F8FF000
7F87F800
7F87F800
FF87F800
FF03FC00
00000000
00000000
00200000
00F00000
01F80000
01F80000
00F00000
00700000
00E00000
01C00000
01800000
ENDCHAR
STARTCHAR kcommaaccent
ENCODING 311
SWIDTH 599 0
DWIDTH 23 0
BBX 23 37 0 -11
BITMAP
07F800
07F800
0FF000
0FF000
0FF000
0FF000
0FE000
1FE000
1FE000
1FE03E
1FE0FC
1FC1F0
3FC3E0
3FC7C0
3FCF80
3FFF00
3FFF00
7FFF80
7FFF80
7FBFC0
7FBFC0
7F1FE0
FF1FE0
FF0FF0
FF0FF8
FE07F8
000000
000000
004000
01E000
03F000
01F000
00F000
00E000
01C000
038000
030000
ENDCHAR
STARTCHAR kgreenlandic
ENCODING 312
SWIDTH 583 0
DWIDTH 22 0
BBX 23 17 0 0
BITMAP
1FE03E
1FE0FC
1FC1F0
3FC3E0
3FC7C0
3FCF80
3FFF00
3FFF00
7FFF80
7FFF80
7FBFC0
7FBFC0
7F1FE0
FF1FE0
FF0FF0
FF0FF8
FE07F8
ENDCHAR
STARTCHAR Lacute
ENCODING 313
SWIDTH 482 0
DWIDTH 18 0
BBX 18 33 0 0
BITMAP
001FC0
001F80
003F00
003E00
007800
007000
00E000
000000
000000
07F800
07F800
07F800
0FF800
0FF000
0FF000
0FF000
0FF000
1FF000
1FE000
1FE000
1FE000
3FE000
3FE000
3FC000
3FC000
3FC000
7FC000
7F8000
7F8000
7F8000
7FFF80
FFFF00
FFFF00
ENDCHAR
STARTCHAR lacute
ENCODING 314
SWIDTH 293 0
DWIDTH 11 0
BBX 17 34 0 0
BITMAP
003F80
003F00
007C00
00F800
00F000
01E000
01C000
000000
07F800
07F800
0FF000
0FF000
0FF000
0FF000
0FE000
1FE000
1FE000
1FE000
1FE000
1FC000
3FC000
3FC000
3FC000
3FC000
3F8000
7F8000
7F8000
7F8000
7F8000
7F0000
FF0000
FF0000
FF0000
FE0000
ENDCHAR
STARTCHAR Lcommaaccent
ENCODING 315
SWIDTH 482 0
DWIDTH 18 0
BBX 17 35 0 -11
BITMAP
07F800
07F800
07F800
0FF800
0FF000
0FF000
0FF000
0FF000
1FF000
1FE000
1FE000
1FE000
3FE000
3FE000
3FC000
3FC000
3FC000
7FC000
7F8000
7F8000
7F8000
7FFF80
FFFF00
FFFF00
000000
000000
010000
07C000
07C000
0FC000
03C000
038000
030000
060000
0C0000
ENDCHAR
STARTCHAR lcommaaccent
ENCODING 316
SWIDTH 293 0
DWIDTH 11 0
BBX 14 37 -1 -11
BITMAP
03FC
03FC
07F8
07F8
07F8
07F8
07F0
0FF0
0FF0
0FF0
0FF0
0FE0
1FE0
1FE0
1FE0
1FE0
1FC0
3FC0
3FC0
3FC0
3FC0
3F80
7F80
7F80
7F80
7F00
0000
0000
1000
3C00
7C00
7C00
3C00
3C00
3800
F000
4000
ENDCHAR
STARTCHAR Lcaron
ENCODING 317
SWIDTH 482 0
DWIDTH 18 0
BBX 18 33 0 0
BITMAP
0E01C0
0703C0
078F80
039F00
03FE00
01FC00
01F800
000000
000000
07F800
07F800
07F800
0FF800
0FF000
0FF000
0FF000
0FF000
1FF000
1FE000
1FE000
1FE000
3FE000
3FE000
3FC000
3FC000
3FC000
7FC000
7F8000
7F8000
7F8000
7FFF80
FFFF00
FFFF00
ENDCHAR
STARTCHAR lcaron
ENCODING 318
SWIDTH 393 0
DWIDTH 15 0
BBX 20 26 0 0
BITMAP
07F800
07F9E0
0FF3F0
0FF7F0
0FF7F0
0FF3F0
0FE1E0
1FE1C0
1FE780
1FE700
1FE400
1FC000
3FC000
3FC000
3FC000
3FC000
3F8000
7F8000
7F8000
7F8000
7F8000
7F0000
FF0000
FF0000
FF0000
FE0000
ENDCHAR
STARTCHAR Ldot
ENCODING 319
SWIDTH 505 0
DWIDTH 19 0
BBX 20 24 0 0
BITMAP
07F800
07F800
07F800
0FF800
0FF000
0FF000
0FF000
0FF000
1FF000
1FE3C0
1FE7E0
1FEFF0
3FEFF0
3FEFE0
3FCFE0
3FC7C0
3FC000
7FC000
7F8000
7F8000
7F8000
7FFF80
FFFF00
FFFF00
ENDCHAR
STARTCHAR ldot
ENCODING 320
SWIDTH 472 0
DWIDTH 18 0
BBX 19 26 0 0
BITMAP
07F800
07F800
0FF000
0FF000
0FF000
0FF000
0FE000
1FE000
1FE000
1FE000
1FE000
1FC780
3FCFC0
3FDFE0
3FDFE0
3FDFE0
3F9FC0
7F8F80
7F8000
7F8000
7F8000
7F0000
FF0000
FF0000
FF0000
FE0000
ENDCHAR
STARTCHAR Lslash
ENCODING 321
SWIDTH 514 0
DWIDTH 20 0
BBX 18 24 0 0
BITMAP
03FE00
03FC00
03FC00
03FC00
07FC00
07F800
07F800
07F800
07F880
0FFF00
0FFF00
FFFF00
FFFC00
FFF000
DFF000
1FE000
1FE000
1FE000
3FE000
3FC000
3FC000
3FFFC0
3FFFC0
7FFF80
ENDCHAR
STARTCHAR lslash
ENCODING 322
SWIDTH 399 0
DWIDTH 15 0
BBX 17 26 0 0
BITMAP
01FE00
01FE00
01FE00
01FC00
03FC00
03FC00
03FC00
03FC80
03FF80
07FF80
07FF80
0FFE00
7FF000
7FF000
7FF000
CFF000
0FF000
0FE000
1FE000
1FE000
1FE000
1FE000
1FC000
3FC000
3FC000
3FC000
ENDCHAR
STARTCHAR Nacute
ENCODING 323
SWIDTH 644 0
DWIDTH 24 0
BBX 25 33 0 0
BITMAP
00007F00
00007E00
0000FC00
0000F800
0001E000
0003C000
00038000
00000000
00000000
07FC0380
07FE0380
07FE0780
0FFE0780
0FFE0700
0FFE0700
0FFF0700
0FFF0F00
1EFF0F00
1EFF0E00
1CFF8E00
1CFF9E00
3C7F9E00
3C7F9E00
387F9C00
387FDC00
383FFC00
783FFC00
783FF800
703FF800
703FF800
701FF800
F01FF800
F01FF000
ENDCHAR
STARTCHAR nacute
ENCODING 324
SWIDTH 586 0
DWIDTH 22 0
BBX 21 24 0 0
BITMAP
0007F0
000FC0
000F80
001E00
003C00
000000
000000
1F83E0
1FCFF0
1FFFF8
3FE7F8
3FC7F8
3FC7F8
3FC7F8
3F87F8
7F87F0
7F8FF0
7F8FF0
7F8FF0
7F0FF0
FF0FE0
FF1FE0
FF1FE0
FE1FE0
ENDCHAR
STARTCHAR Ncommaaccent
ENCODING 325
SWIDTH 644 0
DWIDTH 24 0
BBX 25 35 0 -11
BITMAP
07FC0380
07FE0380
07FE0780
0FFE0780
0FFE0700
0FFE0700
0FFF0700
0FFF0F00
1EFF0F00
1EFF0E00
1CFF8E00
1CFF9E00
3C7F9E00
3C7F9E00
387F9C00
387FDC00
383FFC00
783FFC00
783FF800
703FF800
703FF800
701FF800
F01FF800
F01FF000
00000000
00000000
00200000
00F00000
01F80000
01F80000
00F00000
00700000
00E00000
01C00000
01800000
ENDCHAR
STARTCHAR ncommaaccent
ENCODING 326
SWIDTH 586 0
DWIDTH 22 0
BBX 21 28 0 -11
BITMAP
1F83E0
1FCFF0
1FFFF8
3FE7F8
3FC7F8
3FC7F8
3FC7F8
3F87F8
7F87F0
7F8FF0
7F8FF0
7F8FF0
7F0FF0
FF0FE0
FF1FE0
FF1FE0
FE1FE0
000000
000000
008000
03E000
03E000
03E000
01E000
01C000
01C000
078000
020000
ENDCHAR
STARTCHAR Ncaron
ENCODING 327
SWIDTH 644 0
DWIDTH 24 0
BBX 25 33 0 0
BITMAP
00700E00
00381C00
003C7C00
001CF800
001FF000
000FE000
000FC000
00000000
00000000
07FC0380
07FE0380
07FE0780
0FFE0780
0FFE0700
0FFE0700
0FFF0700
0FFF0F00
1EFF0F00
1EFF0E00
1CFF8E00
1CFF9E00
3C7F9E00
3C7F9E00
387F9C00
387FDC00
383FFC00
783FFC00
783FF800
703FF800
703FF800
701FF800
F01FF800
F01FF000
ENDCHAR
STARTCHAR ncaron
ENCODING 328
SWIDTH 586 0
DWIDTH 22 0
BBX 21 24 0 0
BITMAP
03C078
01E1E0
00F3C0
00FF80
007F00
000000
000000
1F83E0
1FCFF0
1FFFF8
3FE7F8
3FC7F8
3FC7F8
3FC7F8
3F87F8
7F87F0
7F8FF0
7F8FF0
7F8FF0
7F0FF0
FF0FE0
FF1FE0
FF1FE0
FE1FE0
ENDCHAR
STARTCHAR napostrophe
ENCODING 329
SWIDTH 586 0
DWIDTH 22 0
BBX 21 30 0 0
BITMAP
078000
0FC000
0FC000
0FC000
0FC000
07C000
038000
070000
0E0000
1C0000
000000
000000
000000
1F83E0
1FCFF0
1FFFF8
3FE7F8
3FC7F8
3FC7F8
3FC7F8
3F87F8
7F87F0
7F8FF0
7F8FF0
7F8FF0
7F0FF0
FF0FE0
FF1FE0
FF1FE0
FE1FE0
ENDCHAR
STARTCHAR Eng
ENCODING 330
SWIDTH 644 0
DWIDTH 24 0
BBX 25 30 0 -6
BITMAP
07FC0380
07FE0380
07FE0780
0FFE0780
0FFE0700
0FFE0700
0FFF0700
0FFF0F00
1EFF0F00
1EFF0E00
1CFF8E00
1C7F9E00
3C7F9E00
3C7F9E00
3C3FDC00
383FDC00
383FFC00
781FFC00
781FF800
701FF800
700FF800
700FF800
F00FF800
F00FF000
000FF000
001FE000
07FFE000
07FF8000
0FFF0000
07FC0000
ENDCHAR
STARTCHAR eng
ENCODING 331
SWIDTH 586 0
DWIDTH 22 0
BBX 21 23 0 -6
BITMAP
1F83E0
1FCFF0
1FFFF8
3FEFF8
3FC7F8
3FC7F8
3FC7F8
3F87F8
7F87F0
7F8FF0
7F8FF0
7F8FF0
7F0FF0
FF0FE0
FF1FE0
FF1FE0
FE1FE0
001FC0
003FC0
003F80
00FF00
00FE00
01F000
ENDCHAR
STARTCHAR Omacron
ENCODING 332
SWIDTH 685 0
DWIDTH 26 0
BBX 25 31 1 0
BITMAP
007FFE00
007FFE00
007FFC00
00000000
00000000
00000000
00000000
003FE000
01FFF800
03FFFC00
07F8FE00
0FF0FF00
1FF0FF00
3FE0FF00
3FE0FF80
7FC0FF80
7FC0FF80
7FC0FF80
7F80FF80
FF80FF00
FF81FF00
FF81FF00
FF81FF00
FF83FE00
7F83FE00
7F87FC00
7F87F800
3F8FF800
3FFFF000
0FFFC000
03FE0000
ENDCHAR
STARTCHAR omacron
ENCODING 333
SWIDTH 575 0
DWIDTH 22 0
BBX 21 24 0 0
BITMAP
01FFF0
03FFF0
03FFF0
000000
000000
000000
000000
00FF00
07FFC0
0FFFE0
1FC7F0
3FC7F0
7F87F8
7F87F8
7F87F8
FF07F8
FF0FF0
FF0FF0
7F0FF0
7F1FE0
7F1FE0
3FFFC0
1FFF00
07FC00
ENDCHAR
STARTCHAR Obreve
ENCODING 334
SWIDTH 685 0
DWIDTH 26 0
BBX 25 33 1 0
BITMAP
00000400
00380E00
003C3C00
001FF800
000FF000
00010000
00000000
00000000
00000000
003FE000
01FFF800
03FFFC00
07F8FE00
0FF0FF00
1FF0FF00
3FE0FF00
3FE0FF80
7FC0FF80
7FC0FF80
7FC0FF80
7F80FF80
FF80FF00
FF81FF00
FF81FF00
FF81FF00
FF83FE00
7F83FE00
7F87FC00
7F87F800
3F8FF800
3FFFF000
0FFFC000
03FE0000
ENDCHAR
STARTCHAR obreve
ENCODING 335
SWIDTH 575 0
DWIDTH 22 0
BBX 21 25 0 0
BITMAP
000020
00C070
00E0E0
00FFC0
007F80
000C00
000000
000000
00FF00
07FFC0
0FFFE0
1FC7F0
3FC7F0
7F87F8
7F87F8
7F87F8
FF07F8
FF0FF0
FF0FF0
7F0FF0
7F1FE0
7F1FE0
3FFFC0
1FFF00
07FC00
ENDCHAR
STARTCHAR Ohungarumlaut
ENCODING 336
SWIDTH 685 0
DWIDTH 26 0
BBX 29 33 1 0
BITMAP
0007F3F8
000FC7E0
000F87C0
001F0F80
003C1E00
00783C00
00000000
00000000
00000000
003FE000
01FFF800
03FFFC00
07F8FE00
0FF0FF00
1FF0FF00
3FE0FF00
3FE0FF80
7FC0FF80
7FC0FF80
7FC0FF80
7F80FF80
FF80FF00
FF81FF00
FF81FF00
FF81FF00
FF83FE00
7F83FE00
7F87FC00
7F87F800
3F8FF800
3FFFF000
0FFFC000
03FE0000
ENDCHAR
STARTCHAR ohungarumlaut
ENCODING 337
SWIDTH 575 0
DWIDTH 22 0
BBX 26 24 0 0
BITMAP
003F9FC0
007E3F00
007C3E00
00F87C00
01E0F000
03C1E000
00000000
00FF0000
07FFC000
0FFFE000
1FC7F000
3FC7F000
7F87F800
7F87F800
7F87F800
FF07F800
FF0FF000
FF0FF000
7F0FF000
7F1FE000
7F1FE000
3FFFC000
1FFF0000
07FC0000
ENDCHAR
STARTCHAR OE
ENCODING 338
SWIDTH 874 0
DWIDTH 33 0
BBX 34 24 1 0
BITMAP
003FFFFFC0
01FFFFFFC0
03FFFFFFC0
07F8FFC000
0FF0FF8000
1FE0FF8000
3FE0FF8000
3FE0FF8000
7FC0FF8000
7FC0FF0000
7FC0FFFE00
7F80FFFC00
FF81FFFC00
FF81FE0000
FF81FE0000
FF81FE0000
FF83FE0000
7F83FE0000
7F87FE0000
7F87FC0000
3F8FFC0000
3FFFFFFC00
0FFFFFF800
03FFFFF800
ENDCHAR
STARTCHAR oe
ENCODING 339
SWIDTH 918 0
DWIDTH 35 0
BBX 34 17 0 0
BITMAP
01FF03FE00
07FFDFFF80
0FFFFFFFC0
1FC7FF1FC0
3FC7FF1FC0
7F87FE1FC0
7F87FE1FC0
7F87FFFFC0
FF07FFFF80
FF0FFC0000
FF0FFC0000
7F0FFC3F80
7F1FFC3F00
7F1FFC7F00
3FFFFFFF00
1FFF7FFE00
07FC1FF000
ENDCHAR
STARTCHAR Racute
ENCODING 340
SWIDTH 633 0
DWIDTH 24 0
BBX 24 33 0 0
BITMAP
0000FC
0001F8
0001F0
0003E0
0007C0
000780
000F00
000000
000000
07FFF0
07FFFC
07FFFE
0FF8FE
0FF0FF
0FF0FF
0FF0FF
0FF0FE
1FF0FE
1FE1FE
1FE3FC
1FFFF8
3FFFE0
3FFFE0
3FDFE0
3FCFE0
3FCFF0
7FCFF0
7F8FF8
7F87F8
7F87F8
7F87FC
FF83FC
FF03FE
ENDCHAR
STARTCHAR racute
ENCODING 341
SWIDTH 483 0
DWIDTH 18 0
BBX 19 24 0 0
BITMAP
0007E0
000FC0
001F00
001E00
003C00
004000
000000
1F87E0
1FCFE0
1FDFC0
3FFFC0
3FEFC0
3FC7C0
3FC7C0
3F8780
7F8780
7F8000
7F8000
7F8000
7F0000
FF0000
FF0000
FF0000
FE0000
ENDCHAR
STARTCHAR Rcommaaccent
ENCODING 342
SWIDTH 633 0
DWIDTH 24 0
BBX 24 35 0 -11
BITMAP
07FFF0
07FFFC
07FFFE
0FF8FE
0FF0FF
0FF0FF
0FF0FF
0FF0FE
1FF0FE
1FE1FE
1FE3FC
1FFFF8
3FFFE0
3FFFE0
3FDFE0
3FCFE0
3FCFF0
7FCFF0
7F8FF8
7F87F8
7F87F8
7F87FC
FF83FC
FF03FE
000000
000000
002000
00F800
01F800
00F800
007800
007000
00E000
01C000
018000
ENDCHAR
STARTCHAR rcommaaccent
ENCODING 343
SWIDTH 483 0
DWIDTH 18 0
BBX 19 28 0 -11
BITMAP
1F87E0
1FCFE0
1FDFC0
3FFFC0
3FEFC0
3FC7C0
3FC7C0
3F8780
7F8780
7F8000
7F8000
7F8000
7F0000
FF0000
FF0000
FF0000
FE0000
000000
000000
100000
780000
FC0000
FC0000
780000
380000
700000
E00000
800000
ENDCHAR
STARTCHAR Rcaron
ENCODING 344
SWIDTH 633 0
DWIDTH 24 0
BBX 24 33 0 0
BITMAP
00E01E
00703C
007878
003DF0
003FE0
001FC0
001F80
000000
000000
07FFF0
07FFFC
07FFFE
0FF8FE
0FF0FF
0FF0FF
0FF0FF
0FF0FE
1FF0FE
1FE1FE
1FE3FC
1FFFF8
3FFFE0
3FFFE0
3FDFE0
3FCFE0
3FCFF0
7FCFF0
7F8FF8
7F87F8
7F87F8
7F87FC
FF83FC
FF03FE
ENDCHAR
STARTCHAR rcaron
ENCODING 345
SWIDTH 483 0
DWIDTH 18 0
BBX 20 24 0 0
BITMAP
0780F0
03C3C0
01E780
01FF00
00FE00
000000
000000
1F87E0
1FCFE0
1FDFC0
3FFFC0
3FEFC0
3FC7C0
3FC7C0
3F8780
7F8780
7F8000
7F8000
7F8000
7F0000
FF0000
FF0000
FF0000
FE0000
ENDCHAR
STARTCHAR Sacute
ENCODING 346
SWIDTH 587 0
DWIDTH 22 0
BBX 24 33 0 0
BITMAP
00007F
00007E
0000F8
0001F0
0001E0
0003C0
000000
000000
000000
001FE0
01FFFC
03FFFE
0FE1FC
0FC1FC
1FC1FC
1FC1F8
3FE000
3FF000
1FFF00
1FFFE0
1FFFF0
0FFFF8
03FFF8
007FF8
000FF8
0007F8
7F07F8
7F07F8
FF07F0
FF0FF0
FFFFE0
7FFF80
0FFC00
ENDCHAR
STARTCHAR sacute
ENCODING 347
SWIDTH 487 0
DWIDTH 19 0
BBX 20 24 -1 0
BITMAP
0007F0
000FC0
000F80
001E00
003C00
000000
000000
01FF00
07FFC0
0FFFC0
1FC7C0
3FC7C0
3FC000
3FF000
3FFE00
1FFF80
0FFFC0
01FFC0
007FC0
7C3FC0
7C3F80
7FFF80
FFFF00
1FF800
ENDCHAR
STARTCHAR Scircumflex
ENCODING 348
SWIDTH 587 0
DWIDTH 22 0
BBX 23 33 0 0
BITMAP
0003F0
0007F8
000FF8
001F3C
003C1C
00780E
000000
000000
000000
001FE0
01FFFC
03FFFE
0FE1FC
0FC1FC
1FC1FC
1FC1F8
3FE000
3FF000
1FFF00
1FFFE0
1FFFF0
0FFFF8
03FFF8
007FF8
000FF8
0007F8
7F07F8
7F07F8
FF07F0
FF0FF0
FFFFE0
7FFF80
0FFC00
ENDCHAR
STARTCHAR scircumflex
ENCODING 349
SWIDTH 487 0
DWIDTH 19 0
BBX 19 24 -1 0
BITMAP
003F00
00FF80
01F780
03C3C0
0781E0
080000
000000
01FF00
07FFC0
0FFFC0
1FC7C0
3FC7C0
3FC000
3FF000
3FFE00
1FFF80
0FFFC0
01FFC0
007FC0
7C3FC0
7C3F80
7FFF80
FFFF00
1FF800
ENDCHAR
STARTCHAR uni015E
ENCODING 350
SWIDTH 587 0
DWIDTH 22 0
BBX 23 32 0 -8
BITMAP
001FE0
00FFFC
03FFFE
07E1FC
0FC1FC
1FC1FC
1FC1F8
3FC000
3FF000
1FFF00
1FFFE0
1FFFF0
0FFFF8
03FFF8
00FFF8
001FF8
0007F8
7F07F8
7F07F8
FF07F0
FF0FF0
FFFFE0
FFFF80
1FFE00
03C000
078000
0F0000
1F0000
1F2000
1FF000
1FE000
0F8000
ENDCHAR
STARTCHAR uni015F
ENCODING 351
SWIDTH 487 0
DWIDTH 19 0
BBX 18 25 -1 -8
BITMAP
01FF00
07FFC0
0FFFC0
1FC7C0
3FC7C0
3FC000
3FF000
3FFE00
1FFF80
0FFF80
01FFC0
007FC0
7C3FC0
7C3FC0
7E7F80
FFFF00
1FFC00
078000
0F0000
1F0000
1E0000
3E2000
3FE000
1FE000
0F8000
ENDCHAR
STARTCHAR Scaron
ENCODING 352
SWIDTH 587 0
DWIDTH 22 0
BBX 23 33 0 0
BITMAP
00700E
00783C
003C78
001CF0
001FE0
000FC0
000000
000000
000000
001FE0
01FFFC
03FFFE
0FE1FC
0FC1FC
1FC1FC
1FC1F8
3FE000
3FF000
1FFF00
1FFFE0
1FFFF0
0FFFF8
03FFF8
007FF8
000FF8
0007F8
7F07F8
7F07F8
FF07F0
FF0FF0
FFFFE0
7FFF80
0FFC00
ENDCHAR
STARTCHAR scaron
ENCODING 353
SWIDTH 487 0
DWIDTH 19 0
BBX 20 24 -1 0
BITMAP
0380F0
01C1E0
01E7C0
00FF80
007F00
000000
000000
01FF00
07FFC0
0FFFC0
1FC7C0
3FC7C0
3FC000
3FF000
3FFE00
1FFF80
0FFFC0
01FFC0
007FC0
7C3FC0
7C3F80
7FFF80
FFFF00
1FF800
ENDCHAR
STARTCHAR uni0162
ENCODING 354
SWIDTH 555 0
DWIDTH 21 0
BBX 22 32 2 -8
BITMAP
7FFFFC
7FFFF8
7FFFF8
01FE00
03FE00
03FC00
03FC00
03FC00
03FC00
07FC00
07F800
07F800
07F800
07F800
0FF800
0FF000
0FF000
0FF000
1FF000
1FE000
1FE000
1FE000
1FE000
3FE000
0F0000
3C0000
7C0000
780000
F88000
FF8000
7F8000
3E0000
ENDCHAR
STARTCHAR uni0163
ENCODING 355
SWIDTH 393 0
DWIDTH 15 0
BBX 14 30 1 -8
BITMAP
00F8
01F0
03F0
07F0
1FF0
7FFC
FFFC
FFFC
1FE0
1FE0
1FC0
3FC0
3FC0
3FC0
3FC0
3F80
7F80
7F80
7F80
7FF0
3FE0
1FE0
3E00
7800
F800
F800
F900
FF80
FE00
1000
ENDCHAR
STARTCHAR Tcaron
ENCODING 356
SWIDTH 555 0
DWIDTH 21 0
BBX 21 33 3 0
BITMAP
0700F0
0381E0
03C3C0
01EF80
01FF00
00FE00
00FC00
000000
000000
FFFFF8
FFFFF0
FFFFF0
03FC00
07FC00
07F800
07F800
07F800
07F800
0FF800
0FF000
0FF000
0FF000
0FF000
1FF000
1FE000
1FE000
1FE000
3FE000
3FC000
3FC000
3FC000
3FC000
7FC000
ENDCHAR
STARTCHAR tcaron
ENCODING 357
SWIDTH 473 0
DWIDTH 18 0
BBX 22 25 1 0
BITMAP
000078
0000FC
0000FC
00F9FC
01F0FC
03F038
07F070
1FF0E0
7FFDC0
FFFD00
FFFC00
1FE000
1FE000
1FC000
3FC000
3FC000
3FC000
3FC000
3F8000
7F8000
7F8000
7F8000
7FF000
3FE000
1FE000
ENDCHAR
STARTCHAR Tbar
ENCODING 358
SWIDTH 559 0
DWIDTH 21 0
BBX 21 24 3 0
BITMAP
FFFFF8
FFFFF8
FFFFF0
03FC00
07FC00
07F800
07F800
07F800
07F800
3FFE00
3FFE00
7FFE00
0FF000
0FF000
1FF000
1FE000
1FE000
1FE000
3FE000
3FE000
3FC000
3FC000
3FC000
7FC000
ENDCHAR
STARTCHAR tbar
ENCODING 359
SWIDTH 394 0
DWIDTH 15 0
BBX 15 22 0 0
BITMAP
007C
00F8
01F8
03F8
0FF8
3FFE
7FFE
7FFE
0FF0
0FF0
0FE0
7FFC
FFFC
FFFC
1FE0
1FC0
3FC0
3FC0
3FC0
3FF8
1FF0
0FF0
ENDCHAR
STARTCHAR Utilde
ENCODING 360
SWIDTH 630 0
DWIDTH 24 0
BBX 24 33 1 0
BITMAP
001F83
003FFE
007FFE
00FFFC
0041F8
000000
000000
000000
000000
0FF007
0FF00F
1FF00F
1FF00E
1FF00E
1FE01E
3FE01E
3FE01E
3FE01C
3FC01C
3FC03C
7FC03C
7FC038
7FC038
7F8038
7F8078
FF8078
FF8070
FF80F0
FF80E0
7FC1E0
7FFFC0
3FFF00
07F800
ENDCHAR
STARTCHAR utilde
ENCODING 361
SWIDTH 585 0
DWIDTH 22 0
BBX 22 24 0 0
BITMAP
007FFC
00FFF8
01FFF0
03FFE0
000000
000000
000000
1FE3FC
1FC3FC
3FC3F8
3FC7F8
3FC7F8
3FC7F8
3F87F8
7F87F0
7F8FF0
7F8FF0
7F8FF0
7F0FF0
FF1FE0
FFBFE0
7FEFE0
7FCFE0
1F0FE0
ENDCHAR
STARTCHAR Umacron
ENCODING 362
SWIDTH 630 0
DWIDTH 24 0
BBX 24 31 1 0
BITMAP
003FFE
007FFE
007FFE
000000
000000
000000
000000
0FF007
0FF00F
1FF00F
1FF00E
1FF00E
1FE01E
3FE01E
3FE01E
3FE01C
3FC01C
3FC03C
7FC03C
7FC038
7FC038
7F8038
7F8078
FF8078
FF8070
FF80F0
FF80E0
7FC1E0
7FFFC0
3FFF00
07F800
ENDCHAR
STARTCHAR umacron
ENCODING 363
SWIDTH 585 0
DWIDTH 22 0
BBX 22 24 0 0
BITMAP
01FFF8
01FFF0
01FFF0
020000
000000
000000
000000
1FE3FC
1FC3FC
3FC3F8
3FC7F8
3FC7F8
3FC7F8
3F87F8
7F87F0
7F8FF0
7F8FF0
7F8FF0
7F0FF0
FF1FE0
FFBFE0
7FEFE0
7FCFE0
1F0FE0
ENDCHAR
STARTCHAR Ubreve
ENCODING 364
SWIDTH 630 0
DWIDTH 24 0
BBX 24 33 1 0
BITMAP
000004
00300C
00383C
001FF8
000FE0
000300
000000
000000
000000
0FF007
0FF00F
1FF00F
1FF00E
1FF00E
1FE01E
3FE01E
3FE01E
3FE01C
3FC01C
3FC03C
7FC03C
7FC038
7FC038
7F8038
7F8078
FF8078
FF8070
FF80F0
FF80E0
7FC1E0
7FFFC0
3FFF00
07F800
ENDCHAR
STARTCHAR ubreve
ENCODING 365
SWIDTH 585 0
DWIDTH 22 0
BBX 22 25 0 0
BITMAP
000020
00C070
00E0E0
007FE0
007F80
000C00
000000
000000
1FE3FC
1FC3FC
3FC3F8
3FC7F8
3FC7F8
3FC7F8
3F87F8
7F87F0
7F8FF0
7F8FF0
7F8FF0
7F0FF0
FF1FE0
FFBFE0
7FEFE0
7FCFE0
1F0FE0
ENDCHAR
STARTCHAR Uring
ENCODING 366
SWIDTH 630 0
DWIDTH 24 0
BBX 24 34 1 0
BITMAP
000080
0003E0
0007F0
000630
000670
0007F0
0003E0
000080
000000
000000
0FF007
0FF00F
1FF00F
1FF00E
1FF00E
1FE01E
3FE01E
3FE01E
3FE01C
3FC01C
3FC03C
7FC03C
7FC038
7FC038
7F8038
7F8078
FF8078
FF8070
FF80F0
FF80E0
7FC1E0
7FFFC0
3FFF00
07F800
ENDCHAR
STARTCHAR uring
ENCODING 367
SWIDTH 585 0
DWIDTH 22 0
BBX 22 25 0 0
BITMAP
000F00
001F80
003F80
003180
003F80
001F00
000400
000000
1FE3FC
1FC3FC
3FC3F8
3FC7F8
3FC7F8
3FC7F8
3F87F8
7F87F0
7F8FF0
7F8FF0
7F8FF0
7F0FF0
FF1FE0
FFBFE0
7FEFE0
7FCFE0
1F0FE0
ENDCHAR
STARTCHAR Uhungarumlaut
ENCODING 368
SWIDTH 630 0
DWIDTH 24 0
BBX 28 33 1 0
BITMAP
0007E7F0
000FC7C0
001F0F80
003E1F00
003C3E00
00707800
00000000
00000000
00000000
0FF00700
0FF00F00
1FF00F00
1FF00E00
1FF00E00
1FE01E00
3FE01E00
3FE01E00
3FE01C00
3FC01C00
3FC03C00
7FC03C00
7FC03800
7FC03800
7F803800
7F807800
FF807800
FF807000
FF80F000
FF80E000
7FC1E000
7FFFC000
3FFF0000
07F80000
ENDCHAR
STARTCHAR uhungarumlaut
ENCODING 369
SWIDTH 585 0
DWIDTH 22 0
BBX 26 24 0 0
BITMAP
003F9FC0
007E3F00
007C7E00
00F07800
01E0F000
03C1E000
00000000
1FE3FC00
1FC3FC00
3FC3F800
3FC7F800
3FC7F800
3FC7F800
3F87F800
7F87F000
7F8FF000
7F8FF000
7F8FF000
7F0FF000
FF1FE000
FFBFE000
7FEFE000
7FCFE000
1F0FE000
ENDCHAR
STARTCHAR Uogonek
ENCODING 370
SWIDTH 630 0
DWIDTH 24 0
BBX 24 32 1 -8
BITMAP
0FF007
0FF00F
1FF00F
1FF00E
1FF00E
1FE00E
3FE01E
3FE01E
3FE01C
3FC01C
3FC03C
7FC03C
7FC038
7FC038
7F8038
7F8078
FF8078
FF8070
FF8070
FF80E0
7FC1E0
7FFFC0
3FFF80
1FFE00
01C000
078000
0F0000
1F0000
1F1000
1FF000
1FE000
0F8000
ENDCHAR
STARTCHAR uogonek
ENCODING 371
SWIDTH 585 0
DWIDTH 22 0
BBX 22 25 0 -8
BITMAP
1FE3FC
1FC3FC
3FC3F8
3FC7F8
3FC7F8
3FC7F8
3F87F8
7F87F0
7F8FF0
7F8FF0
7F8FF0
7F0FF0
FF0FE0
FF1FE0
7FFFE0
7FCFE0
1F0FE0
000780
001F00
001E00
003E00
003E40
003FE0
003FC0
001F00
ENDCHAR
STARTCHAR Wcircumflex
ENCODING 372
SWIDTH 944 0
DWIDTH 36 0
BBX 35 33 3 0
BITMAP
00001F8000
00003F8000
00007FC000
0000F9C000
0001E1E000
0003C0E000
0003807000
0000000000
0000000000
FF80FF01E0
FF80FF01E0
FF81FF03C0
FF81FF03C0
FF83FF0780
FF83FF0780
FF83FF0780
FFC7FF0F00
7FC7FF0F00
7FC7FF1E00
7FCFFF1E00
7FCFFF1E00
7FDFFF3C00
7FDE7FBC00
7FDE7FF800
7FFC7FF800
7FFC7FF800
7FF87FF000
7FF87FF000
7FF87FE000
7FF07FE000
7FF07FE000
7FE07FC000
3FE07FC000
ENDCHAR
STARTCHAR wcircumflex
ENCODING 373
SWIDTH 831 0
DWIDTH 32 0
BBX 31 24 1 0
BITMAP
0000FC00
0003FE00
0007CE00
000F0700
001E0380
00000000
00000000
FF03FC1E
7F83FC1E
7F87FC3C
7F87FC3C
7F8FFC38
7F8FFC78
7F8FFC78
7F9FFCF0
3F9FFCF0
3F9DFEE0
3FFDFFE0
3FF9FFC0
3FF9FFC0
3FF1FF80
3FF0FF80
1FE0FF80
1FE0FF00
ENDCHAR
STARTCHAR Ycircumflex
ENCODING 374
SWIDTH 570 0
DWIDTH 22 0
BBX 21 33 3 0
BITMAP
001F80
003F80
007FC0
00F9C0
00F0E0
01C0F0
038070
000000
000000
FF8078
FF80F8
7FC0F0
7FC1E0
7FC1E0
7FE3C0
3FE380
3FE780
3FEF00
3FFE00
1FFE00
1FFC00
1FF800
1FF800
0FF000
1FF000
1FE000
1FE000
1FE000
1FE000
3FE000
3FC000
3FC000
3FC000
ENDCHAR
STARTCHAR ycircumflex
ENCODING 375
SWIDTH 517 0
DWIDTH 20 0
BBX 23 30 -2 -6
BITMAP
0007F0
000FF8
001F78
003C3C
00F01E
000000
000000
0FF03E
0FF03C
0FF078
0FF078
0FF0F0
0FF0F0
0FF1E0
07F1E0
07F3C0
07F380
07FF80
07FF00
07FF00
07FE00
07FE00
03FC00
03FC00
03F800
03F000
07F000
FFE000
FF8000
FE0000
ENDCHAR
STARTCHAR Ydieresis
ENCODING 376
SWIDTH 570 0
DWIDTH 22 0
BBX 21 32 3 0
BITMAP
00E0E0
01F1F0
03F3F0
03F3F0
01F1F0
01E1E0
000000
000000
FF8078
FF80F8
7FC0F0
7FC1E0
7FC1E0
7FE3C0
3FE380
3FE780
3FEF00
3FFE00
1FFE00
1FFC00
1FF800
1FF800
0FF000
1FF000
1FE000
1FE000
1FE000
1FE000
3FE000
3FC000
3FC000
3FC000
ENDCHAR
STARTCHAR Zacute
ENCODING 377
SWIDTH 553 0
DWIDTH 21 0
BBX 23 33 -1 0
BITMAP
0000FE
0001F8
0001F0
0003E0
0003C0
000780
000F00
000000
000000
0FFFFE
0FFFFE
0FFFFE
0007FE
000FFC
001FF8
001FF8
003FF0
007FE0
007FC0
00FFC0
01FF80
03FF00
03FF00
07FE00
0FFC00
0FFC00
1FF800
3FF000
3FF000
7FE000
7FFFF0
FFFFF0
FFFFF0
ENDCHAR
STARTCHAR zacute
ENCODING 378
SWIDTH 478 0
DWIDTH 18 0
BBX 20 24 -1 0
BITMAP
0007F0
000FC0
001F00
001E00
003C00
000000
000000
1FFFE0
1FFFE0
1FFFE0
003FC0
007F80
00FF00
01FF00
03FE00
07FC00
0FF800
1FF000
3FE000
3FC000
7FC000
FFFF80
FFFF80
FFFF80
ENDCHAR
STARTCHAR Zdotaccent
ENCODING 379
SWIDTH 553 0
DWIDTH 21 0
BBX 23 33 -1 0
BITMAP
0003C0
000FE0
000FE0
000FE0
000FE0
000FE0
000780
000000
000000
0FFFFE
0FFFFE
0FFFFE
0007FE
000FFC
001FF8
001FF8
003FF0
007FE0
007FE0
00FFC0
01FF80
03FF80
03FF00
07FE00
0FFC00
0FFC00
1FF800
3FF000
3FF000
7FE000
7FFFF0
FFFFF0
FFFFF0
ENDCHAR
STARTCHAR zdotaccent
ENCODING 380
SWIDTH 478 0
DWIDTH 18 0
BBX 19 24 -1 0
BITMAP
001E00
003F00
007F80
007F80
007F00
007F00
003E00
1FFFE0
1FFFE0
1FFFE0
003FC0
007F80
00FF00
01FF00
03FE00
07FC00
0FF800
1FF000
3FE000
3FC000
7FC000
FFFF80
FFFF80
FFFF80
ENDCHAR
STARTCHAR Zcaron
ENCODING 381
SWIDTH 553 0
DWIDTH 21 0
BBX 24 33 -1 0
BITMAP
007007
00381E
001C3C
001E78
000FF0
000FE0
0007C0
000000
000000
0FFFFE
0FFFFE
0FFFFE
0007FE
000FFC
001FF8
001FF8
003FF0
007FE0
007FE0
00FFC0
01FF80
03FF80
03FF00
07FE00
0FFC00
0FFC00
1FF800
3FF000
3FF000
7FE000
7FFFF0
FFFFF0
FFFFF0
ENDCHAR
STARTCHAR zcaron
ENCODING 382
SWIDTH 478 0
DWIDTH 18 0
BBX 21 24 -1 0
BITMAP
03C078
01E1E0
00F7C0
007F80
007F00
000000
000000
1FFFE0
1FFFE0
1FFFE0
003FC0
007F80
00FF00
01FF00
03FE00
07FC00
0FF800
1FF000
3FE000
3FC000
7FC000
FFFF80
FFFF80
FFFF80
ENDCHAR
STARTCHAR Schwa
ENCODING 399
SWIDTH 646 0
DWIDTH 25 0
BBX 23 24 1 0
BITMAP
00FFC0
07FFF0
1FFFF8
1FF1FC
1FE1FC
1FC1FE
1F81FE
3F81FE
0001FE
0001FE
7FFFFE
FFFFFE
FFFFFE
FF03FE
FF03FE
FE07FC
FE07FC
FE07F8
FE0FF8
FE0FF0
FF1FE0
7FFFC0
3FFF00
0FF800
ENDCHAR
STARTCHAR florin
ENCODING 402
SWIDTH 507 0
DWIDTH 19 0
BBX 26 33 -4 -6
BITMAP
00007F80
0001FFC0
0003FFC0
0007FFC0
000FF000
001FE000
001FE000
001FC000
003FC000
003FC000
01FFFC00
01FFFC00
01FFF800
007F8000
007F8000
007F8000
007F8000
007F0000
00FF0000
00FF0000
00FF0000
00FF0000
00FE0000
01FE0000
01FE0000
01FE0000
01FC0000
03FC0000
03F80000
07F80000
7FE00000
7FC00000
FE000000
ENDCHAR
STARTCHAR uni01C4
ENCODING 452
SWIDTH 1188 0
DWIDTH 45 0
BBX 46 33 0 0
BITMAP
00000001C038
00000001C0F0
00000000E1E0
00000000F3C0
000000007F80
000000007F00
000000003F00
000000000000
000000000000
07FFF01FFFFC
07FFFC1FFFFC
07FFFE1FFFFC
0FF8FF000FFC
0FF07F001FF8
0FF07F003FF0
0FF07F803FF0
0FF07F807FE0
1FF0FF80FFC0
1FE0FF80FFC0
1FE0FF81FF80
1FE0FF83FF00
3FE0FF03FF00
3FE0FF07FE00
3FC1FF0FFC00
3FC1FF0FFC00
3FC1FE1FF800
7FC3FE3FF000
7F83FC7FF000
7F87FC7FE000
7F8FF8FFC000
7FFFE0FFFFF0
FFFFC0FFFFE0
FFFE01FFFFE0
ENDCHAR
STARTCHAR uni01C5
ENCODING 453
SWIDTH 1131 0
DWIDTH 43 0
BBX 43 24 0 0
BITMAP
07FFF00701E0
07FFFC038380
07FFFE03CF00
0FF8FF01FE00
0FF07F01FC00
0FF07F000000
0FF07F800000
0FF07F9FFFE0
1FF0FF9FFFE0
1FE0FF9FFFE0
1FE0FF807FC0
1FE0FF807F80
3FE0FF00FF00
3FE0FF01FE00
3FC1FF03FC00
3FC1FF07FC00
3FC1FE0FF800
7FC3FE1FF000
7F83FC3FE000
7F87FC7FC000
7F8FF8FF8000
7FFFE0FFFF80
FFFFC0FFFF80
FFFE00FFFF80
ENDCHAR
STARTCHAR uni01C6
ENCODING 454
SWIDTH 1063 0
DWIDTH 40 0
BBX 40 26 0 0
BITMAP
0000FF0000
0001FE0000
0001FE380F
0001FE1C1E
0001FE0E7C
0001FC0FF8
0003FC07F0
0003FC0000
0003FC0000
03E3FCFFFF
0FFBF8FFFF
1FFFF8FFFF
3FFFF801FE
3FC7F803FC
7F87F807FC
7F87F00FF8
7F8FF01FF0
7F0FF03FE0
FF0FF07FC0
FF0FF07F80
FF0FE0FF00
FF1FE1FF00
FF3FE3FE00
7FFFE7FFFC
7FCFC7FFFC
1F0FC7FFFC
ENDCHAR
STARTCHAR uni01C7
ENCODING 455
SWIDTH 1069 0
DWIDTH 41 0
BBX 42 24 0 0
BITMAP
07F800007FC0
07F800007F80
07F800007F80
0FF800007F80
0FF000007F80
0FF00000FF80
0FF00000FF00
0FF00000FF00
1FF00000FF00
1FE00001FF00
1FE00001FE00
1FE00001FE00
3FE00001FE00
3FE00001FE00
3FC00003FE00
3FC01FC3FC00
3FC03FC3FC00
7FC03F83FC00
7F803F87FC00
7F803F87F800
7F803FC7F000
7FFFBFFFE000
FFFF0FFFC000
FFFF03FE0000
ENDCHAR
STARTCHAR uni01C8
ENCODING 456
SWIDTH 763 0
DWIDTH 29 0
BBX 30 30 0 -6
BITMAP
07F800F0
07F803F8
07F803FC
0FF803FC
0FF003F8
0FF001F0
0FF00000
0FF007F8
1FF007F0
1FE00FF0
1FE00FF0
1FE00FF0
3FE00FF0
3FE00FE0
3FC01FE0
3FC01FE0
3FC01FE0
7FC01FE0
7F801FC0
7F803FC0
7F803FC0
7FFFBFC0
FFFF3F80
FFFF7F80
00007F80
00007F00
0000FF00
0003FE00
0003F800
0003E000
ENDCHAR
STARTCHAR uni01C9
ENCODING 457
SWIDTH 579 0
DWIDTH 22 0
BBX 23 32 0 -6
BITMAP
07F800
07F800
0FF078
0FF0FC
0FF1FE
0FF1FE
0FE1FC
1FE1FC
1FE0F8
1FE3FC
1FE3F8
1FC7F8
3FC7F8
3FC7F8
3FC7F8
3FC7F0
3F8FF0
7F8FF0
7F8FF0
7F8FF0
7F8FE0
7F1FE0
FF1FE0
FF1FE0
FF1FC0
FE3FC0
003FC0
003F80
007F80
01FF00
01FC00
01F000
ENDCHAR
STARTCHAR uni01CA
ENCODING 458
SWIDTH 1229 0
DWIDTH 47 0
BBX 48 24 0 0
BITMAP
07FC038001FF
07FE038001FF
07FE078001FE
0FFE078001FE
0FFE070001FE
0FFE070003FE
0FFF070003FC
0FFF0F0003FC
1EFF0F0003FC
1EFF0E0003FC
1CFF8E0007FC
1CFF9E0007F8
3C7F9E0007F8
3C7F9E0007F8
387FDC000FF8
387FDC7F0FF0
383FFCFF0FF0
783FFCFE0FF0
783FF8FE0FF0
703FF8FE1FE0
701FF8FF1FE0
701FF87FFFC0
F01FF83FFF00
F01FF00FF800
ENDCHAR
STARTCHAR uni01CB
ENCODING 459
SWIDTH 923 0
DWIDTH 35 0
BBX 36 30 0 -6
BITMAP
07FC0383C0
07FE038FE0
07FE078FF0
0FFE078FF0
0FFE070FE0
0FFE0707C0
0FFF070000
0FFF0F1FE0
1EFF0F1FE0
1CFF0E3FC0
1CFF8E3FC0
1CFF9E3FC0
3C7F9E3FC0
3C7F9E3F80
387FDC7F80
387FDC7F80
383FFC7F80
783FFC7F80
783FF87F00
703FF8FF00
701FF8FF00
701FF8FF00
F01FF8FF00
F01FF0FE00
000001FE00
000001FC00
000003FC00
00000FF800
00000FE000
00000F8000
ENDCHAR
STARTCHAR uni01CC
ENCODING 460
SWIDTH 875 0
DWIDTH 33 0
BBX 34 30 0 -6
BITMAP
0000000F00
0000001F80
0000003FC0
0000003FC0
0000003FC0
0000003F80
0000000F00
1F83E07F80
1FCFF07F80
1FFFF87F00
3FE7F8FF00
3FC7F8FF00
3FC7F8FF00
3FC7F8FF00
3F87F8FE00
7F87F1FE00
7F8FF1FE00
7F8FF1FE00
7F8FF1FE00
7F0FF1FC00
FF0FE3FC00
FF1FE3FC00
FF1FE3FC00
FE1FE3F800
000003F800
000007F800
000007F000
00001FE000
00003FC000
00003E0000
ENDCHAR
STARTCHAR Oogonek
ENCODING 490
SWIDTH 685 0
DWIDTH 26 0
BBX 25 32 1 -8
BITMAP
003FE000
01FFF800
03FFFC00
07F8FE00
0FF0FF00
1FF0FF00
3FE0FF00
3FE0FF80
7FC0FF80
7FC0FF80
7FC0FF80
7F80FF80
FF80FF00
FF81FF00
FF81FF00
FF81FF00
FF83FE00
7F83FE00
7F83FC00
7F87F800
3F8FF800
3FFFF000
1FFFC000
03FF0000
03C00000
07800000
0F800000
0F800000
0F900000
0FF80000
0FE00000
02000000
ENDCHAR
STARTCHAR oogonek
ENCODING 491
SWIDTH 575 0
DWIDTH 22 0
BBX 21 25 0 -8
BITMAP
00FF00
07FFC0
0FFFE0
1FC7F0
3FC7F0
7F87F8
7F87F8
7F87F8
7F07F8
FF0FF8
FF0FF0
7F0FF0
7F0FE0
7F1FE0
3FFFC0
1FFF80
07FC00
03C000
0F8000
1F0000
1F0000
1F2000
1FF000
1FC000
020000
ENDCHAR
STARTCHAR uni01F1
ENCODING 497
SWIDTH 1194 0
DWIDTH 45 0
BBX 47 24 0 0
BITMAP
07FFF00FFFFE
07FFFC1FFFFC
07FFFE1FFFFC
0FF8FF000FFC
0FF07F001FF8
0FF07F001FF8
0FF07F803FF0
0FF07F807FE0
1FF0FF807FE0
1FE0FF80FFC0
1FE0FF81FF80
1FE0FF81FF80
3FE0FF03FF00
3FE0FF07FE00
3FC1FF0FFE00
3FC1FF0FFC00
3FC1FE1FF800
7FC3FE3FF000
7F83FC3FF000
7F87FC7FE000
7F8FF8FFC000
7FFFE0FFFFF0
FFFFC0FFFFF0
FFFE00FFFFE0
ENDCHAR
STARTCHAR uni01F2
ENCODING 498
SWIDTH 1131 0
DWIDTH 43 0
BBX 43 24 0 0
BITMAP
07FFF0000000
07FFFC000000
07FFFE000000
0FF8FF000000
0FF07F000000
0FF07F000000
0FF07F800000
0FF07F9FFFE0
1FF0FF9FFFE0
1FE0FF9FFFE0
1FE0FF807FC0
1FE0FF807F80
3FE0FF00FF00
3FE0FF01FE00
3FC1FF03FC00
3FC1FF07FC00
3FC1FE0FF800
7FC3FE1FF000
7F83FC3FE000
7F87FC7FC000
7F8FF8FF8000
7FFFE0FFFF80
FFFFC0FFFF80
FFFE00FFFF80
ENDCHAR
STARTCHAR uni01F3
ENCODING 499
SWIDTH 1063 0
DWIDTH 40 0
BBX 40 26 0 0
BITMAP
0000FF0000
0001FE0000
0001FE0000
0001FE0000
0001FE0000
0001FC0000
0003FC0000
0003FC0000
0003FC0000
03E3FCFFFF
0FFBF8FFFF
1FFFF8FFFF
3FFFF801FE
3FC7F803FC
7F87F807FC
7F87F00FF8
7F8FF01FF0
7F0FF03FE0
FF0FF07FC0
FF0FF07F80
FF0FE0FF00
FF1FE1FF00
FF3FE3FE00
7FFFE7FFFC
7FCFC7FFFC
1F0FC7FFFC
ENDCHAR
STARTCHAR Aringacute
ENCODING 506
SWIDTH 602 0
DWIDTH 23 0
BBX 24 38 -2 0
BITMAP
00001F
00001E
00003C
000078
000070
0000E0
000080
0003E0
0007F0
000630
000670
0007F0
0003E0
000080
001FF0
001FF8
003FF8
003FF8
007FF8
007FF8
00F7F8
00E7F8
01E7F8
01C7F8
01C7FC
03C7FC
0387FC
0787FC
0707FC
0FFFFC
0FFFFC
1FFFFC
1C03FC
3C03FE
3803FE
7803FE
7803FE
F003FE
ENDCHAR
STARTCHAR aringacute
ENCODING 507
SWIDTH 552 0
DWIDTH 21 0
BBX 22 33 -1 0
BITMAP
0000FC
0001F8
0001F0
0003E0
000780
000F00
000000
000000
000E00
003F00
003F80
003380
003F00
003F00
000800
000000
00FF80
07FFE0
0FFFF0
1F87F0
1F87F0
0007F8
0007F0
07FFF0
1FFFF0
7F8FF0
7F0FF0
7F0FF0
FF0FE0
7FBFE0
7FFFE0
3FCFE0
1F0FE0
ENDCHAR
STARTCHAR AEacute
ENCODING 508
SWIDTH 814 0
DWIDTH 31 0
BBX 35 33 -2 0
BITMAP
0000001FC0
0000001F80
0000003F00
0000003C00
0000007800
000000F000
000000E000
0000000000
0000000000
00007FFFE0
00007FFFE0
0000FFFFC0
0001FFC000
0003BFC000
0003BFC000
00077FC000
000E7FC000
001C7F8000
001C7F8000
00387FFE00
0070FFFE00
00E0FFFE00
00FFFF0000
01FFFF0000
03FFFF0000
0701FF0000
0701FE0000
0E01FE0000
1C01FE0000
3C03FE0000
3803FFFC00
7003FFFC00
F003FFFC00
ENDCHAR
STARTCHAR aeacute
ENCODING 509
SWIDTH 830 0
DWIDTH 32 0
BBX 31 24 0 0
BITMAP
00003F80
00003E00
00007C00
0000F800
0001E000
00000000
00000000
03FE1FE0
1FFFFFF8
1FFFFFFC
3F0FF8FE
3F0FF0FE
000FF0FE
000FF0FE
0FFFFFFC
3FFFFFFC
FF1FE000
FE1FE000
FE1FE1F8
FE3FE1F8
FFFFE3F8
FFF7FFF8
7FC3FFF0
3F00FF80
ENDCHAR
STARTCHAR Oslashacute
ENCODING 510
SWIDTH 685 0
DWIDTH 26 0
BBX 25 34 1 -1
BITMAP
00007E00
0000FC00
0000F800
0001F000
0003C000
00078000
00000000
00000000
00000200
003FE600
01FFFF00
03FFFE00
0FF8FE00
0FF0FF00
1FF0FF00
3FE0FF00
3FE1FF80
7FC3FF80
7FC7FF80
7FCFFF80
7F9EFF80
FFBCFF00
FFF9FF00
FFF1FF00
FFE1FF00
FFC3FE00
7F83FE00
7F87FC00
7F87F800
3F8FF800
3FFFF000
7FFFC000
73FE0000
20000000
ENDCHAR
STARTCHAR oslashacute
ENCODING 511
SWIDTH 575 0
DWIDTH 22 0
BBX 21 25 0 -1
BITMAP
0007F0
0007C0
000F80
001F00
003C00
000000
000040
00FFE0
07FFC0
0FFFE0
1FC7F0
3FC7F0
7F8FF8
7F9FF8
7FBFF8
FF37F8
FF6FF0
FFCFF0
7FCFF0
7F8FE0
7F1FE0
3FFFC0
1FFF00
1FFC00
380000
ENDCHAR
STARTCHAR uni0218
ENCODING 536
SWIDTH 587 0
DWIDTH 22 0
BBX 23 35 0 -11
BITMAP
001FE0
01FFFC
03FFFE
0FE1FC
0FC1FC
1FC1FC
1FC1F8
3FE000
3FF000
1FFF00
1FFFE0
1FFFF0
0FFFF8
03FFF8
007FF8
000FF8
0007F8
7F07F8
7F07F8
FF07F0
FF0FF0
FFFFE0
7FFF80
0FFC00
000000
000000
00E000
01F000
03F000
01F000
00E000
00E000
01C000
038000
020000
ENDCHAR
STARTCHAR uni0219
ENCODING 537
SWIDTH 487 0
DWIDTH 19 0
BBX 18 28 -1 -11
BITMAP
01FF00
07FFC0
0FFFC0
1FC7C0
3FC7C0
3FC000
3FF000
3FFE00
1FFF80
0FFFC0
01FFC0
007FC0
7C3FC0
7C3F80
7FFF80
FFFF00
1FF800
000000
000000
03C000
07C000
07C000
03C000
03C000
038000
070000
0E0000
040000
ENDCHAR
STARTCHAR uni021A
ENCODING 538
SWIDTH 555 0
DWIDTH 21 0
BBX 21 35 3 -11
BITMAP
FFFFF8
FFFFF0
FFFFF0
03FC00
07FC00
07F800
07F800
07F800
07F800
0FF800
0FF000
0FF000
0FF000
0FF000
1FF000
1FE000
1FE000
1FE000
3FE000
3FC000
3FC000
3FC000
3FC000
7FC000
000000
000000
080000
1E0000
3E0000
3E0000
1E0000
1E0000
1C0000
780000
200000
ENDCHAR
STARTCHAR uni021B
ENCODING 539
SWIDTH 392 0
DWIDTH 15 0
BBX 14 33 1 -11
BITMAP
00F8
01F0
03F0
07F0
1FF0
7FFC
FFFC
FFFC
1FE0
1FE0
1FC0
3FC0
3FC0
3FC0
3FC0
3F80
7F80
7F80
7F80
7FF0
3FE0
1FE0
0000
0000
0800
3E00
3E00
3E00
1E00
1C00
1C00
3000
6000
ENDCHAR
STARTCHAR dotlessj
ENCODING 567
SWIDTH 294 0
DWIDTH 11 0
BBX 15 23 -4 -6
BITMAP
01FE
01FE
01FC
03FC
03FC
03FC
03FC
07F8
07F8
07F8
07F8
07F0
0FF0
0FF0
0FF0
0FF0
0FE0
1FE0
1FC0
1FC0
FF80
FF00
F800
ENDCHAR
STARTCHAR schwa
ENCODING 601
SWIDTH 547 0
DWIDTH 21 0
BBX 20 17 0 0
BITMAP
03FE00
1FFF80
3FFFC0
3F8FE0
3F0FE0
7F0FF0
000FF0
000FF0
7FFFF0
FFFFE0
FE1FE0
FE1FE0
FE3FC0
FE3FC0
FFFF00
7FFE00
1FF000
ENDCHAR
STARTCHAR apostrophe
ENCODING 700
SWIDTH 328 0
DWIDTH 12 0
BBX 7 9 5 16
BITMAP
3C
7E
7E
7E
7E
3C
38
70
E0
ENDCHAR
STARTCHAR circumflex
ENCODING 710
SWIDTH 430 0
DWIDTH 16 0
BBX 14 6 1 18
BITMAP
07E0
0FF0
1F78
3C38
781C
E01C
ENDCHAR
STARTCHAR caron
ENCODING 711
SWIDTH 430 0
DWIDTH 16 0
BBX 14 6 1 18
BITMAP
E03C
7078
79F0
3FE0
1FC0
1F80
ENDCHAR
STARTCHAR breve
ENCODING 728
SWIDTH 382 0
DWIDTH 15 0
BBX 13 6 1 19
BITMAP
0010
4038
E070
7FE0
7FC0
1F00
ENDCHAR
STARTCHAR dotaccent
ENCODING 729
SWIDTH 257 0
DWIDTH 10 0
BBX 8 7 1 17
BITMAP
3C
7E
FF
FF
FF
FE
7C
ENDCHAR
STARTCHAR ring
ENCODING 730
SWIDTH 257 0
DWIDTH 10 0
BBX 7 8 1 17
BITMAP
3C
7E
7E
E6
E6
7E
7C
10
ENDCHAR
STARTCHAR ogonek
ENCODING 731
SWIDTH 251 0
DWIDTH 10 0
BBX 8 9 1 -8
BITMAP
07
1E
7C
F8
F0
F1
FF
FF
7C
ENDCHAR
STARTCHAR tilde
ENCODING 732
SWIDTH 462 0
DWIDTH 18 0
BBX 16 5 1 19
BITMAP
1F87
3FFE
7FFE
FFFC
41F0
ENDCHAR
STARTCHAR hungarumlaut
ENCODING 733
SWIDTH 592 0
DWIDTH 23 0
BBX 20 6 1 18
BITMAP
0FE7F0
0F8FC0
1F0F80
3E1F00
7C3C00
F07800
ENDCHAR
STARTCHAR uni03BC
ENCODING 956
SWIDTH 589 0
DWIDTH 22 0
BBX 24 23 -2 -6
BITMAP
07F8FF
07F0FF
07F0FF
0FF0FE
0FF1FE
0FF1FE
0FE1FE
1FE1FE
1FE1FC
1FE3FC
1FE3FC
1FC3FC
3FC3FC
3FEFF8
3FFFF8
3FFBF8
3FF3F8
7F0000
7F0000
7F0000
7F0000
7F0000
FF0000
ENDCHAR
STARTCHAR Ddotbelow
ENCODING 7692
SWIDTH 662 0
DWIDTH 25 0
BBX 25 32 0 -8
BITMAP
07FFF000
07FFFC00
07FFFE00
0FF8FF00
0FF07F00
0FF07F00
0FF07F80
0FF07F80
1FF0FF80
1FE0FF80
1FE0FF80
1FE0FF80
3FE0FF00
3FE0FF00
3FC1FF00
3FC1FF00
3FC1FE00
7FC3FE00
7F83FC00
7F87FC00
7F8FF800
7FFFE000
FFFFC000
FFFE0000
00000000
00000000
00000000
03C00000
07E00000
07E00000
07E00000
03C00000
ENDCHAR
STARTCHAR ddotbelow
ENCODING 7693
SWIDTH 577 0
DWIDTH 22 0
BBX 24 34 0 -8
BITMAP
0000FF
0001FE
0001FE
0001FE
0001FE
0001FC
0003FC
0003FC
0003FC
03E3FC
0FF3F8
1FFFF8
3FFFF8
3FCFF8
7F87F8
7F87F0
7F8FF0
7F0FF0
FF0FF0
FF0FF0
FF0FE0
FF1FE0
FF3FE0
7FFFE0
7FCFC0
1F0FC0
000000
000000
000000
01E000
03F000
03F000
03F000
01E000
ENDCHAR
STARTCHAR Hdotbelow
ENCODING 7716
SWIDTH 666 0
DWIDTH 25 0
BBX 26 32 0 -8
BITMAP
07F83FC0
07F83FC0
07F87FC0
0FF87FC0
0FF07F80
0FF07F80
0FF07F80
0FF0FF80
1FF0FF00
1FE0FF00
1FFFFF00
1FFFFF00
3FFFFF00
3FC1FE00
3FC1FE00
3FC1FE00
3FC3FE00
7FC3FE00
7F83FC00
7F83FC00
7F83FC00
7F87FC00
FF87F800
FF07F800
00000000
00000000
00000000
01E00000
03F00000
03F00000
03F00000
01E00000
ENDCHAR
STARTCHAR hdotbelow
ENCODING 7717
SWIDTH 586 0
DWIDTH 22 0
BBX 21 34 0 -8
BITMAP
07F800
07F800
0FF000
0FF000
0FF000
0FF000
0FE000
1FE000
1FE000
1FE3E0
1FEFF0
1FDFF8
3FFFF8
3FE7F8
3FC7F8
3FC7F8
3F87F8
7F87F0
7F8FF0
7F8FF0
7F8FF0
7F0FF0
FF0FE0
FF1FE0
FF1FE0
FE1FE0
000000
000000
000000
03C000
07E000
07E000
07E000
03C000
ENDCHAR
STARTCHAR Ndotaccent
ENCODING 7748
SWIDTH 644 0
DWIDTH 24 0
BBX 25 33 0 0
BITMAP
0001E000
0007F000
0007F000
0007F800
0007F000
0007F000
0003E000
00000000
00000000
07FC0380
07FE0380
07FE0780
0FFE0780
0FFE0700
0FFE0700
0FFF0700
0FFF0F00
1EFF0F00
1EFF0E00
1CFF8E00
1CFF9E00
3C7F9E00
3C7F9E00
387F9C00
387FDC00
383FFC00
783FFC00
783FF800
703FF800
703FF800
701FF800
F01FF800
F01FF000
ENDCHAR
STARTCHAR ndotaccent
ENCODING 7749
SWIDTH 586 0
DWIDTH 22 0
BBX 21 24 0 0
BITMAP
001F00
003F80
003F80
007F80
007F80
003F00
001E00
1F83E0
1FCFF0
1FFFF8
3FE7F8
3FC7F8
3FC7F8
3FC7F8
3F87F8
7F87F0
7F8FF0
7F8FF0
7F8FF0
7F0FF0
FF0FE0
FF1FE0
FF1FE0
FE1FE0
ENDCHAR
STARTCHAR Rdotbelow
ENCODING 7770
SWIDTH 633 0
DWIDTH 24 0
BBX 24 32 0 -8
BITMAP
07FFF0
07FFFC
07FFFE
0FF8FE
0FF0FF
0FF0FF
0FF0FF
0FF0FE
1FF0FE
1FE1FE
1FE3FC
1FFFF8
3FFFE0
3FFFE0
3FDFE0
3FCFE0
3FCFF0
7FCFF0
7F8FF8
7F87F8
7F87F8
7F87FC
FF83FC
FF03FE
000000
000000
000000
00F000
01F800
01F800
01F800
00F000
ENDCHAR
STARTCHAR rdotbelow
ENCODING 7771
SWIDTH 483 0
DWIDTH 18 0
BBX 19 25 0 -8
BITMAP
1F87E0
1FCFE0
1FDFC0
3FFFC0
3FEFC0
3FC7C0
3FC7C0
3F8780
7F8780
7F8000
7F8000
7F8000
7F0000
FF0000
FF0000
FF0000
FE0000
000000
000000
000000
780000
FC0000
FC0000
FC0000
780000
ENDCHAR
STARTCHAR Sdotbelow
ENCODING 7778
SWIDTH 587 0
DWIDTH 22 0
BBX 23 32 0 -8
BITMAP
001FE0
01FFFC
03FFFE
0FE1FC
0FC1FC
1FC1FC
1FC1F8
3FE000
3FF000
1FFF00
1FFFE0
1FFFF0
0FFFF8
03FFF8
007FF8
000FF8
0007F8
7F07F8
7F07F8
FF07F0
FF0FF0
FFFFE0
7FFF80
0FFC00
000000
000000
000000
03C000
07E000
07E000
07E000
03C000
ENDCHAR
STARTCHAR sdotbelow
ENCODING 7779
SWIDTH 487 0
DWIDTH 19 0
BBX 18 25 -1 -8
BITMAP
01FF00
07FFC0
0FFFC0
1FC7C0
3FC7C0
3FC000
3FF000
3FFE00
1FFF80
0FFFC0
01FFC0
007FC0
7C3FC0
7C3F80
7FFF80
FFFF00
1FF800
000000
000000
000000
078000
0FC000
0FC000
0FC000
0F8000
ENDCHAR
STARTCHAR Tdotbelow
ENCODING 7788
SWIDTH 555 0
DWIDTH 21 0
BBX 21 32 3 -8
BITMAP
FFFFF8
FFFFF0
FFFFF0
03FC00
07FC00
07F800
07F800
07F800
07F800
0FF800
0FF000
0FF000
0FF000
0FF000
1FF000
1FE000
1FE000
1FE000
3FE000
3FC000
3FC000
3FC000
3FC000
7FC000
000000
000000
000000
3E0000
7E0000
7E0000
7E0000
3C0000
ENDCHAR
STARTCHAR tdotbelow
ENCODING 7789
SWIDTH 392 0
DWIDTH 15 0
BBX 14 30 1 -8
BITMAP
00F8
01F0
03F0
07F0
1FF0
7FFC
FFFC
FFFC
1FE0
1FE0
1FC0
3FC0
3FC0
3FC0
3FC0
3F80
7F80
7F80
7F80
7FF0
3FE0
1FE0
0000
0000
0000
1E00
3F00
3F00
3F00
1E00
ENDCHAR
STARTCHAR Wgrave
ENCODING 7808
SWIDTH 944 0
DWIDTH 36 0
BBX 35 33 3 0
BITMAP
000FC00000
0007E00000
0003F00000
0001F00000
0000780000
00003C0000
00001C0000
0000000000
0000000000
FF80FF01E0
FF80FF01E0
FF81FF03C0
FF81FF03C0
FF83FF0780
FF83FF0780
FF83FF0780
FFC7FF0F00
7FC7FF0F00
7FC7FF1E00
7FCFFF1E00
7FCFFF1E00
7FDFFF3C00
7FDE7FBC00
7FDE7FF800
7FFC7FF800
7FFC7FF800
7FF87FF000
7FF87FF000
7FF87FE000
7FF07FE000
7FF07FE000
7FE07FC000
3FE07FC000
ENDCHAR
STARTCHAR wgrave
ENCODING 7809
SWIDTH 831 0
DWIDTH 32 0
BBX 31 24 1 0
BITMAP
007F0000
000F8000
0007C000
0003E000
0000F000
00000000
00000000
FF03FC1E
7F83FC1E
7F87FC3C
7F87FC3C
7F8FFC38
7F8FFC78
7F8FFC78
7F9FFCF0
3F9FFCF0
3F9DFEE0
3FFDFFE0
3FF9FFC0
3FF9FFC0
3FF1FF80
3FF0FF80
1FE0FF80
1FE0FF00
ENDCHAR
STARTCHAR Wacute
ENCODING 7810
SWIDTH 944 0
DWIDTH 36 0
BBX 35 33 3 0
BITMAP
000003F000
000007E000
000007C000
00000F8000
00000F0000
00001E0000
00003C0000
0000000000
0000000000
FF80FF01E0
FF80FF01E0
FF81FF03C0
FF81FF03C0
FF83FF0780
FF83FF0780
FF83FF0780
FFC7FF0F00
7FC7FF0F00
7FC7FF1E00
7FCFFF1E00
7FCFFF1E00
7FDFFF3C00
7FDE7FBC00
7FDE7FF800
7FFC7FF800
7FFC7FF800
7FF87FF000
7FF87FF000
7FF87FE000
7FF07FE000
7FF07FE000
7FE07FC000
3FE07FC000
ENDCHAR
STARTCHAR wacute
ENCODING 7811
SWIDTH 831 0
DWIDTH 32 0
BBX 31 24 1 0
BITMAP
00001FC0
00003F00
00003E00
00007800
0000F000
00000000
00000000
FF03FC1E
7F83FC1E
7F87FC3C
7F87FC3C
7F8FFC38
7F8FFC78
7F8FFC78
7F9FFCF0
3F9FFCF0
3F9DFEE0
3FFDFFE0
3FF9FFC0
3FF9FFC0
3FF1FF80
3FF0FF80
1FE0FF80
1FE0FF00
ENDCHAR
STARTCHAR Wdieresis
ENCODING 7812
SWIDTH 944 0
DWIDTH 36 0
BBX 35 32 3 0
BITMAP
0001E0E000
0001F1F000
0003F3F000
0003F3F000
0003F3F000
0001E1E000
0000000000
0000000000
FF80FF01E0
FF80FF01E0
FF81FF03C0
FF81FF03C0
FF83FF0780
FF83FF0780
FF83FF0780
FFC7FF0F00
7FC7FF0F00
7FC7FF1E00
7FCFFF1E00
7FCFFF1E00
7FDFFF3C00
7FDE7FBC00
7FDE7FF800
7FFC7FF800
7FFC7FF800
7FF87FF000
7FF87FF000
7FF87FE000
7FF07FE000
7FF07FE000
7FE07FC000
3FE07FC000
ENDCHAR
STARTCHAR wdieresis
ENCODING 7813
SWIDTH 831 0
DWIDTH 32 0
BBX 31 24 1 0
BITMAP
00078780
000F8F80
000FCFC0
000F8FC0
000F8F80
00070700
00000000
FF03FC1E
7F83FC1E
7F87FC3C
7F87FC3C
7F8FFC38
7F8FFC78
7F8FFC78
7F9FFCF0
3F9FFCF0
3F9DFEE0
3FFDFFE0
3FF9FFC0
3FF9FFC0
3FF1FF80
3FF0FF80
1FE0FF80
1FE0FF00
ENDCHAR
STARTCHAR Zdotbelow
ENCODING 7826
SWIDTH 553 0
DWIDTH 21 0
BBX 23 32 -1 -8
BITMAP
0FFFFE
0FFFFE
0FFFFE
0007FE
000FFC
001FF8
001FF8
003FF0
007FE0
007FE0
00FFC0
01FF80
03FF80
03FF00
07FE00
0FFC00
0FFC00
1FF800
3FF000
3FF000
7FE000
7FFFF0
FFFFF0
FFFFF0
000000
000000
000000
00F000
03F000
03F800
03F000
01E000
ENDCHAR
STARTCHAR zdotbelow
ENCODING 7827
SWIDTH 478 0
DWIDTH 18 0
BBX 19 25 -1 -8
BITMAP
1FFFE0
1FFFE0
1FFFE0
003FC0
007F80
00FF00
01FF00
03FE00
07FC00
0FF800
1FF000
3FE000
3FC000
7FC000
FFFF80
FFFF80
FFFF80
000000
000000
000000
03C000
0FC000
0FE000
0FC000
078000
ENDCHAR
STARTCHAR Edotbelow
ENCODING 7864
SWIDTH 503 0
DWIDTH 19 0
BBX 21 32 0 -8
BITMAP
07FFF8
07FFF8
07FFF8
0FF800
0FF000
0FF000
0FF000
0FF000
1FF000
1FE000
1FFFC0
1FFF80
3FFF80
3FC000
3FC000
3FC000
3FC000
7FC000
7F8000
7F8000
7F8000
7FFF80
FFFF00
FFFF00
000000
000000
000000
078000
0FC000
0FC000
0FC000
078000
ENDCHAR
STARTCHAR edotbelow
ENCODING 7865
SWIDTH 547 0
DWIDTH 21 0
BBX 20 25 0 -8
BITMAP
00FF80
07FFE0
0FFFF0
1FC7F0
3FC7F0
7F87F0
7F87F0
7FFFF0
FFFFE0
FF0000
FF0000
7F0FE0
7F0FC0
7F1FC0
3FFFC0
1FFF80
07FC00
000000
000000
000000
03C000
07E000
07E000
07E000
03C000
ENDCHAR
STARTCHAR Etilde
ENCODING 7868
SWIDTH 503 0
DWIDTH 19 0
BBX 22 33 0 0
BITMAP
007808
00FF1C
01FFF8
01FFF0
038FF0
0103C0
000000
000000
000000
07FFF8
07FFF8
07FFF8
0FF800
0FF000
0FF000
0FF000
0FF000
1FF000
1FE000
1FFFC0
1FFF80
3FFF80
3FC000
3FC000
3FC000
3FC000
7FC000
7F8000
7F8000
7F8000
7FFF80
FFFF00
FFFF00
ENDCHAR
STARTCHAR etilde
ENCODING 7869
SWIDTH 547 0
DWIDTH 21 0
BBX 21 24 0 0
BITMAP
007FF8
01FFF0
03FFE0
07FFC0
000000
000000
000000
00FF80
07FFE0
0FFFF0
1FC7F0
3FC7F0
7F87F0
7F87F0
7FFFF0
FFFFE0
FF0000
FF0000
7F0FE0
7F0FC0
7F1FC0
3FFFC0
1FFF80
07FC00
ENDCHAR
STARTCHAR Idotbelow
ENCODING 7882
SWIDTH 326 0
DWIDTH 12 0
BBX 13 32 0 -8
BITMAP
07F8
07F8
07F8
0FF8
0FF0
0FF0
0FF0
0FF0
1FF0
1FE0
1FE0
1FE0
3FE0
3FC0
3FC0
3FC0
3FC0
7FC0
7F80
7F80
7F80
7F80
FF80
FF00
0000
0000
0000
7800
FC00
FC00
FC00
7800
ENDCHAR
STARTCHAR idotbelow
ENCODING 7883
SWIDTH 293 0
DWIDTH 11 0
BBX 13 32 -1 -8
BITMAP
01E0
03F0
07F8
07F8
07F8
07F0
01E0
0FF0
0FF0
0FE0
1FE0
1FE0
1FE0
1FE0
1FC0
3FC0
3FC0
3FC0
3F80
3F80
7F80
7F80
7F80
7F00
0000
0000
0000
3C00
FC00
FE00
FC00
7800
ENDCHAR
STARTCHAR Odotbelow
ENCODING 7884
SWIDTH 685 0
DWIDTH 26 0
BBX 25 32 1 -8
BITMAP
003FE000
01FFF800
03FFFC00
07F8FE00
0FF0FF00
1FF0FF00
3FE0FF00
3FE0FF80
7FC0FF80
7FC0FF80
7FC0FF80
7F80FF80
FF80FF00
FF81FF00
FF81FF00
FF81FF00
FF83FE00
7F83FE00
7F87FC00
7F87F800
3F8FF800
3FFFF000
0FFFC000
03FE0000
00000000
00000000
00000000
01E00000
03F00000
03F00000
03F00000
01E00000
ENDCHAR
STARTCHAR odotbelow
ENCODING 7885
SWIDTH 575 0
DWIDTH 22 0
BBX 21 25 0 -8
BITMAP
00FF00
07FFC0
0FFFE0
1FC7F0
3FC7F0
7F87F8
7F87F8
7F87F8
FF07F8
FF0FF0
FF0FF0
7F0FF0
7F1FE0
7F1FE0
3FFFC0
1FFF00
07FC00
000000
000000
000000
03C000
07E000
0FE000
07E000
078000
ENDCHAR
STARTCHAR Udotbelow
ENCODING 7908
SWIDTH 630 0
DWIDTH 24 0
BBX 24 32 1 -8
BITMAP
0FF007
0FF00F
1FF00F
1FF00E
1FF00E
1FE01E
3FE01E
3FE01E
3FE01C
3FC01C
3FC03C
7FC03C
7FC038
7FC038
7F8038
7F8078
FF8078
FF8070
FF80F0
FF80E0
7FC1E0
7FFFC0
3FFF00
07F800
000000
000000
000000
01E000
07E000
07F000
07E000
03C000
ENDCHAR
STARTCHAR udotbelow
ENCODING 7909
SWIDTH 585 0
DWIDTH 22 0
BBX 22 25 0 -8
BITMAP
1FE3FC
1FC3FC
3FC3F8
3FC7F8
3FC7F8
3FC7F8
3F87F8
7F87F0
7F8FF0
7F8FF0
7F8FF0
7F0FF0
FF1FE0
FFBFE0
7FEFE0
7FCFE0
1F0FE0
000000
000000
000000
01E000
03F000
07F000
03E000
03C000
ENDCHAR
STARTCHAR Ygrave
ENCODING 7922
SWIDTH 570 0
DWIDTH 22 0
BBX 21 33 3 0
BITMAP
0FE000
07E000
03F000
00F800
007800
003C00
001E00
000000
000000
FF8078
FF80F8
7FC0F0
7FC1E0
7FC1E0
7FE3C0
3FE380
3FE780
3FEF00
3FFE00
1FFE00
1FFC00
1FF800
1FF800
0FF000
1FF000
1FE000
1FE000
1FE000
1FE000
3FE000
3FC000
3FC000
3FC000
ENDCHAR
STARTCHAR ygrave
ENCODING 7923
SWIDTH 517 0
DWIDTH 20 0
BBX 23 30 -2 -6
BITMAP
01FC00
007C00
003E00
000F00
000780
000000
000000
0FF03E
0FF03C
0FF078
0FF078
0FF0F0
0FF0F0
0FF1E0
07F1E0
07F3C0
07F380
07FF80
07FF00
07FF00
07FE00
07FE00
03FC00
03FC00
03F800
03F000
07F000
FFE000
FF8000
FE0000
ENDCHAR
STARTCHAR Ytilde
ENCODING 7928
SWIDTH 570 0
DWIDTH 22 0
BBX 22 33 3 0
BITMAP
007808
00FF1C
01FFF8
03FFF0
030FF0
0103C0
000000
000000
000000
FF8078
FF80F8
7FC0F0
7FC1E0
7FC1E0
7FE3C0
3FE380
3FE780
3FEF00
3FFE00
1FFE00
1FFC00
1FF800
1FF800
0FF000
1FF000
1FE000
1FE000
1FE000
1FE000
3FE000
3FC000
3FC000
3FC000
ENDCHAR
STARTCHAR ytilde
ENCODING 7929
SWIDTH 517 0
DWIDTH 20 0
BBX 23 30 -2 -6
BITMAP
003FFE
007FFC
00FFF8
01FFF0
000000
000000
000000
0FF03E
0FF03C
0FF078
0FF078
0FF0F0
0FF0F0
0FF1E0
07F1E0
07F3C0
07F380
07FF80
07FF00
07FF00
07FE00
07FE00
03FC00
03FC00
03F800
03F000
07F000
FFE000
FF8000
FE0000
ENDCHAR
STARTCHAR endash
ENCODING 8211
SWIDTH 600 0
DWIDTH 23 0
BBX 20 4 1 6
BITMAP
7FFFF0
7FFFF0
FFFFE0
FFFFE0
ENDCHAR
STARTCHAR emdash
ENCODING 8212
SWIDTH 874 0
DWIDTH 33 0
BBX 30 4 1 6
BITMAP
7FFFFFFC
7FFFFFFC
FFFFFFFC
FFFFFFFC
ENDCHAR
STARTCHAR quoteleft
ENCODING 8216
SWIDTH 267 0
DWIDTH 10 0
BBX 8 12 3 14
BITMAP
03
0F
1E
3C
7C
7C
FC
FE
FF
FE
FE
7C
ENDCHAR
STARTCHAR quoteright
ENCODING 8217
SWIDTH 264 0
DWIDTH 10 0
BBX 9 12 3 15
BITMAP
1E00
3F00
7F00
7F80
7F00
3F00
1F00
1E00
3C00
7800
F000
6000
ENDCHAR
STARTCHAR quotesinglbase
ENCODING 8218
SWIDTH 275 0
DWIDTH 10 0
BBX 9 12 -1 -5
BITMAP
1E00
3F00
7F80
7F80
3F80
1F00
1F00
1E00
3C00
7800
F000
6000
ENDCHAR
STARTCHAR quotedblleft
ENCODING 8220
SWIDTH 532 0
DWIDTH 20 0
BBX 18 12 3 14
BITMAP
0300C0
0F03C0
1E0780
3C0F00
7C1F00
7C1F00
FC3F00
FE3F80
FF3FC0
FE3FC0
FE3F80
7C0F00
ENDCHAR
STARTCHAR quotedblright
ENCODING 8221
SWIDTH 528 0
DWIDTH 20 0
BBX 19 12 3 15
BITMAP
1E0780
3F0FC0
7F1FC0
7F9FE0
7F1FC0
3F0FC0
1F07C0
1E0780
3C0F00
781E00
F03C00
601800
ENDCHAR
STARTCHAR quotedblbase
ENCODING 8222
SWIDTH 539 0
DWIDTH 20 0
BBX 19 12 -1 -5
BITMAP
1E0780
3F0FC0
7F9FE0
7F9FE0
3F8FE0
3F07C0
1F07C0
1E0780
3C0F00
781E00
F03C00
601800
ENDCHAR
STARTCHAR dagger
ENCODING 8224
SWIDTH 365 0
DWIDTH 14 0
BBX 12 33 2 -6
BITMAP
03C0
03C0
03C0
03C0
0380
0780
0780
0780
0780
FFF0
FFF0
FFF0
0F00
0E00
0E00
1E00
1E00
1E00
1C00
1C00
3C00
3C00
3C00
3800
3800
7800
7800
7800
7000
F000
F000
F000
E000
ENDCHAR
STARTCHAR daggerdbl
ENCODING 8225
SWIDTH 374 0
DWIDTH 14 0
BBX 15 33 0 -6
BITMAP
0070
00F0
00F0
00F0
00F0
00E0
01E0
01E0
01E0
1FFE
3FFC
3FFC
03C0
03C0
0380
0380
0780
0780
0780
0700
0700
FFF0
FFF0
FFF0
0E00
1E00
1E00
1E00
1C00
1C00
3C00
3C00
3C00
ENDCHAR
STARTCHAR bullet
ENCODING 8226
SWIDTH 348 0
DWIDTH 13 0
BBX 9 9 3 10
BITMAP
3C00
7F00
FF00
FF80
FF80
FF80
FF00
7F00
3C00
ENDCHAR
STARTCHAR ellipsis
ENCODING 8230
SWIDTH 910 0
DWIDTH 35 0
BBX 32 7 0 0
BITMAP
3C03C03C
7E07E07E
FF0FF0FF
FF0FF0FF
FF0FF0FF
FE0FE07E
7C03C03C
ENDCHAR
STARTCHAR perthousand
ENCODING 8240
SWIDTH 1054 0
DWIDTH 40 0
BBX 35 24 3 0
BITMAP
1F80780000
7FC0F00000
79C1E00000
F1E1E00000
F3C3C00000
F3C7800000
F7C7800000
FF8F000000
3E1E000000
001E000000
003C000000
003C000000
0078000000
00F0000000
00F1F80F80
01E7FC3FC0
03C7BC79E0
03CF3C79E0
078F3C79E0
0F0F3CF1E0
0F0F3CF3E0
1E0F7C73C0
3E0FF87F80
7C07E03F00
ENDCHAR
STARTCHAR guilsinglleft
ENCODING 8249
SWIDTH 324 0
DWIDTH 12 0
BBX 12 17 0 0
BITMAP
01F0
01E0
03E0
07C0
0F80
1F00
3E00
7E00
FC00
7C00
7E00
3E00
1E00
1F00
0F00
0F80
0780
ENDCHAR
STARTCHAR guilsinglright
ENCODING 8250
SWIDTH 322 0
DWIDTH 12 0
BBX 12 17 -1 0
BITMAP
1F00
0F00
0F80
07C0
07C0
07E0
03E0
03F0
01F0
03E0
07C0
0FC0
0F80
1F00
3E00
7C00
F800
ENDCHAR
STARTCHAR fraction
ENCODING 8260
SWIDTH 100 0
DWIDTH 4 0
BBX 19 24 -7 0
BITMAP
0001E0
0003C0
0003C0
000780
000F00
000F00
001E00
003C00
003C00
007800
00F000
00F000
01E000
01E000
03C000
078000
078000
0F0000
1E0000
1E0000
3C0000
780000
780000
F00000
ENDCHAR
STARTCHAR zerosuperior
ENCODING 8304
SWIDTH 309 0
DWIDTH 12 0
BBX 10 9 3 15
BITMAP
1F00
7FC0
FBC0
F3C0
F3C0
F3C0
F780
FF80
7E00
ENDCHAR
STARTCHAR foursuperior
ENCODING 8308
SWIDTH 270 0
DWIDTH 10 0
BBX 10 10 2 14
BITMAP
0F80
1F80
1F80
3780
6F00
FFC0
FF80
0F00
0F00
1E00
ENDCHAR
STARTCHAR fivesuperior
ENCODING 8309
SWIDTH 262 0
DWIDTH 10 0
BBX 9 8 2 16
BITMAP
3F80
3F80
7000
7F80
0780
F780
F780
7E00
ENDCHAR
STARTCHAR sixsuperior
ENCODING 8310
SWIDTH 281 0
DWIDTH 11 0
BBX 9 8 3 16
BITMAP
1F80
7F80
F380
F600
FF80
E780
E780
7F00
ENDCHAR
STARTCHAR sevensuperior
ENCODING 8311
SWIDTH 231 0
DWIDTH 9 0
BBX 9 10 3 14
BITMAP
FF80
FF00
FE00
1C00
3C00
3800
7800
7800
7000
F000
ENDCHAR
STARTCHAR eightsuperior
ENCODING 8312
SWIDTH 276 0
DWIDTH 10 0
BBX 10 8 2 16
BITMAP
3F80
7BC0
3F80
7F80
F3C0
F3C0
7780
7F00
ENDCHAR
STARTCHAR ninesuperior
ENCODING 8313
SWIDTH 281 0
DWIDTH 11 0
BBX 9 9 3 15
BITMAP
3F00
F380
F380
F780
FF80
0780
EF00
FE00
F800
ENDCHAR
STARTCHAR zeroinferior
ENCODING 8320
SWIDTH 309 0
DWIDTH 12 0
BBX 10 10 0 0
BITMAP
1F00
7F80
FBC0
F3C0
F3C0
F3C0
E7C0
F780
FF80
7E00
ENDCHAR
STARTCHAR oneinferior
ENCODING 8321
SWIDTH 184 0
DWIDTH 7 0
BBX 6 10 0 0
BITMAP
3C
7C
F8
78
78
78
78
F0
F0
F0
ENDCHAR
STARTCHAR twoinferior
ENCODING 8322
SWIDTH 286 0
DWIDTH 11 0
BBX 10 10 -1 0
BITMAP
1F00
7BC0
73C0
73C0
03C0
0780
0F00
3FC0
FF80
FF80
ENDCHAR
STARTCHAR threeinferior
ENCODING 8323
SWIDTH 282 0
DWIDTH 11 0
BBX 10 10 -1 0
BITMAP
1F80
7FC0
7BC0
03C0
0780
0F80
03C0
F7C0
FF80
7E00
ENDCHAR
STARTCHAR fourinferior
ENCODING 8324
SWIDTH 270 0
DWIDTH 10 0
BBX 10 10 -1 0
BITMAP
0F80
0F80
1F80
3780
6700
CF00
FFC0
FF80
0F00
1E00
ENDCHAR
STARTCHAR fiveinferior
ENCODING 8325
SWIDTH 262 0
DWIDTH 10 0
BBX 9 10 -1 0
BITMAP
3F80
3F80
7000
7F00
7F80
0780
0780
E780
FF00
7E00
ENDCHAR
STARTCHAR sixinferior
ENCODING 8326
SWIDTH 281 0
DWIDTH 11 0
BBX 10 10 -1 0
BITMAP
0FC0
3FC0
79C0
7800
7780
7FC0
F3C0
73C0
7780
3F00
ENDCHAR
STARTCHAR seveninferior
ENCODING 8327
SWIDTH 232 0
DWIDTH 9 0
BBX 9 10 0 0
BITMAP
FF80
FF00
FE00
1C00
3800
3800
7800
7000
F000
F000
ENDCHAR
STARTCHAR eightinferior
ENCODING 8328
SWIDTH 277 0
DWIDTH 11 0
BBX 10 10 -1 0
BITMAP
1F00
3B80
7BC0
7BC0
3F80
7F80
F3C0
F380
7780
3E00
ENDCHAR
STARTCHAR nineinferior
ENCODING 8329
SWIDTH 281 0
DWIDTH 11 0
BBX 10 10 -1 0
BITMAP
1F80
39C0
79C0
7BC0
7FC0
7FC0
03C0
7780
7F00
FE00
ENDCHAR
STARTCHAR Euro
ENCODING 8364
SWIDTH 589 0
DWIDTH 22 0
BBX 22 24 1 0
BITMAP
0007F8
003FFC
00FFF8
01FF00
03FE00
03FC00
07F800
3FFFC0
7FFF80
7FFF80
0FF000
0FF000
0FF000
1FF000
FFFF00
FFFF00
FFFF00
0FF000
0FF000
0FF000
07F000
07FFC0
01FFE0
007F80
ENDCHAR
STARTCHAR trademark
ENCODING 8482
SWIDTH 704 0
DWIDTH 27 0
BBX 23 9 5 15
BITMAP
FF7C7E
3C7E7C
387EFC
78FEFC
78DFBC
78DFB8
78DF78
F0DF78
F1DE78
ENDCHAR
STARTCHAR onethird
ENCODING 8531
SWIDTH 659 0
DWIDTH 25 0
BBX 21 24 2 0
BITMAP
0F01F0
3E01E0
7E03C0
1E0780
1E0780
3C0F00
3C1E00
3C1E00
3C3C00
3C3800
007800
00F000
00F000
01E000
03C3F0
03CFF8
078E78
0F0078
0F01E0
1E01F0
3E1CF8
3C1CF0
781FF0
F80FC0
ENDCHAR
STARTCHAR twothirds
ENCODING 8532
SWIDTH 743 0
DWIDTH 28 0
BBX 24 24 2 0
BITMAP
0F801E
3FE03C
39E078
79E078
03C0F0
0701E0
0FC1E0
7FC3C0
FFC780
000780
000F00
001E00
001E00
003C00
007C7E
0079FF
00F1EF
00F00F
01E01E
03C03E
03C3CF
0783DF
0F03FE
1F01F8
ENDCHAR
STARTCHAR oneeighth
ENCODING 8539
SWIDTH 661 0
DWIDTH 25 0
BBX 21 24 2 0
BITMAP
0F01F0
3E01E0
7E03C0
1E0780
1E0780
3C0F00
3C0E00
3C1E00
3C3C00
3C3C00
007800
00F000
00F000
01E000
03C3F0
03C778
078F78
0F0F78
0F07F0
1E0FF0
3E1E78
3C1E78
780EF0
F807C0
ENDCHAR
STARTCHAR threeeighths
ENCODING 8540
SWIDTH 723 0
DWIDTH 27 0
BBX 22 24 3 0
BITMAP
3F0078
7FC0F0
73C1E0
0781E0
0E03C0
E78380
E78780
FF0F00
100F00
001E00
003C00
003C00
007800
00F000
00F1F8
01E3FC
03C39C
03C39C
0783F8
0F83F8
0F07BC
1E073C
3E07B8
7C03F0
ENDCHAR
STARTCHAR fiveeighths
ENCODING 8541
SWIDTH 712 0
DWIDTH 27 0
BBX 23 24 2 0
BITMAP
3FC078
3FC078
3000F0
3F81E0
43C1E0
73C3C0
778780
FF0780
000F00
001E00
001E00
003C00
003C00
007800
00F0FC
00F1DC
01E3DE
03C3DE
03C1FC
0783FC
0F079E
0F079C
1E07BC
3E01F0
ENDCHAR
STARTCHAR seveneighths
ENCODING 8542
SWIDTH 683 0
DWIDTH 26 0
BBX 21 24 3 0
BITMAP
7F81E0
7F81C0
FF03C0
0E0780
1C0780
3C0F00
381E00
781E00
783C00
007800
007800
00F000
01E000
01E000
03C3F0
03C770
078F78
0F0F70
0F07F0
1E0FF0
3C1E70
3C1E70
781EF0
F007C0
ENDCHAR
STARTCHAR minus
ENCODING 8722
SWIDTH 501 0
DWIDTH 19 0
BBX 16 3 2 11
BITMAP
7FFF
FFFF
FFFE
ENDCHAR
STARTCHAR uni2215
ENCODING 8725
SWIDTH 370 0
DWIDTH 14 0
BBX 19 24 -2 0
BITMAP
0001E0
0003C0
000380
000780
000F00
000F00
001E00
003C00
003C00
007800
00F000
00F000
01E000
03E000
03C000
078000
078000
0F0000
1E0000
1E0000
3C0000
7C0000
780000
F00000
ENDCHAR
STARTCHAR uni2219
ENCODING 8729
SWIDTH 273 0
DWIDTH 10 0
BBX 7 7 2 9
BITMAP
18
7E
FE
FE
FE
FE
7C
ENDCHAR
STARTCHAR commaaccent
ENCODING 63171
SWIDTH 227 0
DWIDTH 9 0
BBX 6 9 1 -11
BITMAP
10
7C
7C
7C
3C
38
38
F0
40
ENDCHAR
STARTCHAR f_f
ENCODING 64256
SWIDTH 734 0
DWIDTH 28 0
BBX 32 27 1 0
BITMAP
000000FC
000003FF
003FF7FF
00FFFFFF
03FFFFC0
03FFFF80
07F83F80
0FF07F80
0FF07F00
0FF0FF00
7FFFFFF0
FFFFFFF0
FFFFFFF0
1FE0FE00
1FE1FE00
1FC1FE00
3FC1FE00
3FC1FC00
3FC3FC00
3FC3FC00
3F83FC00
7F83FC00
7F83F800
7F87F800
7F07F800
7F07F800
FF07F800
ENDCHAR
STARTCHAR f_i
ENCODING 64257
SWIDTH 665 0
DWIDTH 25 0
BBX 24 27 1 0
BITMAP
001FF0
007FFE
01FFFC
03FFFC
03FC0C
07F800
07F000
0FF000
0FF000
0FF000
7FFFFF
FFFFFF
FFFFFE
1FE1FE
1FE1FE
1FC1FE
3FC1FE
3FC1FC
3FC3FC
3FC3FC
3F83FC
7F83FC
7F83F8
7F87F8
7F07F8
7F07F8
FF07F8
ENDCHAR
STARTCHAR f_l
ENCODING 64258
SWIDTH 667 0
DWIDTH 25 0
BBX 26 27 1 0
BITMAP
001FF000
007FFFC0
01FFFFC0
03FFFF80
07F87F80
07F87F80
07F07F80
0FF07F80
0FF07F00
0FF0FF00
7FFEFF00
FFFCFF00
FFFCFF00
1FE0FE00
1FE1FE00
1FC1FE00
3FC1FE00
3FC1FE00
3FC1FC00
3FC3FC00
3F83FC00
7F83FC00
7F83F800
7F83F800
7F07F800
7F07F800
FF07F800
ENDCHAR
STARTCHAR f_f_i
ENCODING 64259
SWIDTH 996 0
DWIDTH 38 0
BBX 37 27 1 0
BITMAP
0000007E00
000003FFC0
003FF7FFE0
00FFFFFFE0
03FFFFE1E0
03FFFF8040
07F83F8020
0FF07F8000
0FF07F0000
0FF0FF0000
7FFFFFFFF8
FFFFFFFFF0
FFFFFFFFF0
1FE0FE0FF0
1FE1FE0FF0
1FC1FE0FE0
3FC1FE1FE0
3FC1FE1FE0
3FC3FC1FE0
3FC3FC1FE0
3F83FC1FC0
7F83FC3FC0
7F83F83FC0
7F87F83FC0
7F07F83FC0
7F07F83F80
FF07F87F80
ENDCHAR
STARTCHAR f_f_l
ENCODING 64260
SWIDTH 998 0
DWIDTH 38 0
BBX 39 27 1 0
BITMAP
000000FE00
000003FFFE
003FF7FFFC
00FFFFFFFC
03FFFFC3FC
03FFFF83FC
07F83F83FC
0FF07F87F8
0FF07F07F8
0FF0FF07F8
7FFFFFE7F8
FFFFFFE7F0
FFFFFFEFF0
1FE0FE0FF0
1FE1FE0FF0
1FC1FE0FF0
3FC1FE0FE0
3FC1FC1FE0
3FC3FC1FE0
3FC3FC1FE0
3F83FC1FE0
7F83FC1FC0
7F83F83FC0
7F87F83FC0
7F07F83FC0
7F07F83F80
FF07F87F80
ENDCHAR
STARTCHAR s_t
ENCODING 64262
SWIDTH 862 0
DWIDTH 33 0
BBX 34 27 -1 0
BITMAP
00000FF000
00007FFC00
0001FFFE00
0003E03F00
0007801F00
0007001F00
0007003F00
0007003F00
000700FF00
000703FE00
01FFCFFFC0
07FFCFFFC0
0FFFCFFFC0
1FC7C1FE00
3FC7C1FC00
3FC003FC00
3FF003FC00
3FFE03FC00
1FFF83FC00
0FFFC3F800
01FFC7F800
007FC7F800
7C3FC7F800
7C3F87F800
7FFF87FE00
FFFF03FE00
1FF801FE00
ENDCHAR
STARTCHAR .notdef
ENCODING -1
SWIDTH 227 0
DWIDTH 9 0
BBX 1 1 0 0
BITMAP
00
ENDCHAR
STARTCHAR NULL
ENCODING -1
SWIDTH 191 0
DWIDTH 7 0
BBX 1 1 0 0
BITMAP
00
ENDCHAR
STARTCHAR nonmarkingreturn
ENCODING -1
SWIDTH 191 0
DWIDTH 7 0
BBX 1 1 0 0
BITMAP
00
ENDCHAR
STARTCHAR a.salt
ENCODING -1
SWIDTH 578 0
DWIDTH 22 0
BBX 22 17 0 0
BITMAP
03E1FC
0FFBF8
1FFBF8
3FFFF8
3FCFF8
7F87F8
7F87F0
7F8FF0
7F0FF0
FF0FF0
FF0FF0
FF0FE0
FF1FE0
FF3FE0
7FFFE0
7FCFC0
3F8FC0
ENDCHAR
STARTCHAR aacute.salt
ENCODING -1
SWIDTH 578 0
DWIDTH 22 0
BBX 22 24 0 0
BITMAP
0001FC
0003E0
0007C0
000780
000F00
000000
000000
03E1FC
0FFBF8
1FFBF8
3FFFF8
3FCFF8
7F87F8
7F87F0
7F8FF0
7F0FF0
FF0FF0
FF0FF0
FF0FE0
FF1FE0
FF3FE0
7FFFE0
7FCFC0
3F8FC0
ENDCHAR
STARTCHAR abreve.salt
ENCODING -1
SWIDTH 578 0
DWIDTH 22 0
BBX 22 25 0 0
BITMAP
000008
00601C
007878
003FF0
003FE0
001F80
000000
000000
03E1FC
0FFBF8
1FFBF8
3FFFF8
3FCFF8
7F87F8
7F87F0
7F8FF0
7F0FF0
FF0FF0
FF0FF0
FF0FE0
FF1FE0
FF3FE0
7FFFE0
7FCFC0
3F8FC0
ENDCHAR
STARTCHAR acircumflex.salt
ENCODING -1
SWIDTH 578 0
DWIDTH 22 0
BBX 22 24 0 0
BITMAP
001FE0
003FE0
007CF0
00F070
01E038
000000
000000
03E1FC
0FFBF8
1FFBF8
3FFFF8
3FCFF8
7F87F8
7F87F0
7F8FF0
7F0FF0
FF0FF0
FF0FF0
FF0FE0
FF1FE0
FF3FE0
7FFFE0
7FCFC0
3F8FC0
ENDCHAR
STARTCHAR adieresis.salt
ENCODING -1
SWIDTH 578 0
DWIDTH 22 0
BBX 22 24 0 0
BITMAP
007878
00F8F8
00F8F8
00F8F8
00F8F8
002020
000000
03E1FC
0FFBF8
1FFBF8
3FFFF8
3FCFF8
7F87F8
7F87F0
7F8FF0
7F0FF0
FF0FF0
FF0FF0
FF0FE0
FF1FE0
FF3FE0
7FFFE0
7FCFC0
3F8FC0
ENDCHAR
STARTCHAR agrave.salt
ENCODING -1
SWIDTH 578 0
DWIDTH 22 0
BBX 22 24 0 0
BITMAP
07F800
00F800
007C00
003E00
001F00
000000
000000
03E1FC
0FFBF8
1FFBF8
3FFFF8
3FCFF8
7F87F8
7F87F0
7F8FF0
7F0FF0
FF0FF0
FF0FF0
FF0FE0
FF1FE0
FF3FE0
7FFFE0
7FCFC0
3F8FC0
ENDCHAR
STARTCHAR amacron.salt
ENCODING -1
SWIDTH 578 0
DWIDTH 22 0
BBX 22 23 0 0
BITMAP
00FFFC
00FFFC
00FFF8
000000
000000
000000
03E1FC
0FFBF8
1FFBF8
3FFFF8
3FCFF8
7F87F8
7F87F0
7F8FF0
7F0FF0
FF0FF0
FF0FF0
FF0FE0
FF1FE0
FF3FE0
7FFFE0
7FCFC0
3F8FC0
ENDCHAR
STARTCHAR aogonek.salt
ENCODING -1
SWIDTH 578 0
DWIDTH 22 0
BBX 22 25 0 -8
BITMAP
03E1FC
0FFBF8
1FFBF8
3FFFF8
3FCFF8
7F87F8
7F87F0
7F8FF0
7F0FF0
FF0FF0
FF0FF0
FF0FE0
FF1FE0
FF3FE0
7FFFE0
7FCFC0
3F8FC0
000780
001E00
003E00
003C00
007C40
007FC0
003FC0
001E00
ENDCHAR
STARTCHAR aring.salt
ENCODING -1
SWIDTH 578 0
DWIDTH 22 0
BBX 22 25 0 0
BITMAP
000780
000FC0
001CC0
001CC0
001FC0
000F80
000200
000000
03E1FC
0FFBF8
1FFBF8
3FFFF8
3FCFF8
7F87F8
7F87F0
7F8FF0
7F0FF0
FF0FF0
FF0FF0
FF0FE0
FF1FE0
FF3FE0
7FFFE0
7FCFC0
3F8FC0
ENDCHAR
STARTCHAR atilde.salt
ENCODING -1
SWIDTH 578 0
DWIDTH 22 0
BBX 23 25 0 0
BITMAP
000C04
003FEE
007FFC
00FFFC
00C7F8
000000
000000
000000
03E1FC
0FFBF8
1FFBF8
3FFFF8
3FCFF8
7F87F8
7F87F0
7F8FF0
7F0FF0
FF0FF0
FF0FF0
FF0FE0
FF1FE0
FF3FE0
7FFFE0
7FCFC0
3F8FC0
ENDCHAR
STARTCHAR c_h
ENCODING -1
SWIDTH 1094 0
DWIDTH 42 0
BBX 41 26 0 0
BITMAP
00007FFF0000
0001FFFF0000
0003FFFF0000
0007C0FE0000
000781FE0000
000F01FE0000
000F01FE0000
000701FE0000
000701FC0000
00FF83FC3C00
07FFE3FCFF00
0FFFE3FFFF00
1FC7E3FFFF00
3FC7E7FC7F80
7F87E7F87F00
7F87E7F8FF00
7F8007F8FF00
FF0007F0FF00
FF000FF0FF00
FF000FF0FE00
7F0FCFF1FE00
7F0FCFF1FE00
7F1F8FE1FE00
3FBF9FE1FC00
1FFF9FE3FC00
07FF1FE3FC00
ENDCHAR
STARTCHAR c_k
ENCODING -1
SWIDTH 1106 0
DWIDTH 42 0
BBX 42 26 0 0
BITMAP
00007FFF0000
0001FFFF0000
0003FFFF0000
0007C0FE0000
000781FE0000
000F01FE0000
000F01FE0000
000701FE0000
000703FC0000
00FF83FC07C0
07FFE3FC0F80
0FFFE3FC1F00
1FC7E3F83E00
3FC7E7F8FC00
7F87E7F9F000
7F87E7FBE000
7F8007FFE000
FF0007FFF000
FF000FFFF000
FF000FF7F800
7F0FCFF7FC00
7F0FCFF3FC00
7F1F8FE3FE00
3FBF9FE1FE00
1FFF9FE1FF00
07FF1FE0FF80
ENDCHAR
STARTCHAR c_p
ENCODING -1
SWIDTH 1092 0
DWIDTH 42 0
BBX 40 32 0 -6
BITMAP
00007FF000
0001FFF800
0003FFFC00
0007C1FC00
000701FC00
000F01FC00
000F01FC00
000701FC00
000701FC00
00FF83FC3C
07FFC3FDFE
0FFFE3FBFF
1FC7E3FFFF
3FC7E7FCFF
7F87E7F87F
7F87E7F8FF
7F8007F8FF
FF0007F0FF
FF000FF0FF
FF000FF0FF
7F0FCFF1FF
7F0FCFF1FE
7F1F8FFBFE
3FBF9FFFFC
1FFF9FEFF8
07FF1FE3F0
00001FE000
00001FC000
00003FC000
00003FC000
00003FC000
00003FC000
ENDCHAR
STARTCHAR c_t
ENCODING -1
SWIDTH 915 0
DWIDTH 35 0
BBX 35 26 0 0
BITMAP
00007FFC00
0001FFFF00
0003FFFF80
0007C03F80
0007801F80
000F000F80
000F001F80
0007003F80
0007007F80
00FF83FFE0
07FFC7FFE0
0FFFE7FFE0
1FC7E0FF00
3FC7E0FF00
7F87E1FE00
7F87E1FE00
7F8001FE00
FF0001FE00
FF0001FC00
FF0003FC00
7F0FC3FC00
7F0FC3FC00
7F1F83FC00
3FBF83FF00
1FFF81FF00
07FF01FF00
ENDCHAR
STARTCHAR e_t
ENCODING -1
SWIDTH 915 0
DWIDTH 35 0
BBX 35 26 0 0
BITMAP
00007FFE00
0001FFFF00
0003FFFF80
0007C03F80
0007801F80
000F000F80
000F001F80
0007003F80
0007007F80
00FF83FFE0
07FFE7FFE0
0FFFE7FFE0
1FC7F0FF00
3FC7F0FF00
7F87F1FE00
7F87F1FE00
7FFFF1FE00
FFFFE1FE00
FF0001FC00
FF0003FC00
7F0FE3FC00
7F0FC3FC00
7F1FC3FC00
3FBFC3FF00
1FFFC1FF00
0FFE00FF00
ENDCHAR
STARTCHAR f_b
ENCODING -1
SWIDTH 959 0
DWIDTH 36 0
BBX 34 27 1 0
BITMAP
0003000000
003FFFC000
00FFFFC000
01FFFF8000
03F83F8000
07F87F8000
07F07F8000
0FF07F8000
0FF07F0000
0FF0FF0000
7FFEFF0F00
7FFCFF7F80
FFFCFFFFC0
1FE0FFFFC0
1FE1FF3FC0
1FC1FE1FC0
3FC1FE3FC0
3FC1FE3FC0
3FC1FC3FC0
3FC3FC3FC0
3F83FC3FC0
7F83FC7F80
7F83FC7F80
7F83FEFF80
7F87FFFF00
7F07F3FE00
FF07E1FC00
ENDCHAR
STARTCHAR f_f_b
ENCODING -1
SWIDTH 1291 0
DWIDTH 49 0
BBX 47 27 1 0
BITMAP
000000180000
000703FFFE00
007FFFFFFC00
01FFFFFFFC00
03FFFFC3FC00
07F83F83FC00
07F07F83F800
0FF07F87F800
0FF07F07F800
0FF07F07F800
7FFFFFE7F8F0
7FFFFFE7F3FC
FFFFFFEFF7FE
1FE0FE0FFFFE
1FE1FE0FF1FE
1FC1FE0FF1FE
3FC1FE0FE1FE
3FC1FE1FE1FE
3FC1FC1FE1FE
3FC3FC1FE1FE
3F83FC1FE3FC
7F83FC1FC3FC
7F83FC3FC7FC
7F83F83FFFF8
7F87F83FBFF8
7F07F83FBFF0
FF07F87F0FE0
ENDCHAR
STARTCHAR f_f_h
ENCODING -1
SWIDTH 1294 0
DWIDTH 49 0
BBX 47 27 1 0
BITMAP
000000180000
000703FFFE00
007FFFFFFC00
01FFFFFFFC00
03FFFFC3FC00
07F83F83FC00
07F07F83FC00
0FF07F83F800
0FF07F87F800
0FF07F07F800
7FFFFFE7F8F8
7FFFFFE7FBFC
FFFFFFE7F7FE
1FE0FE0FFFFE
1FE0FE0FF1FE
1FC1FE0FF1FE
3FC1FE0FE1FE
3FC1FE1FE1FE
3FC1FC1FE1FC
3FC3FC1FE3FC
3F83FC1FE3FC
7F83FC1FC3FC
7F83FC3FC3FC
7F83F83FC3F8
7F87F83FC7F8
7F07F83FC7F8
FF07F83F87F8
ENDCHAR
STARTCHAR f_f_j
ENCODING -1
SWIDTH 995 0
DWIDTH 38 0
BBX 37 33 1 -6
BITMAP
0000000800
000703FFC0
007FFFFFE0
01FFFFFFE0
03FFFFFFE0
07F83FC040
07F07F8000
0FF07F8000
0FF07F0000
0FF0FF0000
7FFFFFFFF8
7FFFFFFFF0
FFFFFFFFF0
1FE0FE0FF0
1FE1FE0FF0
1FC1FE0FE0
3FC1FE1FE0
3FC1FE1FE0
3FC1FC1FE0
3FC3FC1FE0
3F83FC1FC0
7F83FC3FC0
7F83FC3FC0
7F83F83FC0
7F87F83FC0
7F07F83F80
FF07F87F80
0000007F80
0000007F00
000000FF00
000000FE00
000003FC00
000003F000
ENDCHAR
STARTCHAR f_f_k
ENCODING -1
SWIDTH 1288 0
DWIDTH 49 0
BBX 49 27 1 0
BITMAP
00000018000000
000703FFFE0000
007FFFFFFC0000
01FFFFFFFC0000
03FFFFC3FC0000
07F83F83FC0000
07F07F83F80000
0FF07F87F80000
0FF07F07F80000
0FF07F07F80000
7FFFFFE7F80F80
7FFFFFE7F01F00
FFFFFFEFF07E00
1FE0FE0FF0F800
1FE1FE0FF1F000
1FC1FE0FF3E000
3FC1FE0FEFC000
3FC1FE1FFFC000
3FC1FC1FFFC000
3FC3FC1FFFE000
3F83FC1FFFF000
7F83FC1FCFF000
7F83FC3FCFF800
7F83F83FC7F800
7F87F83FC7FC00
7F07F83F83FC00
FF07F87F83FE00
ENDCHAR
STARTCHAR f_f_t
ENCODING -1
SWIDTH 1030 0
DWIDTH 39 0
BBX 39 27 1 0
BITMAP
0000006000
000787FE00
007FFFFE00
01FFFFFE00
03FFFF8000
07F87F0078
07F0FF00F8
0FF0FF01F0
0FF0FF03F0
0FF0FE07F0
7FFFFFFFFE
7FFFFFFFFC
FFFFFFFFFC
1FE1FE1FE0
1FE1FC1FE0
1FC3FC1FE0
3FC3FC1FC0
3FC3FC3FC0
3FC3FC3FC0
3FC3F83FC0
3F87F83FC0
7F87F83F80
7F87F83F80
7F87F03F80
7F8FF03FF0
7F0FF03FF0
FF0FF01FE0
ENDCHAR
STARTCHAR f_h
ENCODING -1
SWIDTH 961 0
DWIDTH 37 0
BBX 34 27 1 0
BITMAP
0003000000
003FFFC000
00FFFFC000
01FFFFC000
03F83F8000
07F87F8000
07F07F8000
0FF07F8000
0FF07F0000
0FF0FF0000
7FFEFF0F00
7FFCFF3FC0
FFFCFFFFC0
1FE0FFFFC0
1FE1FF3FC0
1FC1FE3FC0
3FC1FE3FC0
3FC1FE3FC0
3FC1FC3FC0
3FC3FC3F80
3F83FC7F80
7F83FC7F80
7F83FC7F80
7F83F87F80
7F87F87F00
7F07F8FF00
FF07F8FF00
ENDCHAR
STARTCHAR f_j
ENCODING -1
SWIDTH 666 0
DWIDTH 25 0
BBX 24 33 1 -6
BITMAP
000100
003FFC
00FFFE
01FFFC
03FFFC
07F804
07F000
0FF000
0FF000
0FF000
7FFFFF
7FFFFF
FFFFFF
1FE0FE
1FE1FE
1FC1FE
3FC1FE
3FC1FE
3FC1FC
3FC3FC
3F83FC
7F83FC
7F83FC
7F83F8
7F87F8
7F07F8
FF07F8
0007F0
000FF0
000FE0
001FE0
007F80
007F00
ENDCHAR
STARTCHAR f_k
ENCODING -1
SWIDTH 957 0
DWIDTH 36 0
BBX 36 27 1 0
BITMAP
0003000000
003FFFC000
00FFFFC000
01FFFFC000
03F83F8000
07F87F8000
07F07F8000
0FF07F8000
0FF07F0000
0FF0FF0000
7FFEFF01F0
7FFCFF03E0
FFFCFF07C0
1FE0FE0F80
1FE1FE3F00
1FC1FE7C00
3FC1FEF800
3FC1FFF800
3FC1FFFC00
3FC3FFFC00
3F83FDFE00
7F83FDFF00
7F83FCFF00
7F83F8FF80
7F87F87F80
7F07F87FC0
FF07F83FE0
ENDCHAR
STARTCHAR f_t
ENCODING -1
SWIDTH 721 0
DWIDTH 27 0
BBX 27 27 1 0
BITMAP
00030000
007FF000
00FFE000
03FFE000
03F80000
07F80780
07F00F80
0FF01F80
0FF03F00
0FF07F00
7FFFFFE0
7FFFFFE0
FFFFFFE0
1FE0FE00
1FE1FE00
1FC1FE00
3FC1FE00
3FC1FE00
3FC1FC00
3FC3FC00
3F83FC00
7F83FC00
7F83FC00
7F83F800
7F83FF00
7F03FF00
FF01FF00
ENDCHAR
STARTCHAR s_p
ENCODING -1
SWIDTH 1065 0
DWIDTH 40 0
BBX 40 32 -1 -6
BITMAP
00007FF800
0001FFFC00
0003FFFC00
0007C1FE00
000701FE00
000F01FE00
000F01FE00
000701FC00
000701FC00
01FF83FC3C
07FFC3FDFE
0FFFC3FBFF
1FC7C3FFFF
3FC7C7FCFF
3FC007F87F
3FF007F8FF
3FFE07F8FF
1FFF87F0FF
0FFF8FF0FF
03FFCFF0FF
007FCFF1FE
7C3FCFF1FE
7C3FCFFBFE
7E7F9FFFFC
FFFF1FEFF8
3FFC1FE3F0
00001FE000
00001FC000
00003FC000
00003FC000
00003FC000
00003FC000
ENDCHAR
STARTCHAR t_t
ENCODING -1
SWIDTH 723 0
DWIDTH 27 0
BBX 27 22 1 0
BITMAP
00F80780
00F00F80
01F01F80
03F03F00
0FF07F00
7FFFFFE0
7FFFFFE0
FFFFFFE0
1FE0FE00
1FE1FE00
1FC1FE00
3FC1FE00
3FC1FE00
3FC1FC00
3FC3FC00
3F83FC00
7F83FC00
7F83FC00
7F83FC00
7FF3FF00
3FE3FF00
1FE1FF00
ENDCHAR
ENDFONT
